Junicode-Bold.ufo
<glyph name="exclam" format="1">
  <advance width="253"/>
  <unicode hex="0021"/>
  <outline>
    <contour>
      <point x="204" y="57" type="qcurve" smooth="yes"/>
      <point x="204" y="27"/>
      <point x="161" y="-12"/>
      <point x="95" y="-12"/>
      <point x="51" y="30"/>
      <point x="51" y="90"/>
      <point x="91" y="136"/>
      <point x="166" y="136"/>
      <point x="204" y="90"/>
    </contour>
    <contour>
      <point x="196" y="625" type="qcurve" smooth="yes"/>
      <point x="196" y="567"/>
      <point x="162" y="335" type="qcurve" smooth="yes"/>
      <point x="156" y="291"/>
      <point x="152" y="215" type="qcurve" smooth="yes"/>
      <point x="152" y="205"/>
      <point x="103" y="205"/>
      <point x="102" y="215" type="qcurve" smooth="yes"/>
      <point x="101" y="265"/>
      <point x="63" y="593"/>
      <point x="63" y="609" type="qcurve" smooth="yes"/>
      <point x="63" y="644"/>
      <point x="104" y="683"/>
      <point x="129" y="683" type="qcurve" smooth="yes"/>
      <point x="162" y="683"/>
      <point x="196" y="649"/>
    </contour>
  </outline>
</glyph>
<glyph name="numbersign" format="1">
  <advance width="495"/>
  <unicode hex="0023"/>
  <outline>
    <contour>
      <point x="485" y="456" type="line"/>
      <point x="485" y="392" type="line"/>
      <point x="381" y="392" type="line"/>
      <point x="343" y="251" type="line"/>
      <point x="431" y="251" type="line"/>
      <point x="431" y="186" type="line"/>
      <point x="326" y="186" type="line"/>
      <point x="278" y="5" type="line"/>
      <point x="212" y="5" type="line"/>
      <point x="260" y="186" type="line"/>
      <point x="172" y="186" type="line"/>
      <point x="124" y="5" type="line"/>
      <point x="58" y="5" type="line"/>
      <point x="107" y="186" type="line"/>
      <point x="12" y="186" type="line"/>
      <point x="12" y="251" type="line"/>
      <point x="124" y="251" type="line"/>
      <point x="161" y="392" type="line"/>
      <point x="66" y="392" type="line"/>
      <point x="66" y="456" type="line"/>
      <point x="178" y="456" type="line"/>
      <point x="219" y="610" type="line"/>
      <point x="285" y="610" type="line"/>
      <point x="244" y="456" type="line"/>
      <point x="332" y="456" type="line"/>
      <point x="373" y="610" type="line"/>
      <point x="439" y="610" type="line"/>
      <point x="398" y="456" type="line"/>
    </contour>
    <contour>
      <point x="315" y="392" type="line"/>
      <point x="227" y="392" type="line"/>
      <point x="190" y="251" type="line"/>
      <point x="278" y="251" type="line"/>
    </contour>
  </outline>
</glyph>
<glyph name="dollar" format="1">
  <advance width="502"/>
  <unicode hex="0024"/>
  <outline>
    <contour>
      <point x="457" y="199" type="qcurve" smooth="yes"/>
      <point x="457" y="106"/>
      <point x="355" y="-2"/>
      <point x="275" y="-8" type="qcurve"/>
      <point x="275" y="-73" type="line" smooth="yes"/>
      <point x="275" y="-81"/>
      <point x="214" y="-80"/>
      <point x="214" y="-73" type="qcurve" smooth="yes"/>
      <point x="214" y="-7" type="line"/>
      <point x="140" y="3"/>
      <point x="77" y="37" type="qcurve"/>
      <point x="51" y="109"/>
      <point x="51" y="175" type="qcurve" smooth="yes"/>
      <point x="51" y="180"/>
      <point x="52" y="183" type="qcurve" smooth="yes"/>
      <point x="53" y="195"/>
      <point x="96" y="196"/>
      <point x="97" y="186" type="qcurve" smooth="yes"/>
      <point x="101" y="133"/>
      <point x="170" y="56"/>
      <point x="214" y="43" type="qcurve"/>
      <point x="214" y="283" type="line"/>
      <point x="127" y="315"/>
      <point x="48" y="402"/>
      <point x="48" y="486" type="qcurve" smooth="yes"/>
      <point x="48" y="537"/>
      <point x="135" y="639"/>
      <point x="214" y="649" type="qcurve"/>
      <point x="214" y="716" type="line" smooth="yes"/>
      <point x="214" y="724"/>
      <point x="275" y="723"/>
      <point x="275" y="716" type="qcurve" smooth="yes"/>
      <point x="275" y="649" type="line"/>
      <point x="320" y="647"/>
      <point x="369" y="635"/>
      <point x="383" y="635"/>
      <point x="390" y="636" type="qcurve"/>
      <point x="412" y="572"/>
      <point x="412" y="504" type="qcurve" smooth="yes"/>
      <point x="412" y="498"/>
      <point x="371" y="492"/>
      <point x="369" y="499" type="qcurve" smooth="yes"/>
      <point x="357" y="553"/>
      <point x="301" y="601"/>
      <point x="275" y="606" type="qcurve"/>
      <point x="275" y="389" type="line"/>
      <point x="397" y="352"/>
      <point x="457" y="252"/>
    </contour>
    <contour>
      <point x="214" y="410" type="qcurve"/>
      <point x="214" y="608" type="line"/>
      <point x="145" y="584"/>
      <point x="145" y="510" type="qcurve" smooth="yes"/>
      <point x="145" y="437"/>
    </contour>
    <contour>
      <point x="360" y="147" type="qcurve" smooth="yes"/>
      <point x="360" y="225"/>
      <point x="275" y="260" type="qcurve"/>
      <point x="275" y="36" type="line"/>
      <point x="360" y="57"/>
    </contour>
  </outline>
</glyph>
<glyph name="percent" format="1">
  <advance width="889"/>
  <unicode hex="0025"/>
  <outline>
    <contour>
      <point x="386" y="475" type="qcurve" smooth="yes"/>
      <point x="386" y="396"/>
      <point x="348" y="338" type="qcurve" smooth="yes"/>
      <point x="301" y="267"/>
      <point x="216" y="267" type="qcurve" smooth="yes"/>
      <point x="138" y="267"/>
      <point x="88" y="338" type="qcurve" smooth="yes"/>
      <point x="48" y="396"/>
      <point x="48" y="475" type="qcurve" smooth="yes"/>
      <point x="48" y="549"/>
      <point x="83" y="607" type="qcurve" smooth="yes"/>
      <point x="130" y="683"/>
      <point x="302" y="683"/>
      <point x="350" y="607" type="qcurve" smooth="yes"/>
      <point x="386" y="549"/>
    </contour>
    <contour>
      <point x="285" y="476" type="qcurve" smooth="yes"/>
      <point x="285" y="640"/>
      <point x="216" y="640" type="qcurve" smooth="yes"/>
      <point x="149" y="640"/>
      <point x="149" y="476" type="qcurve" smooth="yes"/>
      <point x="149" y="310"/>
      <point x="216" y="310" type="qcurve" smooth="yes"/>
      <point x="285" y="310"/>
    </contour>
    <contour>
      <point x="699" y="669" type="qcurve" smooth="yes"/>
      <point x="272" y="-40" type="line" smooth="yes"/>
      <point x="268" y="-46"/>
      <point x="242" y="-30" type="qcurve" smooth="yes"/>
      <point x="221" y="-16"/>
      <point x="224" y="-10" type="qcurve" smooth="yes"/>
      <point x="650" y="697" type="line" smooth="yes"/>
      <point x="653" y="703"/>
      <point x="680" y="688" type="qcurve" smooth="yes"/>
      <point x="703" y="675"/>
    </contour>
    <contour>
      <point x="879" y="198" type="qcurve" smooth="yes"/>
      <point x="879" y="119"/>
      <point x="841" y="61" type="qcurve" smooth="yes"/>
      <point x="794" y="-10"/>
      <point x="709" y="-10" type="qcurve" smooth="yes"/>
      <point x="631" y="-10"/>
      <point x="581" y="61" type="qcurve" smooth="yes"/>
      <point x="541" y="119"/>
      <point x="541" y="198" type="qcurve" smooth="yes"/>
      <point x="541" y="272"/>
      <point x="577" y="330" type="qcurve" smooth="yes"/>
      <point x="624" y="406"/>
      <point x="709" y="406" type="qcurve" smooth="yes"/>
      <point x="796" y="406"/>
      <point x="843" y="330" type="qcurve" smooth="yes"/>
      <point x="879" y="272"/>
    </contour>
    <contour>
      <point x="778" y="199" type="qcurve" smooth="yes"/>
      <point x="778" y="363"/>
      <point x="709" y="363" type="qcurve" smooth="yes"/>
      <point x="642" y="363"/>
      <point x="642" y="199" type="qcurve" smooth="yes"/>
      <point x="642" y="33"/>
      <point x="709" y="33" type="qcurve" smooth="yes"/>
      <point x="778" y="33"/>
    </contour>
  </outline>
</glyph>
<glyph name="ampersand" format="1">
  <advance width="831"/>
  <unicode hex="0026"/>
  <outline>
    <contour>
      <point x="827" y="94" type="qcurve" smooth="yes"/>
      <point x="835" y="86"/>
      <point x="834" y="80" type="qcurve" smooth="yes"/>
      <point x="834" y="77"/>
      <point x="833" y="75" type="qcurve" smooth="yes"/>
      <point x="786" y="13"/>
      <point x="705" y="-7" type="qcurve" smooth="yes"/>
      <point x="676" y="-14"/>
      <point x="646" y="-14" type="qcurve" smooth="yes"/>
      <point x="547" y="-14"/>
      <point x="468" y="97" type="qcurve"/>
      <point x="358" y="-13"/>
      <point x="242" y="-14" type="qcurve" smooth="yes"/>
      <point x="122" y="-14"/>
      <point x="63" y="60" type="qcurve" smooth="yes"/>
      <point x="19" y="116"/>
      <point x="19" y="182" type="qcurve" smooth="yes"/>
      <point x="20" y="300"/>
      <point x="188" y="387" type="qcurve"/>
      <point x="108" y="445"/>
      <point x="108" y="519" type="qcurve" smooth="yes"/>
      <point x="108" y="585"/>
      <point x="159" y="628" type="qcurve" smooth="yes"/>
      <point x="209" y="670"/>
      <point x="272" y="670" type="qcurve" smooth="yes"/>
      <point x="354" y="670"/>
      <point x="401" y="610" type="qcurve" smooth="yes"/>
      <point x="424" y="581"/>
      <point x="425" y="535" type="qcurve" smooth="yes"/>
      <point x="425" y="467"/>
      <point x="337" y="415" type="qcurve"/>
      <point x="433" y="347"/>
      <point x="513" y="233" type="qcurve"/>
      <point x="595" y="349"/>
      <point x="595" y="371" type="qcurve" smooth="yes"/>
      <point x="595" y="400"/>
      <point x="534" y="400" type="qcurve" smooth="yes"/>
      <point x="526" y="400"/>
      <point x="526" y="449"/>
      <point x="534" y="449" type="qcurve" smooth="yes"/>
      <point x="575" y="446"/>
      <point x="667" y="445" type="qcurve" smooth="yes"/>
      <point x="759" y="445"/>
      <point x="785" y="449" type="qcurve" smooth="yes"/>
      <point x="792" y="449"/>
      <point x="792" y="400"/>
      <point x="785" y="400" type="qcurve" smooth="yes"/>
      <point x="717" y="400"/>
      <point x="681" y="371" type="qcurve" smooth="yes"/>
      <point x="652" y="344"/>
      <point x="621" y="296" type="qcurve" smooth="yes"/>
      <point x="584" y="240"/>
      <point x="543" y="187" type="qcurve"/>
      <point x="624" y="66"/>
      <point x="713" y="66" type="qcurve" smooth="yes"/>
      <point x="777" y="66"/>
      <point x="809" y="98" type="qcurve" smooth="yes"/>
      <point x="811" y="100"/>
      <point x="814" y="100" type="qcurve" smooth="yes"/>
      <point x="820" y="100"/>
    </contour>
    <contour>
      <point x="330" y="538" type="qcurve" smooth="yes"/>
      <point x="330" y="622"/>
      <point x="269" y="622" type="qcurve" smooth="yes"/>
      <point x="211" y="622"/>
      <point x="211" y="542" type="qcurve" smooth="yes"/>
      <point x="211" y="493"/>
      <point x="291" y="443" type="qcurve"/>
      <point x="330" y="481"/>
    </contour>
    <contour>
      <point x="441" y="136" type="qcurve"/>
      <point x="345" y="281"/>
      <point x="230" y="359" type="qcurve"/>
      <point x="126" y="297"/>
      <point x="126" y="202" type="qcurve" smooth="yes"/>
      <point x="126" y="135"/>
      <point x="168" y="90" type="qcurve" smooth="yes"/>
      <point x="212" y="44"/>
      <point x="283" y="44" type="qcurve" smooth="yes"/>
      <point x="358" y="44"/>
    </contour>
  </outline>
</glyph>
<glyph name="quotesingle" format="1">
  <advance width="205"/>
  <unicode hex="0027"/>
  <outline>
    <contour>
      <point x="168" y="671" type="qcurve" smooth="yes"/>
      <point x="168" y="663"/>
      <point x="149" y="562" type="qcurve" smooth="yes"/>
      <point x="133" y="478"/>
      <point x="133" y="461" type="qcurve" smooth="yes"/>
      <point x="133" y="454"/>
      <point x="104" y="454" type="qcurve" smooth="yes"/>
      <point x="74" y="454"/>
      <point x="74" y="461" type="qcurve" smooth="yes"/>
      <point x="74" y="491"/>
      <point x="49" y="612" type="qcurve" smooth="yes"/>
      <point x="39" y="657"/>
      <point x="39" y="670" type="qcurve" smooth="yes"/>
      <point x="39" y="723"/>
      <point x="104" y="723" type="qcurve" smooth="yes"/>
      <point x="168" y="723"/>
    </contour>
  </outline>
</glyph>
<glyph name="parenleft" format="1">
  <advance width="329"/>
  <unicode hex="0028"/>
  <outline>
    <contour>
      <point x="319" y="724" type="qcurve" smooth="yes"/>
      <point x="319" y="712"/>
      <point x="306" y="697" type="qcurve" smooth="yes"/>
      <point x="304" y="695" type="line" smooth="yes"/>
      <point x="165" y="555"/>
      <point x="165" y="287" type="qcurve" smooth="yes"/>
      <point x="165" y="14"/>
      <point x="304" y="-122" type="qcurve" smooth="yes"/>
      <point x="317" y="-135"/>
      <point x="317" y="-151" type="qcurve" smooth="yes"/>
      <point x="317" y="-173"/>
      <point x="296" y="-173" type="qcurve" smooth="yes"/>
      <point x="279" y="-173"/>
      <point x="265" y="-161" type="qcurve" smooth="yes"/>
      <point x="206" y="-106"/>
      <point x="177" y="-70" type="qcurve" smooth="yes"/>
      <point x="60" y="76"/>
      <point x="60" y="287" type="qcurve" smooth="yes"/>
      <point x="60" y="413"/>
      <point x="129" y="557" type="qcurve" smooth="yes"/>
      <point x="174" y="654"/>
      <point x="265" y="735" type="qcurve" smooth="yes"/>
      <point x="278" y="747"/>
      <point x="296" y="747" type="qcurve" smooth="yes"/>
      <point x="319" y="747"/>
    </contour>
  </outline>
</glyph>
<glyph name="parenright" format="1">
  <advance width="329"/>
  <unicode hex="0029"/>
  <outline>
    <contour>
      <point x="270" y="287" type="qcurve" smooth="yes"/>
      <point x="270" y="162"/>
      <point x="201" y="17" type="qcurve" smooth="yes"/>
      <point x="156" y="-79"/>
      <point x="65" y="-161" type="qcurve" smooth="yes"/>
      <point x="52" y="-173"/>
      <point x="34" y="-173" type="qcurve" smooth="yes"/>
      <point x="13" y="-173"/>
      <point x="13" y="-153" type="qcurve" smooth="yes"/>
      <point x="13" y="-138"/>
      <point x="26" y="-125" type="qcurve" smooth="yes"/>
      <point x="110" y="-40"/>
      <point x="146" y="109" type="qcurve" smooth="yes"/>
      <point x="166" y="193"/>
      <point x="165" y="287" type="qcurve" smooth="yes"/>
      <point x="165" y="468"/>
      <point x="96" y="600" type="qcurve" smooth="yes"/>
      <point x="66" y="657"/>
      <point x="26" y="696" type="qcurve" smooth="yes"/>
      <point x="14" y="709"/>
      <point x="14" y="725" type="qcurve" smooth="yes"/>
      <point x="14" y="747"/>
      <point x="34" y="747" type="qcurve" smooth="yes"/>
      <point x="52" y="747"/>
      <point x="65" y="735" type="qcurve" smooth="yes"/>
      <point x="122" y="682"/>
      <point x="149" y="649" type="qcurve" smooth="yes"/>
      <point x="270" y="501"/>
    </contour>
  </outline>
</glyph>
<glyph name="asterisk" format="1">
  <advance width="404"/>
  <unicode hex="002A"/>
  <outline>
    <contour>
      <point x="174" y="313" type="line"/>
      <point x="174" y="447" type="line"/>
      <point x="59" y="380" type="line"/>
      <point x="32" y="427" type="line"/>
      <point x="147" y="494" type="line"/>
      <point x="32" y="560" type="line"/>
      <point x="59" y="607" type="line"/>
      <point x="174" y="541" type="line"/>
      <point x="174" y="674" type="line"/>
      <point x="228" y="674" type="line"/>
      <point x="228" y="541" type="line"/>
      <point x="343" y="607" type="line"/>
      <point x="370" y="560" type="line"/>
      <point x="255" y="494" type="line"/>
      <point x="370" y="427" type="line"/>
      <point x="343" y="380" type="line"/>
      <point x="228" y="447" type="line"/>
      <point x="228" y="313" type="line"/>
    </contour>
  </outline>
</glyph>
<glyph name="plus" format="1">
  <advance width="519"/>
  <unicode hex="002B"/>
  <outline>
    <contour>
      <point x="461" y="177" type="line"/>
      <point x="305" y="177" type="line"/>
      <point x="305" y="0" type="line"/>
      <point x="217" y="0" type="line"/>
      <point x="217" y="177" type="line"/>
      <point x="60" y="177" type="line"/>
      <point x="60" y="249" type="line"/>
      <point x="217" y="249" type="line"/>
      <point x="217" y="408" type="line"/>
      <point x="305" y="408" type="line"/>
      <point x="305" y="249" type="line"/>
      <point x="461" y="249" type="line"/>
    </contour>
  </outline>
</glyph>
<glyph name="comma" format="1">
  <advance width="253"/>
  <unicode hex="002C"/>
  <outline>
    <contour>
      <point x="221" y="24" type="qcurve" smooth="yes"/>
      <point x="221" y="-41"/>
      <point x="129" y="-154"/>
      <point x="71" y="-182" type="qcurve" smooth="yes"/>
      <point x="60" y="-187"/>
      <point x="47" y="-168"/>
      <point x="53" y="-161" type="qcurve" smooth="yes"/>
      <point x="120" y="-82"/>
      <point x="120" y="-31" type="qcurve" smooth="yes"/>
      <point x="120" y="-21"/>
      <point x="88" y="-10"/>
      <point x="45" y="35"/>
      <point x="45" y="94"/>
      <point x="92" y="131"/>
      <point x="158" y="131"/>
      <point x="221" y="71"/>
    </contour>
  </outline>
</glyph>
<glyph name="hyphen" format="1">
  <advance width="403"/>
  <unicode hex="002D"/>
  <outline>
    <contour>
      <point x="341" y="298" type="line" smooth="yes"/>
      <point x="351" y="298"/>
      <point x="351" y="234"/>
      <point x="340" y="234" type="qcurve" smooth="yes"/>
      <point x="61" y="234" type="line" smooth="yes"/>
      <point x="52" y="234"/>
      <point x="52" y="298"/>
      <point x="61" y="298" type="qcurve" smooth="yes"/>
    </contour>
  </outline>
</glyph>
<glyph name="period" format="1">
  <advance width="253"/>
  <unicode hex="002E"/>
  <outline>
    <contour>
      <point x="204" y="53" type="qcurve" smooth="yes"/>
      <point x="204" y="26"/>
      <point x="160" y="-13"/>
      <point x="97" y="-12"/>
      <point x="51" y="30"/>
      <point x="51" y="92"/>
      <point x="91" y="136"/>
      <point x="166" y="136"/>
      <point x="204" y="88"/>
    </contour>
  </outline>
</glyph>
<glyph name="slash" format="1">
  <advance width="349"/>
  <unicode hex="002F"/>
  <outline>
    <contour>
      <point x="358" y="695" type="line"/>
      <point x="59" y="-9" type="line" smooth="yes"/>
      <point x="57" y="-13"/>
      <point x="49" y="-13" type="qcurve" smooth="yes"/>
      <point x="29" y="-13"/>
      <point x="6" y="1" type="qcurve" smooth="yes"/>
      <point x="-8" y="9"/>
      <point x="-7" y="16" type="qcurve" smooth="yes"/>
      <point x="-7" y="16"/>
      <point x="-7" y="19" type="qcurve" smooth="yes"/>
      <point x="291" y="722" type="line" smooth="yes"/>
      <point x="292" y="725"/>
      <point x="300" y="726" type="qcurve" smooth="yes"/>
      <point x="321" y="726"/>
      <point x="344" y="712" type="qcurve" smooth="yes"/>
      <point x="357" y="705"/>
      <point x="358" y="699" type="qcurve" smooth="yes"/>
    </contour>
  </outline>
</glyph>
<glyph name="zero" format="1">
  <advance width="466"/>
  <unicode hex="0030"/>
  <outline>
    <contour>
      <point x="451" y="314" type="qcurve" smooth="yes"/>
      <point x="451" y="215"/>
      <point x="417" y="132" type="qcurve" smooth="yes"/>
      <point x="360" y="-8"/>
      <point x="233" y="-8" type="qcurve" smooth="yes"/>
      <point x="102" y="-8"/>
      <point x="47" y="134" type="qcurve" smooth="yes"/>
      <point x="16" y="216"/>
      <point x="16" y="326" type="qcurve" smooth="yes"/>
      <point x="16" y="439"/>
      <point x="54" y="523" type="qcurve" smooth="yes"/>
      <point x="111" y="650"/>
      <point x="234" y="651" type="qcurve" smooth="yes"/>
      <point x="362" y="651"/>
      <point x="417" y="512" type="qcurve" smooth="yes"/>
      <point x="451" y="427"/>
    </contour>
    <contour>
      <point x="328" y="309" type="line" smooth="yes"/>
      <point x="328" y="443"/>
      <point x="309" y="522" type="qcurve" smooth="yes"/>
      <point x="289" y="607"/>
      <point x="235" y="607" type="qcurve" smooth="yes"/>
      <point x="158" y="607"/>
      <point x="141" y="434" type="qcurve" smooth="yes"/>
      <point x="137" y="391"/>
      <point x="137" y="332" type="qcurve" smooth="yes"/>
      <point x="137" y="206"/>
      <point x="151" y="145" type="qcurve" smooth="yes"/>
      <point x="176" y="37"/>
      <point x="232" y="37" type="qcurve" smooth="yes"/>
      <point x="328" y="37"/>
      <point x="328" y="279" type="qcurve" smooth="yes"/>
    </contour>
  </outline>
</glyph>
<glyph name="one" format="1">
  <advance width="466"/>
  <unicode hex="0031"/>
  <outline>
    <contour>
      <point x="300" y="138" type="line" smooth="yes"/>
      <point x="300" y="76"/>
      <point x="317" y="55" type="qcurve" smooth="yes"/>
      <point x="335" y="34"/>
      <point x="379" y="33" type="qcurve" smooth="yes"/>
      <point x="386" y="33"/>
      <point x="386" y="-4"/>
      <point x="379" y="-4" type="qcurve" smooth="yes"/>
      <point x="340" y="0"/>
      <point x="241" y="0" type="qcurve" smooth="yes"/>
      <point x="141" y="0"/>
      <point x="102" y="-4" type="qcurve" smooth="yes"/>
      <point x="95" y="-4"/>
      <point x="95" y="33"/>
      <point x="102" y="33" type="qcurve" smooth="yes"/>
      <point x="155" y="33"/>
      <point x="173" y="58" type="qcurve" smooth="yes"/>
      <point x="189" y="80"/>
      <point x="189" y="137" type="qcurve" smooth="yes"/>
      <point x="189" y="531" type="line" smooth="yes"/>
      <point x="189" y="563"/>
      <point x="179" y="559" type="qcurve" smooth="yes"/>
      <point x="128" y="542"/>
      <point x="100" y="528" type="qcurve" smooth="yes"/>
      <point x="90" y="523"/>
      <point x="80" y="554"/>
      <point x="89" y="557" type="qcurve" smooth="yes"/>
      <point x="153" y="584"/>
      <point x="259" y="661" type="qcurve" smooth="yes"/>
      <point x="272" y="671"/>
      <point x="282" y="671" type="qcurve" smooth="yes"/>
      <point x="303" y="671"/>
      <point x="303" y="645" type="qcurve" smooth="yes"/>
      <point x="300" y="610"/>
      <point x="300" y="567" type="qcurve" smooth="yes"/>
    </contour>
  </outline>
</glyph>
<glyph name="two" format="1">
  <advance width="466"/>
  <unicode hex="0032"/>
  <outline>
    <contour>
      <point x="390" y="15" type="line" smooth="yes"/>
      <point x="382" y="-4"/>
      <point x="351" y="-4" type="qcurve" smooth="yes"/>
      <point x="285" y="0"/>
      <point x="231" y="0" type="qcurve" smooth="yes"/>
      <point x="192" y="0" type="line" smooth="yes"/>
      <point x="113" y="0"/>
      <point x="25" y="-4" type="qcurve" smooth="yes"/>
      <point x="-1" y="-4"/>
      <point x="-1" y="19" type="qcurve" smooth="yes"/>
      <point x="-1" y="29"/>
      <point x="9" y="39" type="qcurve" smooth="yes"/>
      <point x="87" y="117"/>
      <point x="163" y="220" type="qcurve" smooth="yes"/>
      <point x="288" y="389"/>
      <point x="287" y="478" type="qcurve" smooth="yes"/>
      <point x="285" y="578"/>
      <point x="203" y="578" type="qcurve" smooth="yes"/>
      <point x="130" y="578"/>
      <point x="85" y="498" type="qcurve" smooth="yes"/>
      <point x="79" y="487"/>
      <point x="62" y="499" type="qcurve" smooth="yes"/>
      <point x="49" y="507"/>
      <point x="53" y="515" type="qcurve" smooth="yes"/>
      <point x="93" y="592"/>
      <point x="156" y="628" type="qcurve" smooth="yes"/>
      <point x="197" y="651"/>
      <point x="242" y="651" type="qcurve" smooth="yes"/>
      <point x="322" y="651"/>
      <point x="370" y="597" type="qcurve" smooth="yes"/>
      <point x="412" y="550"/>
      <point x="412" y="483" type="qcurve" smooth="yes"/>
      <point x="412" y="390"/>
      <point x="278" y="239" type="qcurve" smooth="yes"/>
      <point x="249" y="207"/>
      <point x="136" y="94" type="qcurve"/>
      <point x="281" y="94" type="line" smooth="yes"/>
      <point x="337" y="94"/>
      <point x="358" y="103" type="qcurve" smooth="yes"/>
      <point x="382" y="114"/>
      <point x="396" y="142" type="qcurve" smooth="yes"/>
      <point x="401" y="152"/>
      <point x="422" y="144" type="qcurve" smooth="yes"/>
      <point x="441" y="137"/>
      <point x="438" y="130" type="qcurve" smooth="yes"/>
    </contour>
  </outline>
</glyph>
<glyph name="three" format="1">
  <advance width="466"/>
  <unicode hex="0033"/>
  <outline>
    <contour>
      <point x="418" y="208" type="qcurve" smooth="yes"/>
      <point x="418" y="123"/>
      <point x="357" y="61" type="qcurve" smooth="yes"/>
      <point x="287" y="-11"/>
      <point x="181" y="-11" type="qcurve" smooth="yes"/>
      <point x="111" y="-11"/>
      <point x="67" y="13" type="qcurve" smooth="yes"/>
      <point x="28" y="34"/>
      <point x="29" y="70" type="qcurve" smooth="yes"/>
      <point x="29" y="117"/>
      <point x="88" y="117" type="qcurve" smooth="yes"/>
      <point x="110" y="117"/>
      <point x="133" y="90" type="qcurve" smooth="yes"/>
      <point x="158" y="61" type="line" smooth="yes"/>
      <point x="180" y="38"/>
      <point x="207" y="38" type="qcurve" smooth="yes"/>
      <point x="256" y="38"/>
      <point x="282" y="103" type="qcurve" smooth="yes"/>
      <point x="299" y="145"/>
      <point x="299" y="196" type="qcurve" smooth="yes"/>
      <point x="299" y="261"/>
      <point x="259" y="298" type="qcurve" smooth="yes"/>
      <point x="227" y="329"/>
      <point x="179" y="329" type="qcurve" smooth="yes"/>
      <point x="150" y="329"/>
      <point x="127" y="321" type="qcurve"/>
      <point x="113" y="321"/>
      <point x="113" y="348" type="qcurve" smooth="yes"/>
      <point x="113" y="373"/>
      <point x="124" y="373" type="qcurve" smooth="yes"/>
      <point x="199" y="373"/>
      <point x="242" y="414" type="qcurve" smooth="yes"/>
      <point x="275" y="446"/>
      <point x="275" y="492" type="qcurve" smooth="yes"/>
      <point x="275" y="541"/>
      <point x="248" y="568" type="qcurve" smooth="yes"/>
      <point x="229" y="588"/>
      <point x="201" y="588" type="qcurve" smooth="yes"/>
      <point x="157" y="588"/>
      <point x="119" y="547" type="qcurve" smooth="yes"/>
      <point x="104" y="531"/>
      <point x="92" y="512" type="qcurve" smooth="yes"/>
      <point x="85" y="502"/>
      <point x="68" y="516" type="qcurve" smooth="yes"/>
      <point x="55" y="526"/>
      <point x="60" y="534" type="qcurve" smooth="yes"/>
      <point x="106" y="603"/>
      <point x="149" y="628" type="qcurve" smooth="yes"/>
      <point x="187" y="650"/>
      <point x="234" y="651" type="qcurve" smooth="yes"/>
      <point x="299" y="651"/>
      <point x="343" y="605" type="qcurve" smooth="yes"/>
      <point x="385" y="563"/>
      <point x="385" y="504" type="qcurve" smooth="yes"/>
      <point x="385" y="421"/>
      <point x="301" y="371" type="qcurve"/>
      <point x="418" y="336"/>
    </contour>
  </outline>
</glyph>
<glyph name="four" format="1">
  <advance width="466"/>
  <unicode hex="0034"/>
  <outline>
    <contour>
      <point x="375" y="76" type="line" smooth="yes"/>
      <point x="375" y="33"/>
      <point x="425" y="33" type="qcurve" smooth="yes"/>
      <point x="432" y="33"/>
      <point x="432" y="-4"/>
      <point x="425" y="-4" type="qcurve" smooth="yes"/>
      <point x="386" y="0"/>
      <point x="323" y="0" type="qcurve" smooth="yes"/>
      <point x="236" y="0"/>
      <point x="195" y="-4" type="qcurve" smooth="yes"/>
      <point x="188" y="-4"/>
      <point x="188" y="33"/>
      <point x="195" y="33" type="qcurve" smooth="yes"/>
      <point x="264" y="33"/>
      <point x="264" y="76" type="qcurve" smooth="yes"/>
      <point x="264" y="181" type="line"/>
      <point x="39" y="181" type="line" smooth="yes"/>
      <point x="-3" y="181"/>
      <point x="-3" y="209" type="qcurve" smooth="yes"/>
      <point x="-3" y="233"/>
      <point x="22" y="269" type="qcurve" smooth="yes"/>
      <point x="163" y="456" type="line" smooth="yes"/>
      <point x="255" y="578"/>
      <point x="279" y="617" type="qcurve" smooth="yes"/>
      <point x="325" y="690" type="line" smooth="yes"/>
      <point x="332" y="698"/>
      <point x="347" y="698" type="qcurve" smooth="yes"/>
      <point x="389" y="698"/>
      <point x="388" y="672" type="qcurve" smooth="yes"/>
      <point x="388" y="668"/>
      <point x="386" y="664" type="qcurve" smooth="yes"/>
      <point x="85" y="266" type="line" smooth="yes"/>
      <point x="81" y="260"/>
      <point x="81" y="255" type="qcurve" smooth="yes"/>
      <point x="81" y="246"/>
      <point x="90" y="246" type="qcurve" smooth="yes"/>
      <point x="264" y="246" type="line"/>
      <point x="264" y="455" type="line" smooth="yes"/>
      <point x="264" y="466"/>
      <point x="319" y="466" type="qcurve" smooth="yes"/>
      <point x="375" y="466"/>
      <point x="375" y="455" type="qcurve" smooth="yes"/>
      <point x="375" y="246" type="line"/>
      <point x="435" y="246" type="line" smooth="yes"/>
      <point x="442" y="246"/>
      <point x="442" y="214" type="qcurve" smooth="yes"/>
      <point x="442" y="181"/>
      <point x="435" y="181" type="qcurve" smooth="yes"/>
      <point x="375" y="181" type="line"/>
    </contour>
  </outline>
</glyph>
<glyph name="five" format="1">
  <advance width="466"/>
  <unicode hex="0035"/>
  <outline>
    <contour>
      <point x="415" y="246" type="qcurve" smooth="yes"/>
      <point x="415" y="151"/>
      <point x="358" y="82" type="qcurve" smooth="yes"/>
      <point x="285" y="-7"/>
      <point x="163" y="-8" type="qcurve" smooth="yes"/>
      <point x="91" y="-8"/>
      <point x="54" y="17" type="qcurve" smooth="yes"/>
      <point x="27" y="35"/>
      <point x="27" y="63" type="qcurve" smooth="yes"/>
      <point x="27" y="89"/>
      <point x="44" y="102" type="qcurve" smooth="yes"/>
      <point x="59" y="113"/>
      <point x="83" y="113" type="qcurve" smooth="yes"/>
      <point x="113" y="113"/>
      <point x="134" y="87" type="qcurve" smooth="yes"/>
      <point x="170" y="45"/>
      <point x="204" y="45" type="qcurve" smooth="yes"/>
      <point x="256" y="44"/>
      <point x="292" y="98" type="qcurve" smooth="yes"/>
      <point x="322" y="142"/>
      <point x="322" y="194" type="qcurve" smooth="yes"/>
      <point x="322" y="269"/>
      <point x="271" y="310" type="qcurve" smooth="yes"/>
      <point x="230" y="343"/>
      <point x="168" y="343" type="qcurve" smooth="yes"/>
      <point x="136" y="343"/>
      <point x="101" y="333" type="qcurve" smooth="yes"/>
      <point x="93" y="331"/>
      <point x="88" y="331" type="qcurve" smooth="yes"/>
      <point x="70" y="331"/>
      <point x="72" y="347" type="qcurve" smooth="yes"/>
      <point x="93" y="483"/>
      <point x="119" y="616" type="qcurve" smooth="yes"/>
      <point x="124" y="643"/>
      <point x="153" y="643" type="qcurve" smooth="yes"/>
      <point x="398" y="643" type="line" smooth="yes"/>
      <point x="401" y="643"/>
      <point x="401" y="633" type="qcurve" smooth="yes"/>
      <point x="401" y="624"/>
      <point x="398" y="606" type="qcurve" smooth="yes"/>
      <point x="390" y="551"/>
      <point x="381" y="552" type="qcurve" smooth="yes"/>
      <point x="178" y="552" type="line" smooth="yes"/>
      <point x="161" y="552"/>
      <point x="160" y="545" type="qcurve" smooth="yes"/>
      <point x="149" y="500"/>
      <point x="145" y="452" type="qcurve" smooth="yes"/>
      <point x="145" y="444"/>
      <point x="152" y="445" type="qcurve" smooth="yes"/>
      <point x="172" y="448"/>
      <point x="187" y="448" type="qcurve" smooth="yes"/>
      <point x="300" y="448"/>
      <point x="362" y="387" type="qcurve" smooth="yes"/>
      <point x="415" y="333"/>
    </contour>
  </outline>
</glyph>
<glyph name="six" format="1">
  <advance width="466"/>
  <unicode hex="0036"/>
  <outline>
    <contour>
      <point x="440" y="198" type="qcurve" smooth="yes"/>
      <point x="440" y="117"/>
      <point x="387" y="60" type="qcurve" smooth="yes"/>
      <point x="326" y="-7"/>
      <point x="231" y="-8" type="qcurve" smooth="yes"/>
      <point x="121" y="-8"/>
      <point x="67" y="83" type="qcurve" smooth="yes"/>
      <point x="30" y="146"/>
      <point x="31" y="232" type="qcurve" smooth="yes"/>
      <point x="31" y="357"/>
      <point x="118" y="477" type="qcurve" smooth="yes"/>
      <point x="218" y="615"/>
      <point x="372" y="676" type="qcurve" smooth="yes"/>
      <point x="373" y="676"/>
      <point x="375" y="677" type="qcurve" smooth="yes"/>
      <point x="382" y="677"/>
      <point x="387" y="664" type="qcurve" smooth="yes"/>
      <point x="390" y="656"/>
      <point x="390" y="646"/>
      <point x="387" y="645" type="qcurve" smooth="yes"/>
      <point x="270" y="581"/>
      <point x="206" y="456" type="qcurve" smooth="yes"/>
      <point x="176" y="397"/>
      <point x="161" y="335" type="qcurve"/>
      <point x="190" y="372"/>
      <point x="237" y="385" type="qcurve" smooth="yes"/>
      <point x="253" y="389"/>
      <point x="268" y="389" type="qcurve" smooth="yes"/>
      <point x="347" y="389"/>
      <point x="397" y="325" type="qcurve" smooth="yes"/>
      <point x="440" y="271"/>
    </contour>
    <contour>
      <point x="333" y="170" type="qcurve" smooth="yes"/>
      <point x="333" y="219"/>
      <point x="304" y="267" type="qcurve" smooth="yes"/>
      <point x="275" y="314"/>
      <point x="229" y="314" type="qcurve" smooth="yes"/>
      <point x="185" y="314"/>
      <point x="151" y="276" type="qcurve"/>
      <point x="147" y="256"/>
      <point x="147" y="231" type="qcurve" smooth="yes"/>
      <point x="147" y="43"/>
      <point x="243" y="43" type="qcurve" smooth="yes"/>
      <point x="295" y="43"/>
      <point x="319" y="98" type="qcurve" smooth="yes"/>
      <point x="333" y="130"/>
    </contour>
  </outline>
</glyph>
<glyph name="seven" format="1">
  <advance width="466"/>
  <unicode hex="0037"/>
  <outline>
    <contour>
      <point x="198" y="0" type="line" smooth="yes"/>
      <point x="194" y="-11"/>
      <point x="153" y="-11" type="qcurve" smooth="yes"/>
      <point x="110" y="-11"/>
      <point x="87" y="1" type="qcurve" smooth="yes"/>
      <point x="85" y="3"/>
      <point x="85" y="10" type="qcurve" smooth="yes"/>
      <point x="353" y="557" type="line"/>
      <point x="208" y="557" type="line" smooth="yes"/>
      <point x="152" y="557"/>
      <point x="124" y="543" type="qcurve" smooth="yes"/>
      <point x="93" y="527"/>
      <point x="78" y="494" type="qcurve" smooth="yes"/>
      <point x="75" y="486"/>
      <point x="58" y="486" type="qcurve" smooth="yes"/>
      <point x="32" y="486"/>
      <point x="34" y="497" type="qcurve" smooth="yes"/>
      <point x="59" y="615" type="line" smooth="yes"/>
      <point x="63" y="634"/>
      <point x="68" y="639" type="qcurve" smooth="yes"/>
      <point x="73" y="643"/>
      <point x="86" y="643" type="qcurve" smooth="yes"/>
      <point x="419" y="643" type="line" smooth="yes"/>
      <point x="446" y="643"/>
      <point x="446" y="627" type="qcurve" smooth="yes"/>
      <point x="446" y="623"/>
      <point x="444" y="617" type="qcurve" smooth="yes"/>
    </contour>
  </outline>
</glyph>
<glyph name="eight" format="1">
  <advance width="466"/>
  <unicode hex="0038"/>
  <outline>
    <contour>
      <point x="434" y="170" type="qcurve" smooth="yes"/>
      <point x="434" y="93"/>
      <point x="375" y="42" type="qcurve" smooth="yes"/>
      <point x="315" y="-8"/>
      <point x="233" y="-8" type="qcurve" smooth="yes"/>
      <point x="150" y="-8"/>
      <point x="93" y="37" type="qcurve" smooth="yes"/>
      <point x="33" y="84"/>
      <point x="33" y="163" type="qcurve" smooth="yes"/>
      <point x="33" y="250"/>
      <point x="157" y="323" type="qcurve"/>
      <point x="51" y="388"/>
      <point x="51" y="483" type="qcurve" smooth="yes"/>
      <point x="51" y="554"/>
      <point x="104" y="604" type="qcurve" smooth="yes"/>
      <point x="155" y="651"/>
      <point x="233" y="651" type="qcurve" smooth="yes"/>
      <point x="322" y="651"/>
      <point x="372" y="603" type="qcurve" smooth="yes"/>
      <point x="414" y="562"/>
      <point x="413" y="497" type="qcurve" smooth="yes"/>
      <point x="413" y="409"/>
      <point x="310" y="350" type="qcurve"/>
      <point x="434" y="276"/>
    </contour>
    <contour>
      <point x="309" y="478" type="qcurve" smooth="yes"/>
      <point x="309" y="546"/>
      <point x="276" y="580" type="qcurve" smooth="yes"/>
      <point x="254" y="602"/>
      <point x="221" y="602" type="qcurve" smooth="yes"/>
      <point x="178" y="602"/>
      <point x="156" y="563" type="qcurve" smooth="yes"/>
      <point x="144" y="541"/>
      <point x="144" y="514" type="qcurve" smooth="yes"/>
      <point x="144" y="448"/>
      <point x="256" y="381" type="qcurve"/>
      <point x="309" y="412"/>
    </contour>
    <contour>
      <point x="328" y="137" type="qcurve" smooth="yes"/>
      <point x="328" y="218"/>
      <point x="208" y="291" type="qcurve"/>
      <point x="145" y="254"/>
      <point x="145" y="172" type="qcurve" smooth="yes"/>
      <point x="145" y="115"/>
      <point x="175" y="75" type="qcurve" smooth="yes"/>
      <point x="204" y="37"/>
      <point x="292" y="37"/>
      <point x="315" y="81" type="qcurve" smooth="yes"/>
      <point x="328" y="106"/>
    </contour>
  </outline>
</glyph>
<glyph name="nine" format="1">
  <advance width="466"/>
  <unicode hex="0039"/>
  <outline>
    <contour>
      <point x="436" y="417" type="qcurve" smooth="yes"/>
      <point x="436" y="268"/>
      <point x="321" y="138" type="qcurve" smooth="yes"/>
      <point x="235" y="41"/>
      <point x="105" y="-20" type="qcurve" smooth="yes"/>
      <point x="96" y="-24"/>
      <point x="86" y="-4" type="qcurve" smooth="yes"/>
      <point x="80" y="8"/>
      <point x="81" y="14" type="qcurve" smooth="yes"/>
      <point x="81" y="19"/>
      <point x="84" y="21" type="qcurve" smooth="yes"/>
      <point x="183" y="76"/>
      <point x="233" y="147" type="qcurve" smooth="yes"/>
      <point x="275" y="205"/>
      <point x="305" y="306" type="qcurve"/>
      <point x="282" y="283"/>
      <point x="242" y="269" type="qcurve" smooth="yes"/>
      <point x="221" y="262"/>
      <point x="203" y="261" type="qcurve" smooth="yes"/>
      <point x="122" y="261"/>
      <point x="75" y="315" type="qcurve" smooth="yes"/>
      <point x="27" y="371"/>
      <point x="27" y="436" type="qcurve" smooth="yes"/>
      <point x="27" y="528"/>
      <point x="81" y="587" type="qcurve" smooth="yes"/>
      <point x="140" y="651"/>
      <point x="236" y="651" type="qcurve" smooth="yes"/>
      <point x="337" y="651"/>
      <point x="392" y="570" type="qcurve" smooth="yes"/>
      <point x="436" y="504"/>
    </contour>
    <contour>
      <point x="319" y="416" type="qcurve" smooth="yes"/>
      <point x="319" y="599"/>
      <point x="221" y="599" type="qcurve" smooth="yes"/>
      <point x="169" y="599"/>
      <point x="148" y="534" type="qcurve" smooth="yes"/>
      <point x="139" y="504"/>
      <point x="139" y="468" type="qcurve" smooth="yes"/>
      <point x="139" y="417"/>
      <point x="166" y="375" type="qcurve" smooth="yes"/>
      <point x="194" y="330"/>
      <point x="235" y="329" type="qcurve" smooth="yes"/>
      <point x="284" y="329"/>
      <point x="313" y="358" type="qcurve"/>
      <point x="319" y="380"/>
    </contour>
  </outline>
</glyph>
<glyph name="colon" format="1">
  <advance width="289"/>
  <unicode hex="003A"/>
  <outline>
    <contour>
      <point x="236" y="343" type="qcurve" smooth="yes"/>
      <point x="236" y="311"/>
      <point x="194" y="275"/>
      <point x="133" y="275"/>
      <point x="91" y="315"/>
      <point x="91" y="373"/>
      <point x="129" y="416"/>
      <point x="199" y="416"/>
      <point x="236" y="371"/>
    </contour>
    <contour>
      <point x="236" y="55" type="qcurve" smooth="yes"/>
      <point x="236" y="23"/>
      <point x="194" y="-13"/>
      <point x="133" y="-13"/>
      <point x="91" y="27"/>
      <point x="91" y="85"/>
      <point x="129" y="128"/>
      <point x="199" y="128"/>
      <point x="236" y="83"/>
    </contour>
  </outline>
</glyph>
<glyph name="semicolon" format="1">
  <advance width="289"/>
  <unicode hex="003B"/>
  <outline>
    <contour>
      <point x="257" y="24" type="qcurve" smooth="yes"/>
      <point x="257" y="-43"/>
      <point x="165" y="-155"/>
      <point x="107" y="-182" type="qcurve" smooth="yes"/>
      <point x="96" y="-187"/>
      <point x="83" y="-168"/>
      <point x="89" y="-161" type="qcurve" smooth="yes"/>
      <point x="156" y="-82"/>
      <point x="156" y="-31" type="qcurve" smooth="yes"/>
      <point x="156" y="-21"/>
      <point x="124" y="-10"/>
      <point x="81" y="35"/>
      <point x="81" y="94"/>
      <point x="128" y="131"/>
      <point x="194" y="131"/>
      <point x="257" y="71"/>
    </contour>
    <contour>
      <point x="222" y="345" type="qcurve" smooth="yes"/>
      <point x="222" y="315"/>
      <point x="181" y="275"/>
      <point x="120" y="275"/>
      <point x="76" y="315"/>
      <point x="76" y="376"/>
      <point x="117" y="418"/>
      <point x="184" y="418"/>
      <point x="222" y="375"/>
    </contour>
  </outline>
</glyph>
<glyph name="equal" format="1">
  <advance width="487"/>
  <unicode hex="003D"/>
  <outline>
    <contour>
      <point x="438" y="281" type="line"/>
      <point x="33" y="281" type="line"/>
      <point x="33" y="350" type="line"/>
      <point x="438" y="350" type="line"/>
    </contour>
    <contour>
      <point x="438" y="131" type="line"/>
      <point x="33" y="131" type="line"/>
      <point x="33" y="200" type="line"/>
      <point x="438" y="200" type="line"/>
    </contour>
  </outline>
</glyph>
<glyph name="greater" format="1">
  <advance width="500"/>
  <unicode hex="003E"/>
  <outline>
    <contour>
      <point x="462" y="174" type="line"/>
      <point x="37" y="-11" type="line"/>
      <point x="37" y="79" type="line"/>
      <point x="332" y="206" type="line"/>
      <point x="37" y="333" type="line"/>
      <point x="37" y="423" type="line"/>
      <point x="462" y="237" type="line"/>
    </contour>
  </outline>
</glyph>
<glyph name="question" format="1">
  <advance width="366"/>
  <unicode hex="003F"/>
  <outline>
    <contour>
      <point x="339" y="457" type="qcurve" smooth="yes"/>
      <point x="339" y="370"/>
      <point x="289" y="345" type="qcurve" smooth="yes"/>
      <point x="208" y="305" type="line" smooth="yes"/>
      <point x="173" y="287"/>
      <point x="173" y="277" type="qcurve" smooth="yes"/>
      <point x="172" y="251"/>
      <point x="181" y="215" type="qcurve" smooth="yes"/>
      <point x="180" y="203"/>
      <point x="155" y="203" type="qcurve" smooth="yes"/>
      <point x="147" y="203"/>
      <point x="145" y="206" type="qcurve" smooth="yes"/>
      <point x="106" y="278"/>
      <point x="106" y="317" type="qcurve" smooth="yes"/>
      <point x="106" y="335"/>
      <point x="120" y="367"/>
      <point x="145" y="388"/>
      <point x="163" y="397" type="qcurve" smooth="yes"/>
      <point x="214" y="423" type="line" smooth="yes"/>
      <point x="275" y="454"/>
      <point x="275" y="478" type="qcurve" smooth="yes"/>
      <point x="275" y="506"/>
      <point x="233" y="545"/>
      <point x="175" y="550" type="qcurve" smooth="yes"/>
      <point x="136" y="553" type="line" smooth="yes"/>
      <point x="121" y="554"/>
      <point x="85" y="587"/>
      <point x="85" y="615" type="qcurve" smooth="yes"/>
      <point x="85" y="636"/>
      <point x="120" y="665"/>
      <point x="144" y="665" type="qcurve" smooth="yes"/>
      <point x="190" y="665"/>
      <point x="275" y="606"/>
      <point x="339" y="510"/>
    </contour>
    <contour>
      <point x="240" y="57" type="qcurve" smooth="yes"/>
      <point x="240" y="27"/>
      <point x="197" y="-12"/>
      <point x="131" y="-12"/>
      <point x="87" y="30"/>
      <point x="87" y="90"/>
      <point x="127" y="136"/>
      <point x="202" y="136"/>
      <point x="240" y="90"/>
    </contour>
  </outline>
</glyph>
<glyph name="at" format="1">
  <advance width="779"/>
  <unicode hex="0040"/>
  <outline>
    <contour>
      <point x="585" y="53" type="qcurve" smooth="yes"/>
      <point x="591" y="42"/>
      <point x="583" y="37" type="qcurve" smooth="yes"/>
      <point x="497" y="-16"/>
      <point x="382" y="-16" type="qcurve" smooth="yes"/>
      <point x="265" y="-16"/>
      <point x="174" y="40" type="qcurve" smooth="yes"/>
      <point x="35" y="125"/>
      <point x="35" y="294" type="qcurve" smooth="yes"/>
      <point x="35" y="439"/>
      <point x="127" y="542" type="qcurve" smooth="yes"/>
      <point x="247" y="676"/>
      <point x="440" y="676" type="qcurve" smooth="yes"/>
      <point x="577" y="676"/>
      <point x="662" y="600" type="qcurve" smooth="yes"/>
      <point x="745" y="525"/>
      <point x="745" y="414" type="qcurve" smooth="yes"/>
      <point x="745" y="329"/>
      <point x="689" y="263" type="qcurve" smooth="yes"/>
      <point x="612" y="172"/>
      <point x="476" y="172" type="qcurve" smooth="yes"/>
      <point x="426" y="172"/>
      <point x="413" y="190" type="qcurve" smooth="yes"/>
      <point x="406" y="199"/>
      <point x="406" y="213" type="qcurve" smooth="yes"/>
      <point x="406" y="226"/>
      <point x="415" y="253" type="qcurve"/>
      <point x="410" y="256" type="line"/>
      <point x="336" y="175"/>
      <point x="288" y="175" type="qcurve" smooth="yes"/>
      <point x="233" y="175"/>
      <point x="233" y="241" type="qcurve" smooth="yes"/>
      <point x="233" y="298"/>
      <point x="271" y="367" type="qcurve" smooth="yes"/>
      <point x="313" y="443"/>
      <point x="372" y="476" type="qcurve" smooth="yes"/>
      <point x="406" y="495"/>
      <point x="439" y="495" type="qcurve" smooth="yes"/>
      <point x="469" y="495"/>
      <point x="484" y="480" type="qcurve"/>
      <point x="494" y="505" type="line" smooth="yes"/>
      <point x="500" y="521"/>
      <point x="530" y="512" type="qcurve" smooth="yes"/>
      <point x="554" y="505"/>
      <point x="551" y="493" type="qcurve" smooth="yes"/>
      <point x="482" y="260" type="line" smooth="yes"/>
      <point x="478" y="245"/>
      <point x="478" y="230" type="qcurve" smooth="yes"/>
      <point x="478" y="210"/>
      <point x="489" y="210" type="qcurve" smooth="yes"/>
      <point x="568" y="210"/>
      <point x="622" y="263" type="qcurve" smooth="yes"/>
      <point x="682" y="323"/>
      <point x="682" y="410" type="qcurve" smooth="yes"/>
      <point x="682" y="501"/>
      <point x="619" y="563" type="qcurve" smooth="yes"/>
      <point x="547" y="634"/>
      <point x="431" y="634" type="qcurve" smooth="yes"/>
      <point x="308" y="634"/>
      <point x="224" y="549" type="qcurve" smooth="yes"/>
      <point x="124" y="449"/>
      <point x="124" y="295" type="qcurve" smooth="yes"/>
      <point x="124" y="207"/>
      <point x="171" y="138" type="qcurve" smooth="yes"/>
      <point x="247" y="27"/>
      <point x="412" y="27" type="qcurve" smooth="yes"/>
      <point x="489" y="27"/>
      <point x="570" y="62" type="qcurve" smooth="yes"/>
      <point x="579" y="65"/>
    </contour>
    <contour>
      <point x="472" y="449" type="line"/>
      <point x="462" y="472"/>
      <point x="431" y="472" type="qcurve" smooth="yes"/>
      <point x="392" y="472"/>
      <point x="354" y="401" type="qcurve" smooth="yes"/>
      <point x="308" y="317"/>
      <point x="307" y="253" type="qcurve" smooth="yes"/>
      <point x="307" y="219"/>
      <point x="322" y="219" type="qcurve" smooth="yes"/>
      <point x="348" y="219"/>
      <point x="403" y="283" type="qcurve" smooth="yes"/>
      <point x="433" y="318"/>
      <point x="451" y="377" type="qcurve" smooth="yes"/>
    </contour>
  </outline>
</glyph>
<glyph name="A" format="1">
  <advance width="684"/>
  <unicode hex="0041"/>
  <outline>
    <contour>
      <point x="329" y="696" type="move" name="Anchor-1"/>
    </contour>
    <contour>
      <point x="584" y="99" type="line" smooth="yes"/>
      <point x="604" y="42"/>
      <point x="683" y="42" type="qcurve" smooth="yes"/>
      <point x="690" y="42"/>
      <point x="690" y="-3"/>
      <point x="683" y="-3" type="qcurve" smooth="yes"/>
      <point x="627" y="0"/>
      <point x="480" y="0"/>
      <point x="419" y="-3" type="qcurve" smooth="yes"/>
      <point x="412" y="-3"/>
      <point x="412" y="42"/>
      <point x="419" y="42" type="qcurve" smooth="yes"/>
      <point x="466" y="42"/>
      <point x="466" y="74" type="qcurve" smooth="yes"/>
      <point x="466" y="84"/>
      <point x="461" y="99" type="qcurve" smooth="yes"/>
      <point x="412" y="244" type="line" smooth="yes"/>
      <point x="409" y="255"/>
      <point x="396" y="255" type="qcurve" smooth="yes"/>
      <point x="213" y="255" type="line" smooth="yes"/>
      <point x="203" y="255"/>
      <point x="198" y="241" type="qcurve" smooth="yes"/>
      <point x="145" y="98" type="line" smooth="yes"/>
      <point x="141" y="86"/>
      <point x="140" y="78" type="qcurve" smooth="yes"/>
      <point x="140" y="42"/>
      <point x="212" y="42" type="qcurve" smooth="yes"/>
      <point x="218" y="42"/>
      <point x="218" y="-3"/>
      <point x="212" y="-3" type="qcurve" smooth="yes"/>
      <point x="171" y="0"/>
      <point x="25" y="0"/>
      <point x="-13" y="-3" type="qcurve" smooth="yes"/>
      <point x="-20" y="-3"/>
      <point x="-20" y="42"/>
      <point x="-13" y="42" type="qcurve" smooth="yes"/>
      <point x="61" y="42"/>
      <point x="85" y="106" type="qcurve" smooth="yes"/>
      <point x="266" y="579" type="line" smooth="yes"/>
      <point x="272" y="594"/>
      <point x="272" y="601"/>
      <point x="258" y="615"/>
      <point x="258" y="619" type="qcurve" smooth="yes"/>
      <point x="258" y="626"/>
      <point x="291" y="637"/>
      <point x="359" y="678"/>
      <point x="369" y="678" type="qcurve" smooth="yes"/>
      <point x="385" y="678"/>
      <point x="396" y="632"/>
      <point x="416" y="575" type="qcurve" smooth="yes"/>
    </contour>
    <contour>
      <point x="317" y="521" type="line" smooth="yes"/>
      <point x="315" y="529"/>
      <point x="309" y="529" type="qcurve" smooth="yes"/>
      <point x="304" y="529"/>
      <point x="301" y="521" type="qcurve" smooth="yes"/>
      <point x="224" y="310" type="line"/>
      <point x="222" y="302" type="line" smooth="yes"/>
      <point x="222" y="297"/>
      <point x="232" y="296" type="qcurve" smooth="yes"/>
      <point x="375" y="296" type="line" smooth="yes"/>
      <point x="389" y="296"/>
      <point x="389" y="307" type="qcurve" smooth="yes"/>
      <point x="389" y="310"/>
      <point x="387" y="314" type="qcurve" smooth="yes"/>
    </contour>
  </outline>
</glyph>
<glyph name="B" format="1">
  <advance width="634"/>
  <unicode hex="0042"/>
  <outline>
    <contour>
      <point x="116" y="99" type="qcurve" smooth="yes"/>
      <point x="116" y="564" type="line" smooth="yes"/>
      <point x="116" y="617"/>
      <point x="32" y="618" type="qcurve" smooth="yes"/>
      <point x="25" y="618"/>
      <point x="25" y="663"/>
      <point x="32" y="663" type="qcurve" smooth="yes"/>
      <point x="102" y="660"/>
      <point x="148" y="660" type="qcurve" smooth="yes"/>
      <point x="195" y="660"/>
      <point x="282" y="663"/>
      <point x="312" y="663" type="qcurve" smooth="yes"/>
      <point x="418" y="663"/>
      <point x="529" y="573"/>
      <point x="529" y="497" type="qcurve" smooth="yes"/>
      <point x="529" y="455"/>
      <point x="479" y="385"/>
      <point x="441" y="367" type="qcurve" smooth="yes"/>
      <point x="432" y="362"/>
      <point x="432" y="355"/>
      <point x="442" y="351" type="qcurve" smooth="yes"/>
      <point x="499" y="332"/>
      <point x="576" y="238"/>
      <point x="576" y="181" type="qcurve" smooth="yes"/>
      <point x="576" y="107"/>
      <point x="465" y="-3"/>
      <point x="314" y="-3" type="qcurve" smooth="yes"/>
      <point x="292" y="-3"/>
      <point x="210" y="0"/>
      <point x="176" y="0" type="qcurve" smooth="yes"/>
      <point x="142" y="0"/>
      <point x="37" y="-3" type="qcurve" smooth="yes"/>
      <point x="30" y="-3"/>
      <point x="29" y="42"/>
      <point x="37" y="42" type="qcurve" smooth="yes"/>
      <point x="78" y="42"/>
      <point x="116" y="78"/>
    </contour>
    <contour>
      <point x="235" y="389" type="line" smooth="yes"/>
      <point x="235" y="379"/>
      <point x="252" y="375"/>
      <point x="270" y="375" type="qcurve" smooth="yes"/>
      <point x="341" y="375"/>
      <point x="410" y="441"/>
      <point x="410" y="495" type="qcurve" smooth="yes"/>
      <point x="410" y="558"/>
      <point x="326" y="625"/>
      <point x="244" y="625" type="qcurve" smooth="yes"/>
      <point x="235" y="625"/>
      <point x="235" y="616" type="qcurve" smooth="yes"/>
    </contour>
    <contour>
      <point x="235" y="122" type="line" smooth="yes"/>
      <point x="235" y="37"/>
      <point x="308" y="37" type="qcurve" smooth="yes"/>
      <point x="444" y="42"/>
      <point x="444" y="181" type="qcurve" smooth="yes"/>
      <point x="444" y="249"/>
      <point x="353" y="328"/>
      <point x="247" y="329" type="qcurve" smooth="yes"/>
      <point x="235" y="328"/>
      <point x="235" y="312" type="qcurve" smooth="yes"/>
    </contour>
  </outline>
</glyph>
<glyph name="C" format="1">
  <advance width="658"/>
  <unicode hex="0043"/>
  <outline>
    <contour>
      <point x="27" y="316" type="qcurve" smooth="yes"/>
      <point x="27" y="469"/>
      <point x="227" y="676"/>
      <point x="388" y="676" type="qcurve" smooth="yes"/>
      <point x="451" y="676"/>
      <point x="553" y="655" type="qcurve" smooth="yes"/>
      <point x="580" y="650"/>
      <point x="605" y="649" type="qcurve"/>
      <point x="621" y="605"/>
      <point x="625" y="490" type="qcurve" smooth="yes"/>
      <point x="625" y="481"/>
      <point x="580" y="478"/>
      <point x="579" y="486" type="qcurve" smooth="yes"/>
      <point x="574" y="540"/>
      <point x="520" y="605"/>
      <point x="438" y="633"/>
      <point x="385" y="633" type="qcurve" smooth="yes"/>
      <point x="284" y="633"/>
      <point x="160" y="469"/>
      <point x="160" y="344" type="qcurve" smooth="yes"/>
      <point x="160" y="199"/>
      <point x="297" y="33"/>
      <point x="383" y="33" type="qcurve" smooth="yes"/>
      <point x="550" y="33"/>
      <point x="598" y="168" type="qcurve" smooth="yes"/>
      <point x="601" y="177"/>
      <point x="645" y="167"/>
      <point x="645" y="157" type="qcurve" smooth="yes"/>
      <point x="643" y="129"/>
      <point x="606" y="35"/>
      <point x="594" y="18" type="qcurve"/>
      <point x="571" y="15"/>
      <point x="551" y="8" type="qcurve" smooth="yes"/>
      <point x="476" y="-13"/>
      <point x="376" y="-13" type="qcurve" smooth="yes"/>
      <point x="233" y="-13"/>
      <point x="27" y="172"/>
    </contour>
  </outline>
</glyph>
<glyph name="D" format="1">
  <advance width="765"/>
  <unicode hex="0044"/>
  <outline>
    <contour>
      <point x="116" y="99" type="qcurve" smooth="yes"/>
      <point x="116" y="564" type="line" smooth="yes"/>
      <point x="116" y="617"/>
      <point x="32" y="618" type="qcurve" smooth="yes"/>
      <point x="25" y="618"/>
      <point x="25" y="663"/>
      <point x="32" y="663" type="qcurve" smooth="yes"/>
      <point x="102" y="660"/>
      <point x="148" y="660" type="qcurve" smooth="yes"/>
      <point x="195" y="660"/>
      <point x="315" y="663"/>
      <point x="351" y="663" type="qcurve" smooth="yes"/>
      <point x="512" y="663"/>
      <point x="726" y="498"/>
      <point x="726" y="354" type="qcurve" smooth="yes"/>
      <point x="726" y="189"/>
      <point x="532" y="-3"/>
      <point x="374" y="-3" type="qcurve" smooth="yes"/>
      <point x="343" y="-3"/>
      <point x="202" y="0"/>
      <point x="151" y="0" type="qcurve" smooth="yes"/>
      <point x="101" y="0"/>
      <point x="37" y="-3" type="qcurve" smooth="yes"/>
      <point x="30" y="-3"/>
      <point x="29" y="42"/>
      <point x="37" y="42" type="qcurve" smooth="yes"/>
      <point x="116" y="42"/>
    </contour>
    <contour>
      <point x="235" y="133" type="line" smooth="yes"/>
      <point x="235" y="60"/>
      <point x="277" y="42" type="qcurve" smooth="yes"/>
      <point x="296" y="34"/>
      <point x="341" y="35" type="qcurve" smooth="yes"/>
      <point x="447" y="35"/>
      <point x="593" y="201"/>
      <point x="593" y="350" type="qcurve" smooth="yes"/>
      <point x="593" y="454"/>
      <point x="444" y="625"/>
      <point x="311" y="625" type="qcurve" smooth="yes"/>
      <point x="272" y="625" type="line" smooth="yes"/>
      <point x="235" y="625"/>
      <point x="235" y="586" type="qcurve" smooth="yes"/>
    </contour>
  </outline>
</glyph>
<glyph name="F" format="1">
  <advance width="581"/>
  <unicode hex="0046"/>
  <outline>
    <contour>
      <point x="116" y="99" type="qcurve" smooth="yes"/>
      <point x="116" y="564" type="line" smooth="yes"/>
      <point x="116" y="617"/>
      <point x="32" y="618" type="qcurve" smooth="yes"/>
      <point x="25" y="618"/>
      <point x="25" y="663"/>
      <point x="32" y="663" type="qcurve" smooth="yes"/>
      <point x="102" y="660"/>
      <point x="172" y="660" type="qcurve" smooth="yes"/>
      <point x="243" y="660"/>
      <point x="460" y="663"/>
      <point x="522" y="663" type="qcurve" smooth="yes"/>
      <point x="551" y="663"/>
      <point x="551" y="638" type="qcurve" smooth="yes"/>
      <point x="551" y="489" type="line" smooth="yes"/>
      <point x="551" y="481"/>
      <point x="502" y="480"/>
      <point x="502" y="489" type="qcurve" smooth="yes"/>
      <point x="502" y="544"/>
      <point x="432" y="611"/>
      <point x="393" y="613" type="qcurve" smooth="yes"/>
      <point x="288" y="618"/>
      <point x="248" y="618" type="qcurve" smooth="yes"/>
      <point x="235" y="618"/>
      <point x="235" y="598" type="qcurve" smooth="yes"/>
      <point x="235" y="369" type="line" smooth="yes"/>
      <point x="235" y="354"/>
      <point x="249" y="354" type="qcurve" smooth="yes"/>
      <point x="315" y="354" type="line" smooth="yes"/>
      <point x="360" y="354"/>
      <point x="360" y="398" type="qcurve" smooth="yes"/>
      <point x="360" y="465" type="line" smooth="yes"/>
      <point x="360" y="472"/>
      <point x="411" y="472"/>
      <point x="411" y="465" type="qcurve" smooth="yes"/>
      <point x="408" y="432"/>
      <point x="408" y="229"/>
      <point x="411" y="195" type="qcurve" smooth="yes"/>
      <point x="411" y="189"/>
      <point x="360" y="188"/>
      <point x="360" y="195" type="qcurve" smooth="yes"/>
      <point x="360" y="265" type="line" smooth="yes"/>
      <point x="360" y="308"/>
      <point x="315" y="309" type="qcurve" smooth="yes"/>
      <point x="249" y="309" type="line" smooth="yes"/>
      <point x="235" y="309"/>
      <point x="235" y="294" type="qcurve" smooth="yes"/>
      <point x="235" y="99" type="line" smooth="yes"/>
      <point x="235" y="42"/>
      <point x="310" y="42" type="qcurve" smooth="yes"/>
      <point x="317" y="42"/>
      <point x="316" y="-3"/>
      <point x="310" y="-3" type="qcurve" smooth="yes"/>
      <point x="264" y="0"/>
      <point x="176" y="0" type="qcurve" smooth="yes"/>
      <point x="88" y="0"/>
      <point x="37" y="-3" type="qcurve" smooth="yes"/>
      <point x="30" y="-3"/>
      <point x="29" y="42"/>
      <point x="37" y="42" type="qcurve" smooth="yes"/>
      <point x="116" y="42"/>
    </contour>
  </outline>
</glyph>
<glyph name="G" format="1">
  <advance width="704"/>
  <unicode hex="0047"/>
  <outline>
    <contour>
      <point x="406" y="278"/>
      <point x="413" y="278" type="qcurve" smooth="yes"/>
      <point x="442" y="275"/>
      <point x="568" y="275" type="qcurve" smooth="yes"/>
      <point x="650" y="275"/>
      <point x="679" y="278" type="qcurve" smooth="yes"/>
      <point x="685" y="278"/>
      <point x="686" y="233"/>
      <point x="679" y="233" type="qcurve" smooth="yes"/>
      <point x="626" y="233"/>
      <point x="626" y="196" type="qcurve" smooth="yes"/>
      <point x="626" y="78" type="line" smooth="yes"/>
      <point x="626" y="56"/>
      <point x="647" y="56" type="qcurve" smooth="yes"/>
      <point x="654" y="56"/>
      <point x="654" y="17"/>
      <point x="647" y="17" type="qcurve" smooth="yes"/>
      <point x="623" y="17"/>
      <point x="551" y="5" type="qcurve" smooth="yes"/>
      <point x="441" y="-14"/>
      <point x="376" y="-13" type="qcurve" smooth="yes"/>
      <point x="248" y="-14"/>
      <point x="150" y="62" type="qcurve" smooth="yes"/>
      <point x="26" y="159"/>
      <point x="27" y="316" type="qcurve" smooth="yes"/>
      <point x="27" y="446"/>
      <point x="101" y="542" type="qcurve" smooth="yes"/>
      <point x="205" y="676"/>
      <point x="388" y="676" type="qcurve" smooth="yes"/>
      <point x="452" y="676"/>
      <point x="543" y="658" type="qcurve" smooth="yes"/>
      <point x="577" y="649"/>
      <point x="605" y="649" type="qcurve"/>
      <point x="619" y="620"/>
      <point x="624" y="515" type="qcurve" smooth="yes"/>
      <point x="625" y="490" type="line" smooth="yes"/>
      <point x="625" y="481"/>
      <point x="604" y="479" type="qcurve" smooth="yes"/>
      <point x="581" y="478"/>
      <point x="579" y="486" type="qcurve" smooth="yes"/>
      <point x="570" y="588"/>
      <point x="476" y="620" type="qcurve" smooth="yes"/>
      <point x="437" y="633"/>
      <point x="385" y="633" type="qcurve" smooth="yes"/>
      <point x="284" y="633"/>
      <point x="160" y="469"/>
      <point x="160" y="344" type="qcurve" smooth="yes"/>
      <point x="160" y="186"/>
      <point x="244" y="99" type="qcurve" smooth="yes"/>
      <point x="307" y="33"/>
      <point x="383" y="33" type="qcurve" smooth="yes"/>
      <point x="437" y="33"/>
      <point x="477" y="45" type="qcurve" smooth="yes"/>
      <point x="507" y="57"/>
      <point x="507" y="78" type="qcurve" smooth="yes"/>
      <point x="507" y="196" type="line" smooth="yes"/>
      <point x="507" y="234"/>
      <point x="452" y="233" type="qcurve" smooth="yes"/>
      <point x="413" y="233" type="line" smooth="yes"/>
      <point x="406" y="233"/>
    </contour>
  </outline>
</glyph>
<glyph name="I" format="1">
  <advance width="358"/>
  <unicode hex="0049"/>
  <outline>
    <contour>
      <point x="177" y="696" type="move" name="Anchor-1"/>
    </contour>
    <contour>
      <point x="235" y="99" type="line" smooth="yes"/>
      <point x="234" y="42"/>
      <point x="312" y="42" type="qcurve" smooth="yes"/>
      <point x="319" y="42"/>
      <point x="319" y="20" type="qcurve" smooth="yes"/>
      <point x="318" y="-3"/>
      <point x="312" y="-3" type="qcurve" smooth="yes"/>
      <point x="247" y="0"/>
      <point x="176" y="0" type="qcurve" smooth="yes"/>
      <point x="98" y="0"/>
      <point x="37" y="-3" type="qcurve" smooth="yes"/>
      <point x="30" y="-3"/>
      <point x="29" y="42"/>
      <point x="37" y="42" type="qcurve" smooth="yes"/>
      <point x="116" y="42"/>
      <point x="116" y="99" type="qcurve" smooth="yes"/>
      <point x="116" y="563" type="line" smooth="yes"/>
      <point x="116" y="620"/>
      <point x="37" y="620" type="qcurve" smooth="yes"/>
      <point x="30" y="620"/>
      <point x="30" y="666"/>
      <point x="37" y="666" type="qcurve" smooth="yes"/>
      <point x="60" y="664"/>
      <point x="173" y="663" type="qcurve" smooth="yes"/>
      <point x="291" y="663"/>
      <point x="314" y="666" type="qcurve" smooth="yes"/>
      <point x="321" y="666"/>
      <point x="321" y="620"/>
      <point x="314" y="620" type="qcurve" smooth="yes"/>
      <point x="234" y="620"/>
      <point x="235" y="563" type="qcurve" smooth="yes"/>
    </contour>
  </outline>
</glyph>
<glyph name="J" format="1">
  <advance width="350"/>
  <unicode hex="004A"/>
  <outline>
    <contour>
      <point x="205" y="-74" type="qcurve" smooth="yes"/>
      <point x="162" y="-146"/>
      <point x="100" y="-181" type="qcurve" smooth="yes"/>
      <point x="58" y="-204"/>
      <point x="16" y="-205" type="qcurve" smooth="yes"/>
      <point x="-9" y="-205"/>
      <point x="-34" y="-188" type="qcurve" smooth="yes"/>
      <point x="-65" y="-168"/>
      <point x="-64" y="-135" type="qcurve" smooth="yes"/>
      <point x="-64" y="-100"/>
      <point x="-33" y="-85" type="qcurve" smooth="yes"/>
      <point x="-17" y="-77"/>
      <point x="4" y="-77" type="qcurve" smooth="yes"/>
      <point x="40" y="-77"/>
      <point x="67" y="-105" type="qcurve" smooth="yes"/>
      <point x="79" y="-118"/>
      <point x="85" y="-135" type="qcurve"/>
      <point x="101" y="-123"/>
      <point x="113" y="-95" type="qcurve" smooth="yes"/>
      <point x="126" y="-52"/>
      <point x="125" y="124" type="qcurve" smooth="yes"/>
      <point x="125" y="563" type="line" smooth="yes"/>
      <point x="125" y="620"/>
      <point x="42" y="620" type="qcurve" smooth="yes"/>
      <point x="35" y="620"/>
      <point x="35" y="666"/>
      <point x="42" y="666" type="qcurve" smooth="yes"/>
      <point x="65" y="664"/>
      <point x="187" y="663" type="qcurve" smooth="yes"/>
      <point x="306" y="663"/>
      <point x="329" y="666" type="qcurve" smooth="yes"/>
      <point x="336" y="666"/>
      <point x="336" y="620"/>
      <point x="329" y="620" type="qcurve" smooth="yes"/>
      <point x="245" y="620"/>
      <point x="245" y="563" type="qcurve" smooth="yes"/>
      <point x="245" y="307" type="line" smooth="yes"/>
      <point x="245" y="255"/>
      <point x="240" y="95" type="qcurve" smooth="yes"/>
      <point x="240" y="-16"/>
    </contour>
  </outline>
</glyph>
<glyph name="K" format="1">
  <advance width="1380"/>
  <unicode hex="004B"/>
  <outline>
    <contour>
      <point x="1145" y="190" type="line" smooth="yes"/>
      <point x="1223" y="100"/>
      <point x="1323" y="88" type="qcurve" smooth="yes"/>
      <point x="1346" y="86"/>
      <point x="1382" y="86" type="qcurve" smooth="yes"/>
      <point x="1396" y="86"/>
      <point x="1397" y="-6"/>
      <point x="1382" y="-6" type="qcurve" smooth="yes"/>
      <point x="1249" y="0"/>
      <point x="1077" y="0" type="qcurve" smooth="yes"/>
      <point x="944" y="0"/>
      <point x="805" y="-6" type="qcurve" smooth="yes"/>
      <point x="791" y="-6"/>
      <point x="791" y="86"/>
      <point x="805" y="86" type="qcurve" smooth="yes"/>
      <point x="889" y="86"/>
      <point x="889" y="125" type="qcurve" smooth="yes"/>
      <point x="889" y="152"/>
      <point x="848" y="203" type="qcurve" smooth="yes"/>
      <point x="590" y="524" type="line" smooth="yes"/>
      <point x="527" y="596"/>
      <point x="504" y="598" type="qcurve" smooth="yes"/>
      <point x="481" y="598"/>
      <point x="481" y="569" type="qcurve" smooth="yes"/>
      <point x="481" y="203" type="line" smooth="yes"/>
      <point x="481" y="86"/>
      <point x="637" y="86" type="qcurve" smooth="yes"/>
      <point x="651" y="86"/>
      <point x="649" y="-6"/>
      <point x="637" y="-6" type="qcurve" smooth="yes"/>
      <point x="504" y="0"/>
      <point x="360" y="0" type="qcurve" smooth="yes"/>
      <point x="200" y="0"/>
      <point x="76" y="-6" type="qcurve" smooth="yes"/>
      <point x="62" y="-6"/>
      <point x="59" y="86"/>
      <point x="76" y="86" type="qcurve" smooth="yes"/>
      <point x="238" y="86"/>
      <point x="238" y="203" type="qcurve" smooth="yes"/>
      <point x="238" y="1153" type="line" smooth="yes"/>
      <point x="238" y="1270"/>
      <point x="66" y="1270" type="qcurve" smooth="yes"/>
      <point x="52" y="1270"/>
      <point x="51" y="1364"/>
      <point x="66" y="1364" type="qcurve" smooth="yes"/>
      <point x="113" y="1360"/>
      <point x="344" y="1358" type="qcurve" smooth="yes"/>
      <point x="594" y="1358"/>
      <point x="641" y="1364" type="qcurve" smooth="yes"/>
      <point x="655" y="1364"/>
      <point x="655" y="1270"/>
      <point x="641" y="1270" type="qcurve" smooth="yes"/>
      <point x="479" y="1270"/>
      <point x="481" y="1153" type="qcurve" smooth="yes"/>
      <point x="481" y="797" type="line" smooth="yes"/>
      <point x="481" y="770"/>
      <point x="498" y="770" type="qcurve" smooth="yes"/>
      <point x="527" y="770"/>
      <point x="573" y="825" type="qcurve" smooth="yes"/>
      <point x="850" y="1155" type="line" smooth="yes"/>
      <point x="903" y="1218"/>
      <point x="903" y="1245" type="qcurve"/>
      <point x="895" y="1270"/>
      <point x="842" y="1270" type="qcurve" smooth="yes"/>
      <point x="830" y="1270"/>
      <point x="829" y="1364"/>
      <point x="842" y="1364" type="qcurve" smooth="yes"/>
      <point x="891" y="1360"/>
      <point x="1038" y="1358" type="qcurve" smooth="yes"/>
      <point x="1190" y="1358"/>
      <point x="1237" y="1364" type="qcurve" smooth="yes"/>
      <point x="1251" y="1364"/>
      <point x="1251" y="1270"/>
      <point x="1237" y="1270" type="qcurve" smooth="yes"/>
      <point x="1149" y="1270"/>
      <point x="1063" y="1229"/>
      <point x="1024" y="1186" type="qcurve" smooth="yes"/>
      <point x="686" y="793" type="line" smooth="yes"/>
      <point x="670" y="775"/>
      <point x="672" y="758" type="qcurve" smooth="yes"/>
      <point x="672" y="742"/>
      <point x="686" y="725" type="qcurve" smooth="yes"/>
    </contour>
  </outline>
</glyph>
<glyph name="L" format="1">
  <advance width="663"/>
  <unicode hex="004C"/>
  <outline>
    <contour>
      <point x="235" y="122" type="line" smooth="yes"/>
      <point x="235" y="68"/>
      <point x="268" y="47" type="qcurve" smooth="yes"/>
      <point x="285" y="38"/>
      <point x="304" y="38" type="qcurve" smooth="yes"/>
      <point x="466" y="44" type="line" smooth="yes"/>
      <point x="503" y="45"/>
      <point x="536" y="84" type="qcurve" smooth="yes"/>
      <point x="576" y="135"/>
      <point x="576" y="191" type="qcurve" smooth="yes"/>
      <point x="576" y="200"/>
      <point x="625" y="200"/>
      <point x="625" y="191" type="qcurve" smooth="yes"/>
      <point x="625" y="28" type="line" smooth="yes"/>
      <point x="625" y="7"/>
      <point x="618" y="2" type="qcurve" smooth="yes"/>
      <point x="614" y="-4"/>
      <point x="568" y="-3" type="qcurve" smooth="yes"/>
      <point x="477" y="-3"/>
      <point x="226" y="0"/>
      <point x="173" y="0" type="qcurve" smooth="yes"/>
      <point x="138" y="0"/>
      <point x="37" y="-3" type="qcurve" smooth="yes"/>
      <point x="30" y="-3"/>
      <point x="29" y="42"/>
      <point x="37" y="42" type="qcurve" smooth="yes"/>
      <point x="116" y="42"/>
      <point x="116" y="104" type="qcurve" smooth="yes"/>
      <point x="116" y="563" type="line" smooth="yes"/>
      <point x="116" y="620"/>
      <point x="32" y="620" type="qcurve" smooth="yes"/>
      <point x="25" y="620"/>
      <point x="25" y="666"/>
      <point x="32" y="666" type="qcurve" smooth="yes"/>
      <point x="55" y="664"/>
      <point x="172" y="663" type="qcurve" smooth="yes"/>
      <point x="287" y="663"/>
      <point x="311" y="666" type="qcurve" smooth="yes"/>
      <point x="318" y="666"/>
      <point x="317" y="620"/>
      <point x="311" y="620" type="qcurve" smooth="yes"/>
      <point x="235" y="620"/>
      <point x="235" y="563" type="qcurve" smooth="yes"/>
    </contour>
  </outline>
</glyph>
<glyph name="M" format="1">
  <advance width="1814"/>
  <unicode hex="004D"/>
  <outline>
    <contour>
      <point x="1608" y="209" type="line" smooth="yes"/>
      <point x="1610" y="86"/>
      <point x="1769" y="86" type="qcurve" smooth="yes"/>
      <point x="1783" y="86"/>
      <point x="1786" y="-6"/>
      <point x="1769" y="-6" type="qcurve" smooth="yes"/>
      <point x="1642" y="0"/>
      <point x="1491" y="0" type="qcurve" smooth="yes"/>
      <point x="1362" y="0"/>
      <point x="1221" y="-6" type="qcurve" smooth="yes"/>
      <point x="1207" y="-6"/>
      <point x="1206" y="86"/>
      <point x="1221" y="86" type="qcurve" smooth="yes"/>
      <point x="1375" y="86"/>
      <point x="1374" y="209" type="qcurve" smooth="yes"/>
      <point x="1368" y="877" type="line" smooth="yes"/>
      <point x="1368" y="897"/>
      <point x="1362" y="897" type="qcurve" smooth="yes"/>
      <point x="1354" y="897"/>
      <point x="1346" y="881" type="qcurve" smooth="yes"/>
      <point x="895" y="4" type="line" smooth="yes"/>
      <point x="883" y="-19"/>
      <point x="864" y="-18" type="qcurve" smooth="yes"/>
      <point x="841" y="-18"/>
      <point x="834" y="4" type="qcurve" smooth="yes"/>
      <point x="375" y="969" type="line" smooth="yes"/>
      <point x="365" y="989"/>
      <point x="352" y="989"/>
      <point x="348" y="963" type="qcurve" smooth="yes"/>
      <point x="299" y="207" type="line"/>
      <point x="299" y="174" type="line" smooth="yes"/>
      <point x="299" y="86"/>
      <point x="469" y="86" type="qcurve" smooth="yes"/>
      <point x="483" y="86"/>
      <point x="481" y="-6"/>
      <point x="469" y="-6" type="qcurve" smooth="yes"/>
      <point x="336" y="0"/>
      <point x="240" y="0" type="qcurve" smooth="yes"/>
      <point x="103" y="0"/>
      <point x="41" y="-6" type="qcurve" smooth="yes"/>
      <point x="27" y="-8"/>
      <point x="27" y="86"/>
      <point x="41" y="86" type="qcurve" smooth="yes"/>
      <point x="188" y="86"/>
      <point x="193" y="211" type="qcurve" smooth="yes"/>
      <point x="254" y="1116" type="line"/>
      <point x="254" y="1161" type="line" smooth="yes"/>
      <point x="254" y="1270"/>
      <point x="80" y="1270" type="qcurve" smooth="yes"/>
      <point x="68" y="1270"/>
      <point x="68" y="1364"/>
      <point x="80" y="1364" type="qcurve" smooth="yes"/>
      <point x="162" y="1360"/>
      <point x="254" y="1358" type="qcurve" smooth="yes"/>
      <point x="350" y="1358" type="line" smooth="yes"/>
      <point x="416" y="1358"/>
      <point x="469" y="1270" type="qcurve"/>
      <point x="907" y="356" type="line" smooth="yes"/>
      <point x="917" y="336"/>
      <point x="946" y="336"/>
      <point x="958" y="358" type="qcurve" smooth="yes"/>
      <point x="1427" y="1276" type="line" smooth="yes"/>
      <point x="1470" y="1358"/>
      <point x="1538" y="1358" type="qcurve" smooth="yes"/>
      <point x="1591" y="1358" type="line" smooth="yes"/>
      <point x="1695" y="1358"/>
      <point x="1755" y="1364" type="qcurve" smooth="yes"/>
      <point x="1769" y="1364"/>
      <point x="1769" y="1270"/>
      <point x="1755" y="1270" type="qcurve" smooth="yes"/>
      <point x="1651" y="1270"/>
      <point x="1620" y="1223" type="qcurve" smooth="yes"/>
      <point x="1597" y="1182"/>
      <point x="1597" y="1124" type="qcurve" smooth="yes"/>
    </contour>
  </outline>
</glyph>
<glyph name="N" format="1">
  <advance width="723"/>
  <unicode hex="004E"/>
  <outline>
    <contour>
      <point x="629" y="37" type="line" smooth="yes"/>
      <point x="629" y="-10"/>
      <point x="614" y="-10" type="qcurve" smooth="yes"/>
      <point x="601" y="-10"/>
      <point x="578" y="18" type="qcurve" smooth="yes"/>
      <point x="176" y="495" type="line" smooth="yes"/>
      <point x="170" y="503"/>
      <point x="167" y="503" type="qcurve" smooth="yes"/>
      <point x="161" y="503"/>
      <point x="160" y="492" type="qcurve" smooth="yes"/>
      <point x="160" y="99" type="line" smooth="yes"/>
      <point x="160" y="42"/>
      <point x="234" y="42" type="qcurve" smooth="yes"/>
      <point x="241" y="42"/>
      <point x="241" y="-4"/>
      <point x="234" y="-3" type="qcurve" smooth="yes"/>
      <point x="189" y="0"/>
      <point x="136" y="0" type="qcurve" smooth="yes"/>
      <point x="86" y="0"/>
      <point x="32" y="-3" type="qcurve" smooth="yes"/>
      <point x="25" y="-4"/>
      <point x="25" y="42"/>
      <point x="32" y="42" type="qcurve" smooth="yes"/>
      <point x="110" y="42"/>
      <point x="109" y="99" type="qcurve" smooth="yes"/>
      <point x="109" y="564" type="line" smooth="yes"/>
      <point x="109" y="620"/>
      <point x="25" y="620" type="qcurve" smooth="yes"/>
      <point x="19" y="620"/>
      <point x="19" y="666"/>
      <point x="25" y="666" type="qcurve" smooth="yes"/>
      <point x="49" y="664"/>
      <point x="111" y="663" type="qcurve" smooth="yes"/>
      <point x="152" y="663"/>
      <point x="159" y="662" type="qcurve" smooth="yes"/>
      <point x="188" y="658"/>
      <point x="208" y="634" type="qcurve" smooth="yes"/>
      <point x="555" y="211" type="line" smooth="yes"/>
      <point x="560" y="204"/>
      <point x="567" y="204" type="qcurve" smooth="yes"/>
      <point x="579" y="204"/>
      <point x="579" y="219" type="qcurve" smooth="yes"/>
      <point x="579" y="562" type="line" smooth="yes"/>
      <point x="579" y="620"/>
      <point x="504" y="620" type="qcurve" smooth="yes"/>
      <point x="497" y="620"/>
      <point x="497" y="666"/>
      <point x="504" y="666" type="qcurve" smooth="yes"/>
      <point x="554" y="664"/>
      <point x="601" y="663" type="qcurve" smooth="yes"/>
      <point x="650" y="663"/>
      <point x="695" y="666" type="qcurve" smooth="yes"/>
      <point x="702" y="666"/>
      <point x="702" y="620"/>
      <point x="695" y="620" type="qcurve" smooth="yes"/>
      <point x="629" y="620"/>
      <point x="629" y="562" type="qcurve" smooth="yes"/>
    </contour>
  </outline>
</glyph>
<glyph name="O" format="1">
  <advance width="744"/>
  <unicode hex="004F"/>
  <outline>
    <contour>
      <point x="366" y="696" type="move" name="Anchor-1"/>
    </contour>
    <contour>
      <point x="698" y="324" type="qcurve" smooth="yes"/>
      <point x="698" y="217"/>
      <point x="627" y="120" type="qcurve" smooth="yes"/>
      <point x="528" y="-13"/>
      <point x="362" y="-13" type="qcurve" smooth="yes"/>
      <point x="252" y="-13"/>
      <point x="164" y="47" type="qcurve" smooth="yes"/>
      <point x="27" y="142"/>
      <point x="27" y="326" type="qcurve" smooth="yes"/>
      <point x="27" y="449"/>
      <point x="113" y="557" type="qcurve" smooth="yes"/>
      <point x="208" y="676"/>
      <point x="364" y="676" type="qcurve" smooth="yes"/>
      <point x="484" y="676"/>
      <point x="572" y="601" type="qcurve" smooth="yes"/>
      <point x="698" y="491"/>
    </contour>
    <contour>
      <point x="565" y="317" type="qcurve" smooth="yes"/>
      <point x="565" y="442"/>
      <point x="504" y="531" type="qcurve" smooth="yes"/>
      <point x="435" y="634"/>
      <point x="361" y="633" type="qcurve" smooth="yes"/>
      <point x="286" y="633"/>
      <point x="231" y="570" type="qcurve" smooth="yes"/>
      <point x="160" y="489"/>
      <point x="160" y="354" type="qcurve" smooth="yes"/>
      <point x="160" y="206"/>
      <point x="235" y="112" type="qcurve" smooth="yes"/>
      <point x="298" y="33"/>
      <point x="369" y="33" type="qcurve" smooth="yes"/>
      <point x="498" y="33"/>
      <point x="543" y="169" type="qcurve" smooth="yes"/>
      <point x="565" y="233"/>
    </contour>
  </outline>
</glyph>
<glyph name="P" format="1">
  <advance width="592"/>
  <unicode hex="0050"/>
  <outline>
    <contour>
      <point x="235" y="99" type="line" smooth="yes"/>
      <point x="235" y="42"/>
      <point x="317" y="42" type="qcurve" smooth="yes"/>
      <point x="324" y="42"/>
      <point x="324" y="-3"/>
      <point x="317" y="-3" type="qcurve" smooth="yes"/>
      <point x="255" y="0"/>
      <point x="176" y="0" type="qcurve" smooth="yes"/>
      <point x="104" y="0"/>
      <point x="39" y="-3" type="qcurve" smooth="yes"/>
      <point x="33" y="-3"/>
      <point x="33" y="42"/>
      <point x="39" y="42" type="qcurve" smooth="yes"/>
      <point x="116" y="42"/>
      <point x="116" y="99" type="qcurve" smooth="yes"/>
      <point x="116" y="564" type="line" smooth="yes"/>
      <point x="116" y="617"/>
      <point x="33" y="618" type="qcurve" smooth="yes"/>
      <point x="26" y="618"/>
      <point x="26" y="663"/>
      <point x="33" y="663" type="qcurve" smooth="yes"/>
      <point x="103" y="660"/>
      <point x="173" y="660" type="qcurve" smooth="yes"/>
      <point x="202" y="660"/>
      <point x="282" y="663"/>
      <point x="322" y="663" type="qcurve" smooth="yes"/>
      <point x="428" y="663"/>
      <point x="499" y="614" type="qcurve" smooth="yes"/>
      <point x="576" y="560"/>
      <point x="576" y="473" type="qcurve" smooth="yes"/>
      <point x="576" y="380"/>
      <point x="492" y="331" type="qcurve" smooth="yes"/>
      <point x="424" y="291"/>
      <point x="319" y="291" type="qcurve" smooth="yes"/>
      <point x="275" y="291"/>
      <point x="252" y="293" type="qcurve" smooth="yes"/>
      <point x="235" y="294"/>
      <point x="235" y="278" type="qcurve" smooth="yes"/>
    </contour>
    <contour>
      <point x="451" y="473" type="qcurve" smooth="yes"/>
      <point x="451" y="532"/>
      <point x="411" y="573" type="qcurve" smooth="yes"/>
      <point x="363" y="624"/>
      <point x="275" y="624" type="qcurve" smooth="yes"/>
      <point x="243" y="624"/>
      <point x="237" y="617" type="qcurve" smooth="yes"/>
      <point x="235" y="614"/>
      <point x="235" y="610" type="qcurve" smooth="yes"/>
      <point x="235" y="350" type="line" smooth="yes"/>
      <point x="235" y="335"/>
      <point x="250" y="332" type="qcurve" smooth="yes"/>
      <point x="268" y="330"/>
      <point x="289" y="330" type="qcurve" smooth="yes"/>
      <point x="411" y="330"/>
      <point x="441" y="414" type="qcurve" smooth="yes"/>
      <point x="451" y="440"/>
    </contour>
  </outline>
</glyph>
<glyph name="Q" format="1">
  <advance width="727"/>
  <unicode hex="0051"/>
  <outline>
    <contour>
      <point x="698" y="322" type="qcurve" smooth="yes"/>
      <point x="698" y="217"/>
      <point x="626" y="116" type="qcurve" smooth="yes"/>
      <point x="592" y="68"/>
      <point x="533" y="29" type="qcurve" smooth="yes"/>
      <point x="522" y="22"/>
      <point x="522" y="10"/>
      <point x="533" y="2" type="qcurve" smooth="yes"/>
      <point x="659" y="-81"/>
      <point x="797" y="-121" type="qcurve" smooth="yes"/>
      <point x="812" y="-125" type="line" smooth="yes"/>
      <point x="822" y="-128"/>
      <point x="823" y="-142" type="qcurve" smooth="yes"/>
      <point x="823" y="-147"/>
      <point x="821" y="-154" type="qcurve" smooth="yes"/>
      <point x="814" y="-178"/>
      <point x="801" y="-175" type="qcurve" smooth="yes"/>
      <point x="605" y="-138"/>
      <point x="319" y="-29" type="qcurve" smooth="yes"/>
      <point x="244" y="0" type="line" smooth="yes"/>
      <point x="228" y="6"/>
      <point x="168" y="42" type="qcurve" smooth="yes"/>
      <point x="104" y="82"/>
      <point x="26" y="232"/>
      <point x="27" y="323" type="qcurve" smooth="yes"/>
      <point x="27" y="451"/>
      <point x="114" y="556" type="qcurve" smooth="yes"/>
      <point x="214" y="676"/>
      <point x="364" y="676" type="qcurve" smooth="yes"/>
      <point x="491" y="676"/>
      <point x="572" y="601" type="qcurve" smooth="yes"/>
      <point x="698" y="484"/>
    </contour>
    <contour>
      <point x="565" y="313" type="qcurve" smooth="yes"/>
      <point x="565" y="436"/>
      <point x="506" y="531" type="qcurve" smooth="yes"/>
      <point x="443" y="634"/>
      <point x="361" y="633" type="qcurve" smooth="yes"/>
      <point x="265" y="633"/>
      <point x="208" y="539" type="qcurve" smooth="yes"/>
      <point x="160" y="460"/>
      <point x="160" y="350" type="qcurve" smooth="yes"/>
      <point x="160" y="200"/>
      <point x="235" y="107" type="qcurve" smooth="yes"/>
      <point x="297" y="31"/>
      <point x="369" y="32" type="qcurve" smooth="yes"/>
      <point x="493" y="32"/>
      <point x="540" y="161" type="qcurve" smooth="yes"/>
      <point x="565" y="228"/>
    </contour>
  </outline>
</glyph>
<glyph name="R" format="1">
  <advance width="693"/>
  <unicode hex="0052"/>
  <outline>
    <contour>
      <point x="592" y="473" type="qcurve" smooth="yes"/>
      <point x="592" y="350"/>
      <point x="454" y="309" type="qcurve" smooth="yes"/>
      <point x="445" y="307"/>
      <point x="445" y="299" type="qcurve" smooth="yes"/>
      <point x="445" y="294"/>
      <point x="451" y="286" type="qcurve" smooth="yes"/>
      <point x="515" y="177"/>
      <point x="610" y="79" type="qcurve" smooth="yes"/>
      <point x="656" y="30"/>
      <point x="698" y="22" type="qcurve" smooth="yes"/>
      <point x="711" y="20"/>
      <point x="710" y="8" type="qcurve" smooth="yes"/>
      <point x="710" y="-11"/>
      <point x="699" y="-10" type="qcurve" smooth="yes"/>
      <point x="654" y="-12" type="line" smooth="yes"/>
      <point x="578" y="-12"/>
      <point x="538" y="15" type="qcurve" smooth="yes"/>
      <point x="469" y="58"/>
      <point x="410" y="142" type="qcurve" smooth="yes"/>
      <point x="346" y="233" type="line"/>
      <point x="315" y="270"/>
      <point x="308" y="276" type="qcurve" smooth="yes"/>
      <point x="296" y="286"/>
      <point x="277" y="287" type="qcurve" smooth="yes"/>
      <point x="244" y="287" type="line" smooth="yes"/>
      <point x="235" y="287"/>
      <point x="235" y="277" type="qcurve" smooth="yes"/>
      <point x="235" y="99" type="line" smooth="yes"/>
      <point x="235" y="42"/>
      <point x="311" y="42" type="qcurve" smooth="yes"/>
      <point x="318" y="42"/>
      <point x="317" y="-3"/>
      <point x="311" y="-3" type="qcurve" smooth="yes"/>
      <point x="246" y="0"/>
      <point x="176" y="0" type="qcurve" smooth="yes"/>
      <point x="102" y="0"/>
      <point x="37" y="-3" type="qcurve" smooth="yes"/>
      <point x="30" y="-3"/>
      <point x="29" y="42"/>
      <point x="37" y="42" type="qcurve" smooth="yes"/>
      <point x="116" y="42"/>
      <point x="116" y="99" type="qcurve" smooth="yes"/>
      <point x="116" y="564" type="line" smooth="yes"/>
      <point x="116" y="617"/>
      <point x="32" y="618" type="qcurve" smooth="yes"/>
      <point x="25" y="618"/>
      <point x="25" y="663"/>
      <point x="32" y="663" type="qcurve" smooth="yes"/>
      <point x="102" y="660"/>
      <point x="173" y="660" type="qcurve" smooth="yes"/>
      <point x="200" y="660"/>
      <point x="277" y="663"/>
      <point x="322" y="663" type="qcurve" smooth="yes"/>
      <point x="487" y="663"/>
      <point x="557" y="578" type="qcurve" smooth="yes"/>
      <point x="592" y="534"/>
    </contour>
    <contour>
      <point x="468" y="473" type="qcurve" smooth="yes"/>
      <point x="468" y="539"/>
      <point x="411" y="584" type="qcurve" smooth="yes"/>
      <point x="359" y="624"/>
      <point x="275" y="624" type="qcurve" smooth="yes"/>
      <point x="245" y="624"/>
      <point x="235" y="616"/>
      <point x="235" y="604" type="qcurve" smooth="yes"/>
      <point x="235" y="348" type="line" smooth="yes"/>
      <point x="235" y="332"/>
      <point x="247" y="329" type="qcurve" smooth="yes"/>
      <point x="270" y="325"/>
      <point x="289" y="325" type="qcurve" smooth="yes"/>
      <point x="418" y="325"/>
      <point x="455" y="406" type="qcurve" smooth="yes"/>
      <point x="468" y="436"/>
    </contour>
  </outline>
</glyph>
<glyph name="S" format="1">
  <advance width="525"/>
  <unicode hex="0053"/>
  <outline>
    <contour>
      <point x="479" y="197" type="qcurve" smooth="yes"/>
      <point x="479" y="109"/>
      <point x="425" y="50" type="qcurve" smooth="yes"/>
      <point x="367" y="-13"/>
      <point x="271" y="-13" type="qcurve" smooth="yes"/>
      <point x="201" y="-13"/>
      <point x="150" y="4" type="qcurve"/>
      <point x="80" y="35" type="line"/>
      <point x="54" y="114"/>
      <point x="54" y="188" type="qcurve" smooth="yes"/>
      <point x="54" y="200"/>
      <point x="77" y="200" type="qcurve" smooth="yes"/>
      <point x="100" y="201"/>
      <point x="102" y="191" type="qcurve" smooth="yes"/>
      <point x="107" y="134"/>
      <point x="146" y="90" type="qcurve" smooth="yes"/>
      <point x="197" y="32"/>
      <point x="279" y="33" type="qcurve" smooth="yes"/>
      <point x="314" y="33"/>
      <point x="342" y="61" type="qcurve" smooth="yes"/>
      <point x="377" y="95"/>
      <point x="376" y="150" type="qcurve" smooth="yes"/>
      <point x="376" y="251"/>
      <point x="245" y="285" type="qcurve" smooth="yes"/>
      <point x="51" y="334"/>
      <point x="51" y="504" type="qcurve" smooth="yes"/>
      <point x="51" y="573"/>
      <point x="114" y="630" type="qcurve" smooth="yes"/>
      <point x="165" y="676"/>
      <point x="256" y="676" type="qcurve" smooth="yes"/>
      <point x="315" y="676"/>
      <point x="360" y="666" type="qcurve" smooth="yes"/>
      <point x="387" y="660"/>
      <point x="391" y="660" type="qcurve" smooth="yes"/>
      <point x="408" y="661" type="line"/>
      <point x="409" y="661" type="line"/>
      <point x="427" y="603"/>
      <point x="433" y="529" type="qcurve" smooth="yes"/>
      <point x="434" y="516"/>
      <point x="411" y="513" type="qcurve" smooth="yes"/>
      <point x="389" y="510"/>
      <point x="386" y="519" type="qcurve" smooth="yes"/>
      <point x="371" y="576"/>
      <point x="305" y="635"/>
      <point x="247" y="635" type="qcurve" smooth="yes"/>
      <point x="201" y="635"/>
      <point x="172" y="594" type="qcurve" smooth="yes"/>
      <point x="152" y="567"/>
      <point x="152" y="525" type="qcurve" smooth="yes"/>
      <point x="152" y="437"/>
      <point x="273" y="407" type="qcurve" smooth="yes"/>
      <point x="479" y="358"/>
    </contour>
  </outline>
</glyph>
<glyph name="T" format="1">
  <advance width="634"/>
  <unicode hex="0054"/>
  <outline>
    <contour>
      <point x="377" y="99" type="line" smooth="yes"/>
      <point x="377" y="42"/>
      <point x="461" y="42" type="qcurve" smooth="yes"/>
      <point x="467" y="42"/>
      <point x="467" y="-3"/>
      <point x="461" y="-3" type="qcurve" smooth="yes"/>
      <point x="419" y="0"/>
      <point x="217" y="0"/>
      <point x="170" y="-3" type="qcurve" smooth="yes"/>
      <point x="163" y="-3"/>
      <point x="164" y="42"/>
      <point x="170" y="42" type="qcurve" smooth="yes"/>
      <point x="258" y="42"/>
      <point x="258" y="99" type="qcurve" smooth="yes"/>
      <point x="258" y="604" type="line" smooth="yes"/>
      <point x="258" y="618"/>
      <point x="245" y="618" type="qcurve" smooth="yes"/>
      <point x="175" y="618" type="line" smooth="yes"/>
      <point x="133" y="618"/>
      <point x="66" y="547"/>
      <point x="66" y="492" type="qcurve" smooth="yes"/>
      <point x="66" y="484"/>
      <point x="17" y="484"/>
      <point x="17" y="492" type="qcurve" smooth="yes"/>
      <point x="17" y="638" type="line" smooth="yes"/>
      <point x="17" y="655"/>
      <point x="24" y="658" type="qcurve" smooth="yes"/>
      <point x="36" y="663"/>
      <point x="72" y="663" type="qcurve" smooth="yes"/>
      <point x="164" y="660"/>
      <point x="464" y="660"/>
      <point x="568" y="663" type="qcurve" smooth="yes"/>
      <point x="609" y="663"/>
      <point x="615" y="655" type="qcurve" smooth="yes"/>
      <point x="619" y="650"/>
      <point x="619" y="638" type="qcurve" smooth="yes"/>
      <point x="619" y="492" type="line" smooth="yes"/>
      <point x="619" y="484"/>
      <point x="569" y="484"/>
      <point x="569" y="492" type="qcurve" smooth="yes"/>
      <point x="569" y="555"/>
      <point x="493" y="618"/>
      <point x="456" y="618" type="qcurve" smooth="yes"/>
      <point x="394" y="618" type="line" smooth="yes"/>
      <point x="378" y="618"/>
      <point x="377" y="604" type="qcurve" smooth="yes"/>
    </contour>
  </outline>
</glyph>
<glyph name="U" format="1">
  <advance width="738"/>
  <unicode hex="0055"/>
  <outline>
    <contour>
      <point x="399" y="696" type="move" name="Anchor-1"/>
    </contour>
    <contour>
      <point x="646" y="430" type="line" smooth="yes"/>
      <point x="646" y="295"/>
      <point x="640" y="227" type="qcurve" smooth="yes"/>
      <point x="632" y="107"/>
      <point x="564" y="44" type="qcurve" smooth="yes"/>
      <point x="502" y="-14"/>
      <point x="377" y="-13" type="qcurve" smooth="yes"/>
      <point x="301" y="-13"/>
      <point x="247" y="7" type="qcurve" smooth="yes"/>
      <point x="170" y="37"/>
      <point x="140" y="98" type="qcurve" smooth="yes"/>
      <point x="115" y="150"/>
      <point x="109" y="266" type="qcurve"/>
      <point x="109" y="563" type="line" smooth="yes"/>
      <point x="109" y="620"/>
      <point x="33" y="620" type="qcurve" smooth="yes"/>
      <point x="26" y="620"/>
      <point x="26" y="666"/>
      <point x="33" y="666" type="qcurve" smooth="yes"/>
      <point x="105" y="664"/>
      <point x="170" y="663" type="qcurve" smooth="yes"/>
      <point x="241" y="663"/>
      <point x="313" y="666" type="qcurve" smooth="yes"/>
      <point x="320" y="666"/>
      <point x="320" y="620"/>
      <point x="313" y="620" type="qcurve" smooth="yes"/>
      <point x="228" y="620"/>
      <point x="229" y="563" type="qcurve" smooth="yes"/>
      <point x="229" y="335" type="line"/>
      <point x="234" y="198" type="line" smooth="yes"/>
      <point x="235" y="137"/>
      <point x="261" y="99" type="qcurve" smooth="yes"/>
      <point x="305" y="33"/>
      <point x="396" y="33" type="qcurve" smooth="yes"/>
      <point x="480" y="33"/>
      <point x="531" y="84" type="qcurve" smooth="yes"/>
      <point x="575" y="129"/>
      <point x="575" y="242" type="qcurve" smooth="yes"/>
      <point x="575" y="563" type="line" smooth="yes"/>
      <point x="575" y="620"/>
      <point x="498" y="620" type="qcurve" smooth="yes"/>
      <point x="491" y="620"/>
      <point x="491" y="666"/>
      <point x="498" y="666" type="qcurve" smooth="yes"/>
      <point x="565" y="664"/>
      <point x="610" y="663" type="qcurve" smooth="yes"/>
      <point x="655" y="663"/>
      <point x="721" y="666" type="qcurve" smooth="yes"/>
      <point x="728" y="666"/>
      <point x="728" y="620"/>
      <point x="721" y="620" type="qcurve" smooth="yes"/>
      <point x="646" y="620"/>
      <point x="646" y="563" type="qcurve" smooth="yes"/>
    </contour>
  </outline>
</glyph>
<glyph name="V" format="1">
  <advance width="663"/>
  <unicode hex="0056"/>
  <outline>
    <contour>
      <point x="341" y="3" type="line" smooth="yes"/>
      <point x="331" y="-19"/>
      <point x="316" y="-19" type="qcurve" smooth="yes"/>
      <point x="299" y="-19"/>
      <point x="291" y="3" type="qcurve" smooth="yes"/>
      <point x="84" y="563" type="line" smooth="yes"/>
      <point x="64" y="620"/>
      <point x="15" y="620" type="qcurve" smooth="yes"/>
      <point x="8" y="620"/>
      <point x="8" y="666"/>
      <point x="15" y="666" type="qcurve" smooth="yes"/>
      <point x="37" y="664"/>
      <point x="128" y="663" type="qcurve" smooth="yes"/>
      <point x="230" y="663"/>
      <point x="253" y="666" type="qcurve" smooth="yes"/>
      <point x="259" y="666"/>
      <point x="259" y="620"/>
      <point x="253" y="620" type="qcurve" smooth="yes"/>
      <point x="192" y="620"/>
      <point x="192" y="589" type="qcurve" smooth="yes"/>
      <point x="192" y="578"/>
      <point x="198" y="563" type="qcurve" smooth="yes"/>
      <point x="335" y="185" type="line" smooth="yes"/>
      <point x="339" y="175"/>
      <point x="348" y="175" type="qcurve" smooth="yes"/>
      <point x="356" y="175"/>
      <point x="360" y="187" type="qcurve" smooth="yes"/>
      <point x="504" y="560" type="line" smooth="yes"/>
      <point x="509" y="575"/>
      <point x="509" y="585" type="qcurve" smooth="yes"/>
      <point x="507" y="620"/>
      <point x="461" y="620" type="qcurve" smooth="yes"/>
      <point x="454" y="620"/>
      <point x="454" y="666"/>
      <point x="461" y="666" type="qcurve" smooth="yes"/>
      <point x="484" y="664"/>
      <point x="562" y="663" type="qcurve" smooth="yes"/>
      <point x="643" y="663"/>
      <point x="666" y="666" type="qcurve" smooth="yes"/>
      <point x="673" y="666"/>
      <point x="673" y="620"/>
      <point x="666" y="620" type="qcurve" smooth="yes"/>
      <point x="594" y="620"/>
      <point x="577" y="579" type="qcurve" smooth="yes"/>
    </contour>
  </outline>
</glyph>
<glyph name="W" format="1">
  <advance width="982"/>
  <unicode hex="0057"/>
  <outline>
    <contour>
      <point x="908" y="579" type="qcurve" smooth="yes"/>
      <point x="646" y="3" type="line" smooth="yes"/>
      <point x="635" y="-19"/>
      <point x="621" y="-19" type="qcurve" smooth="yes"/>
      <point x="608" y="-19"/>
      <point x="593" y="12" type="qcurve" smooth="yes"/>
      <point x="493" y="235" type="line" smooth="yes"/>
      <point x="489" y="244"/>
      <point x="486" y="244" type="qcurve" smooth="yes"/>
      <point x="482" y="244"/>
      <point x="478" y="234" type="qcurve" smooth="yes"/>
      <point x="372" y="3" type="line" smooth="yes"/>
      <point x="362" y="-19"/>
      <point x="334" y="-19"/>
      <point x="320" y="12" type="qcurve" smooth="yes"/>
      <point x="73" y="563" type="line" smooth="yes"/>
      <point x="48" y="620"/>
      <point x="3" y="620" type="qcurve" smooth="yes"/>
      <point x="-4" y="620"/>
      <point x="-4" y="666"/>
      <point x="3" y="666" type="qcurve" smooth="yes"/>
      <point x="26" y="664"/>
      <point x="108" y="663" type="qcurve" smooth="yes"/>
      <point x="199" y="663"/>
      <point x="223" y="666" type="qcurve" smooth="yes"/>
      <point x="230" y="666"/>
      <point x="230" y="620"/>
      <point x="223" y="620" type="qcurve" smooth="yes"/>
      <point x="189" y="620"/>
      <point x="188" y="598" type="qcurve" smooth="yes"/>
      <point x="190" y="578"/>
      <point x="198" y="563" type="qcurve" smooth="yes"/>
      <point x="369" y="183" type="line" smooth="yes"/>
      <point x="373" y="175"/>
      <point x="380" y="174" type="qcurve" smooth="yes"/>
      <point x="386" y="174"/>
      <point x="390" y="183" type="qcurve" smooth="yes"/>
      <point x="449" y="312" type="line" smooth="yes"/>
      <point x="452" y="319"/>
      <point x="452" y="327"/>
      <point x="449" y="335" type="qcurve" smooth="yes"/>
      <point x="334" y="590" type="line" smooth="yes"/>
      <point x="320" y="620"/>
      <point x="294" y="620" type="qcurve" smooth="yes"/>
      <point x="287" y="620"/>
      <point x="287" y="666"/>
      <point x="294" y="666" type="qcurve" smooth="yes"/>
      <point x="317" y="664"/>
      <point x="396" y="663" type="qcurve" smooth="yes"/>
      <point x="472" y="663"/>
      <point x="495" y="666" type="qcurve" smooth="yes"/>
      <point x="502" y="666"/>
      <point x="502" y="620"/>
      <point x="495" y="620" type="qcurve" smooth="yes"/>
      <point x="461" y="620"/>
      <point x="461" y="600" type="qcurve" smooth="yes"/>
      <point x="461" y="584"/>
      <point x="471" y="563" type="qcurve" smooth="yes"/>
      <point x="507" y="484" type="line" smooth="yes"/>
      <point x="511" y="475"/>
      <point x="516" y="475" type="qcurve" smooth="yes"/>
      <point x="522" y="475"/>
      <point x="528" y="487" type="qcurve" smooth="yes"/>
      <point x="562" y="560" type="line" smooth="yes"/>
      <point x="575" y="587"/>
      <point x="574" y="601" type="qcurve" smooth="yes"/>
      <point x="574" y="620"/>
      <point x="548" y="620" type="qcurve" smooth="yes"/>
      <point x="541" y="620"/>
      <point x="542" y="666"/>
      <point x="548" y="666" type="qcurve" smooth="yes"/>
      <point x="572" y="664"/>
      <point x="634" y="663" type="qcurve" smooth="yes"/>
      <point x="700" y="663"/>
      <point x="724" y="666" type="qcurve" smooth="yes"/>
      <point x="731" y="666"/>
      <point x="731" y="620"/>
      <point x="724" y="620" type="qcurve" smooth="yes"/>
      <point x="653" y="620"/>
      <point x="634" y="579" type="qcurve" smooth="yes"/>
      <point x="557" y="409" type="line" smooth="yes"/>
      <point x="552" y="397"/>
      <point x="552" y="390" type="qcurve" smooth="yes"/>
      <point x="552" y="384"/>
      <point x="554" y="378" type="qcurve" smooth="yes"/>
      <point x="643" y="184" type="line" smooth="yes"/>
      <point x="647" y="175"/>
      <point x="654" y="175" type="qcurve" smooth="yes"/>
      <point x="660" y="175"/>
      <point x="663" y="183" type="qcurve" smooth="yes"/>
      <point x="835" y="560" type="line" smooth="yes"/>
      <point x="845" y="582"/>
      <point x="845" y="596" type="qcurve" smooth="yes"/>
      <point x="845" y="620"/>
      <point x="813" y="620" type="qcurve" smooth="yes"/>
      <point x="806" y="620"/>
      <point x="806" y="666"/>
      <point x="813" y="666" type="qcurve" smooth="yes"/>
      <point x="835" y="664"/>
      <point x="905" y="663" type="qcurve" smooth="yes"/>
      <point x="974" y="663"/>
      <point x="997" y="666" type="qcurve" smooth="yes"/>
      <point x="1004" y="666"/>
      <point x="1004" y="620"/>
      <point x="997" y="620" type="qcurve" smooth="yes"/>
      <point x="927" y="621"/>
    </contour>
  </outline>
</glyph>
<glyph name="X" format="1">
  <advance width="674"/>
  <unicode hex="0058"/>
  <outline>
    <contour>
      <point x="562" y="99" type="line" smooth="yes"/>
      <point x="602" y="42"/>
      <point x="668" y="42" type="qcurve" smooth="yes"/>
      <point x="675" y="42"/>
      <point x="676" y="-3"/>
      <point x="668" y="-3" type="qcurve" smooth="yes"/>
      <point x="629" y="0"/>
      <point x="535" y="0" type="qcurve" smooth="yes"/>
      <point x="450" y="0"/>
      <point x="403" y="-3" type="qcurve" smooth="yes"/>
      <point x="396" y="-3"/>
      <point x="396" y="42"/>
      <point x="403" y="42" type="qcurve" smooth="yes"/>
      <point x="456" y="42"/>
      <point x="456" y="65" type="qcurve" smooth="yes"/>
      <point x="456" y="79"/>
      <point x="438" y="102" type="qcurve" smooth="yes"/>
      <point x="320" y="257" type="line" smooth="yes"/>
      <point x="315" y="264"/>
      <point x="309" y="265" type="qcurve" smooth="yes"/>
      <point x="302" y="265"/>
      <point x="296" y="257" type="qcurve" smooth="yes"/>
      <point x="213" y="146" type="line" smooth="yes"/>
      <point x="181" y="103"/>
      <point x="180" y="76" type="qcurve" smooth="yes"/>
      <point x="179" y="42"/>
      <point x="229" y="42" type="qcurve" smooth="yes"/>
      <point x="236" y="42"/>
      <point x="235" y="-3"/>
      <point x="229" y="-3" type="qcurve" smooth="yes"/>
      <point x="191" y="0"/>
      <point x="116" y="0" type="qcurve" smooth="yes"/>
      <point x="5" y="0"/>
      <point x="-16" y="-3" type="qcurve" smooth="yes"/>
      <point x="-22" y="-3"/>
      <point x="-22" y="42"/>
      <point x="-16" y="42" type="qcurve" smooth="yes"/>
      <point x="58" y="42"/>
      <point x="92" y="84" type="qcurve" smooth="yes"/>
      <point x="271" y="308" type="line" smooth="yes"/>
      <point x="277" y="316"/>
      <point x="277" y="324" type="qcurve" smooth="yes"/>
      <point x="277" y="331"/>
      <point x="271" y="339" type="qcurve" smooth="yes"/>
      <point x="97" y="583" type="line" smooth="yes"/>
      <point x="71" y="620"/>
      <point x="10" y="620" type="qcurve" smooth="yes"/>
      <point x="3" y="620"/>
      <point x="3" y="666"/>
      <point x="10" y="666" type="qcurve" smooth="yes"/>
      <point x="33" y="664"/>
      <point x="152" y="663" type="qcurve" smooth="yes"/>
      <point x="270" y="663"/>
      <point x="294" y="666" type="qcurve" smooth="yes"/>
      <point x="301" y="666"/>
      <point x="301" y="620"/>
      <point x="294" y="620" type="qcurve" smooth="yes"/>
      <point x="233" y="620"/>
      <point x="233" y="593" type="qcurve" smooth="yes"/>
      <point x="233" y="582"/>
      <point x="247" y="563" type="qcurve" smooth="yes"/>
      <point x="343" y="429" type="line" smooth="yes"/>
      <point x="348" y="422"/>
      <point x="353" y="422" type="qcurve" smooth="yes"/>
      <point x="359" y="422"/>
      <point x="364" y="429" type="qcurve" smooth="yes"/>
      <point x="469" y="560" type="line" smooth="yes"/>
      <point x="486" y="581"/>
      <point x="486" y="594" type="qcurve" smooth="yes"/>
      <point x="486" y="620"/>
      <point x="446" y="620" type="qcurve" smooth="yes"/>
      <point x="439" y="620"/>
      <point x="439" y="666"/>
      <point x="446" y="666" type="qcurve" smooth="yes"/>
      <point x="469" y="664"/>
      <point x="554" y="663" type="qcurve" smooth="yes"/>
      <point x="638" y="663"/>
      <point x="662" y="666" type="qcurve" smooth="yes"/>
      <point x="669" y="666"/>
      <point x="669" y="620"/>
      <point x="662" y="620" type="qcurve" smooth="yes"/>
      <point x="605" y="620"/>
      <point x="560" y="579" type="qcurve" smooth="yes"/>
      <point x="544" y="564"/>
      <point x="519" y="533" type="qcurve" smooth="yes"/>
      <point x="396" y="382" type="line" smooth="yes"/>
      <point x="388" y="372"/>
      <point x="387" y="364" type="qcurve" smooth="yes"/>
      <point x="387" y="357"/>
      <point x="393" y="348" type="qcurve" smooth="yes"/>
    </contour>
  </outline>
</glyph>
<glyph name="Y" format="1">
  <advance width="646"/>
  <unicode hex="0059"/>
  <outline>
    <contour>
      <point x="351" y="696" type="move" name="Anchor-1"/>
    </contour>
    <contour>
      <point x="370" y="99" type="line" smooth="yes"/>
      <point x="370" y="42"/>
      <point x="442" y="42" type="qcurve" smooth="yes"/>
      <point x="448" y="42"/>
      <point x="449" y="-3"/>
      <point x="442" y="-3" type="qcurve" smooth="yes"/>
      <point x="410" y="0"/>
      <point x="214" y="0"/>
      <point x="179" y="-3" type="qcurve" smooth="yes"/>
      <point x="172" y="-3"/>
      <point x="172" y="42"/>
      <point x="179" y="42" type="qcurve" smooth="yes"/>
      <point x="251" y="42"/>
      <point x="251" y="99" type="qcurve" smooth="yes"/>
      <point x="251" y="241" type="line" smooth="yes"/>
      <point x="251" y="274"/>
      <point x="246" y="287" type="qcurve" smooth="yes"/>
      <point x="242" y="298"/>
      <point x="219" y="334" type="qcurve" smooth="yes"/>
      <point x="74" y="563" type="line" smooth="yes"/>
      <point x="49" y="603"/>
      <point x="24" y="614" type="qcurve" smooth="yes"/>
      <point x="10" y="620"/>
      <point x="-6" y="620" type="qcurve" smooth="yes"/>
      <point x="-13" y="620"/>
      <point x="-14" y="666"/>
      <point x="-6" y="666" type="qcurve" smooth="yes"/>
      <point x="17" y="664"/>
      <point x="121" y="663" type="qcurve" smooth="yes"/>
      <point x="226" y="663"/>
      <point x="251" y="666" type="qcurve" smooth="yes"/>
      <point x="258" y="666"/>
      <point x="258" y="620"/>
      <point x="251" y="620" type="qcurve" smooth="yes"/>
      <point x="197" y="620"/>
      <point x="197" y="594" type="qcurve" smooth="yes"/>
      <point x="197" y="579"/>
      <point x="207" y="563" type="qcurve" smooth="yes"/>
      <point x="331" y="366" type="line" smooth="yes"/>
      <point x="336" y="358"/>
      <point x="341" y="357" type="qcurve" smooth="yes"/>
      <point x="346" y="357"/>
      <point x="352" y="367" type="qcurve" smooth="yes"/>
      <point x="482" y="560" type="line" smooth="yes"/>
      <point x="493" y="577"/>
      <point x="494" y="589" type="qcurve" smooth="yes"/>
      <point x="494" y="620"/>
      <point x="442" y="620" type="qcurve" smooth="yes"/>
      <point x="435" y="620"/>
      <point x="435" y="666"/>
      <point x="442" y="666" type="qcurve" smooth="yes"/>
      <point x="464" y="664"/>
      <point x="550" y="663" type="qcurve" smooth="yes"/>
      <point x="640" y="663"/>
      <point x="664" y="666" type="qcurve" smooth="yes"/>
      <point x="671" y="666"/>
      <point x="671" y="620"/>
      <point x="664" y="620" type="qcurve" smooth="yes"/>
      <point x="611" y="620"/>
      <point x="577" y="587" type="qcurve" smooth="yes"/>
      <point x="561" y="570" type="line"/>
      <point x="396" y="335" type="line" smooth="yes"/>
      <point x="377" y="308"/>
      <point x="374" y="297" type="qcurve" smooth="yes"/>
      <point x="370" y="283"/>
      <point x="370" y="244" type="qcurve" smooth="yes"/>
    </contour>
  </outline>
</glyph>
<glyph name="Z" format="1">
  <advance width="643"/>
  <unicode hex="005A"/>
  <outline>
    <contour>
      <point x="620" y="9" type="qcurve" smooth="yes"/>
      <point x="620" y="-14"/>
      <point x="612" y="-14" type="qcurve" smooth="yes"/>
      <point x="600" y="-14"/>
      <point x="574" y="-10" type="qcurve" smooth="yes"/>
      <point x="510" y="0"/>
      <point x="290" y="0" type="qcurve" smooth="yes"/>
      <point x="71" y="0" type="line" smooth="yes"/>
      <point x="37" y="0"/>
      <point x="37" y="24" type="qcurve" smooth="yes"/>
      <point x="37" y="37"/>
      <point x="45" y="47" type="qcurve" smooth="yes"/>
      <point x="471" y="604" type="line" smooth="yes"/>
      <point x="476" y="610"/>
      <point x="476" y="614" type="qcurve" smooth="yes"/>
      <point x="476" y="622"/>
      <point x="456" y="622" type="qcurve" smooth="yes"/>
      <point x="206" y="622" type="line" smooth="yes"/>
      <point x="185" y="622"/>
      <point x="171" y="609" type="qcurve" smooth="yes"/>
      <point x="152" y="594"/>
      <point x="124" y="525" type="qcurve" smooth="yes"/>
      <point x="109" y="488"/>
      <point x="107" y="476" type="qcurve" smooth="yes"/>
      <point x="107" y="471"/>
      <point x="95" y="470" type="qcurve" smooth="yes"/>
      <point x="87" y="470"/>
      <point x="79" y="472" type="qcurve" smooth="yes"/>
      <point x="67" y="476"/>
      <point x="67" y="482" type="qcurve" smooth="yes"/>
      <point x="82" y="597"/>
      <point x="82" y="645" type="qcurve" smooth="yes"/>
      <point x="82" y="668"/>
      <point x="102" y="668" type="qcurve" smooth="yes"/>
      <point x="103" y="668"/>
      <point x="131" y="664" type="qcurve" smooth="yes"/>
      <point x="154" y="661"/>
      <point x="161" y="660" type="qcurve" smooth="yes"/>
      <point x="409" y="660" type="line"/>
      <point x="595" y="663" type="line" smooth="yes"/>
      <point x="627" y="663"/>
      <point x="627" y="647" type="qcurve" smooth="yes"/>
      <point x="627" y="635"/>
      <point x="615" y="619" type="qcurve" smooth="yes"/>
      <point x="208" y="61" type="line" smooth="yes"/>
      <point x="205" y="56"/>
      <point x="205" y="52" type="qcurve" smooth="yes"/>
      <point x="205" y="42"/>
      <point x="221" y="42" type="qcurve" smooth="yes"/>
      <point x="422" y="42"/>
      <point x="510" y="48" type="qcurve" smooth="yes"/>
      <point x="536" y="50"/>
      <point x="578" y="122" type="qcurve" smooth="yes"/>
      <point x="598" y="156"/>
      <point x="603" y="173" type="qcurve" smooth="yes"/>
      <point x="604" y="176"/>
      <point x="612" y="177" type="qcurve" smooth="yes"/>
      <point x="629" y="177"/>
      <point x="639" y="168" type="qcurve" smooth="yes"/>
      <point x="642" y="165"/>
      <point x="642" y="161" type="qcurve" smooth="yes"/>
      <point x="620" y="77"/>
    </contour>
  </outline>
</glyph>
<glyph name="bracketleft" format="1">
  <advance width="389"/>
  <unicode hex="005B"/>
  <outline>
    <contour>
      <point x="368" y="-173" type="qcurve" smooth="yes"/>
      <point x="155" y="-173" type="line" smooth="yes"/>
      <point x="144" y="-173"/>
      <point x="144" y="-162" type="qcurve" smooth="yes"/>
      <point x="144" y="738" type="line" smooth="yes"/>
      <point x="144" y="747"/>
      <point x="154" y="747" type="qcurve" smooth="yes"/>
      <point x="368" y="747" type="line" smooth="yes"/>
      <point x="378" y="747"/>
      <point x="378" y="700"/>
      <point x="368" y="700" type="qcurve" smooth="yes"/>
      <point x="258" y="700" type="line" smooth="yes"/>
      <point x="248" y="700"/>
      <point x="248" y="689" type="qcurve" smooth="yes"/>
      <point x="248" y="-112" type="line" smooth="yes"/>
      <point x="248" y="-126"/>
      <point x="255" y="-126" type="qcurve" smooth="yes"/>
      <point x="368" y="-126" type="line" smooth="yes"/>
      <point x="378" y="-126"/>
      <point x="378" y="-173"/>
    </contour>
  </outline>
</glyph>
<glyph name="backslash" format="1">
  <advance width="349"/>
  <unicode hex="005C"/>
  <outline>
    <contour>
      <point x="357" y="15" type="line" smooth="yes"/>
      <point x="362" y="3"/>
      <point x="324" y="-9" type="qcurve" smooth="yes"/>
      <point x="311" y="-13"/>
      <point x="301" y="-14" type="qcurve" smooth="yes"/>
      <point x="292" y="-14"/>
      <point x="290" y="-9" type="qcurve" smooth="yes"/>
      <point x="-7" y="696" type="line" smooth="yes"/>
      <point x="-13" y="710"/>
      <point x="21" y="724" type="qcurve" smooth="yes"/>
      <point x="36" y="730"/>
      <point x="47" y="729" type="qcurve" smooth="yes"/>
      <point x="59" y="729"/>
      <point x="61" y="723" type="qcurve" smooth="yes"/>
    </contour>
  </outline>
</glyph>
<glyph name="bracketright" format="1">
  <advance width="389"/>
  <unicode hex="005D"/>
  <outline>
    <contour>
      <point x="246" y="-162" type="line" smooth="yes"/>
      <point x="246" y="-173"/>
      <point x="235" y="-173" type="qcurve" smooth="yes"/>
      <point x="23" y="-173" type="line" smooth="yes"/>
      <point x="13" y="-173"/>
      <point x="13" y="-126"/>
      <point x="23" y="-126" type="qcurve" smooth="yes"/>
      <point x="136" y="-126" type="line" smooth="yes"/>
      <point x="143" y="-126"/>
      <point x="143" y="-114" type="qcurve" smooth="yes"/>
      <point x="143" y="689" type="line" smooth="yes"/>
      <point x="143" y="700"/>
      <point x="134" y="700" type="qcurve" smooth="yes"/>
      <point x="23" y="700" type="line" smooth="yes"/>
      <point x="13" y="700"/>
      <point x="13" y="747"/>
      <point x="23" y="747" type="qcurve" smooth="yes"/>
      <point x="236" y="747" type="line" smooth="yes"/>
      <point x="246" y="747"/>
      <point x="246" y="738" type="qcurve" smooth="yes"/>
    </contour>
  </outline>
</glyph>
<glyph name="asciicircum" format="1">
  <advance width="534"/>
  <unicode hex="005E"/>
  <outline>
    <contour>
      <point x="510" y="261" type="line"/>
      <point x="403" y="261" type="line"/>
      <point x="268" y="543" type="line"/>
      <point x="132" y="261" type="line"/>
      <point x="24" y="261" type="line"/>
      <point x="230" y="670" type="line"/>
      <point x="305" y="670" type="line"/>
    </contour>
  </outline>
</glyph>
<glyph name="grave" format="1">
  <advance width="277"/>
  <unicode hex="0060"/>
  <outline>
    <contour>
      <point x="225" y="544" type="line" smooth="yes"/>
      <point x="229" y="533"/>
      <point x="229" y="524" type="qcurve" smooth="yes"/>
      <point x="229" y="498"/>
      <point x="208" y="498" type="qcurve" smooth="yes"/>
      <point x="191" y="498"/>
      <point x="175" y="522" type="qcurve" smooth="yes"/>
      <point x="92" y="644" type="line" smooth="yes"/>
      <point x="90" y="648"/>
      <point x="90" y="651" type="qcurve" smooth="yes"/>
      <point x="90" y="667"/>
      <point x="118" y="682" type="qcurve" smooth="yes"/>
      <point x="139" y="693"/>
      <point x="154" y="693" type="qcurve" smooth="yes"/>
      <point x="166" y="693"/>
      <point x="168" y="687" type="qcurve" smooth="yes"/>
    </contour>
  </outline>
</glyph>
<glyph name="b" format="1">
  <advance width="512"/>
  <unicode hex="0062"/>
  <outline>
    <contour>
      <point x="234" y="754" type="move" name="Anchor-1"/>
    </contour>
    <contour>
      <point x="260" y="-37" type="move" name="Anchor-0"/>
    </contour>
    <contour>
      <point x="479" y="215" type="qcurve" smooth="yes"/>
      <point x="479" y="114"/>
      <point x="424" y="51" type="qcurve" smooth="yes"/>
      <point x="370" y="-11"/>
      <point x="262" y="-11" type="qcurve" smooth="yes"/>
      <point x="234" y="-11"/>
      <point x="199" y="3" type="qcurve" smooth="yes"/>
      <point x="172" y="15"/>
      <point x="148" y="15" type="qcurve" smooth="yes"/>
      <point x="140" y="15"/>
      <point x="121" y="-1" type="qcurve" smooth="yes"/>
      <point x="112" y="-9" type="line" smooth="yes"/>
      <point x="110" y="-10"/>
      <point x="105" y="-10" type="qcurve" smooth="yes"/>
      <point x="90" y="-10"/>
      <point x="69" y="6" type="qcurve" smooth="yes"/>
      <point x="60" y="13"/>
      <point x="60" y="17" type="qcurve" smooth="yes"/>
      <point x="63" y="32"/>
      <point x="63" y="136" type="qcurve" smooth="yes"/>
      <point x="63" y="567" type="line" smooth="yes"/>
      <point x="63" y="628"/>
      <point x="17" y="628" type="qcurve" smooth="yes"/>
      <point x="9" y="628"/>
      <point x="9" y="646" type="qcurve" smooth="yes"/>
      <point x="9" y="665"/>
      <point x="17" y="664" type="qcurve" smooth="yes"/>
      <point x="41" y="664"/>
      <point x="108" y="696" type="qcurve" smooth="yes"/>
      <point x="141" y="712"/>
      <point x="151" y="721" type="qcurve" smooth="yes"/>
      <point x="157" y="726"/>
      <point x="165" y="726" type="qcurve" smooth="yes"/>
      <point x="178" y="726"/>
      <point x="179" y="714" type="qcurve" smooth="yes"/>
      <point x="175" y="628" type="line"/>
      <point x="175" y="410" type="line" smooth="yes"/>
      <point x="175" y="396"/>
      <point x="183" y="396" type="qcurve" smooth="yes"/>
      <point x="187" y="396"/>
      <point x="192" y="400" type="qcurve" smooth="yes"/>
      <point x="228" y="425"/>
      <point x="274" y="425" type="qcurve" smooth="yes"/>
      <point x="360" y="425"/>
      <point x="418" y="367" type="qcurve" smooth="yes"/>
      <point x="479" y="306"/>
    </contour>
    <contour>
      <point x="355" y="209" type="qcurve" smooth="yes"/>
      <point x="355" y="286"/>
      <point x="322" y="333" type="qcurve" smooth="yes"/>
      <point x="293" y="375"/>
      <point x="245" y="376" type="qcurve" smooth="yes"/>
      <point x="210" y="376"/>
      <point x="190" y="355" type="qcurve" smooth="yes"/>
      <point x="175" y="340"/>
      <point x="175" y="316" type="qcurve" smooth="yes"/>
      <point x="175" y="145" type="line" smooth="yes"/>
      <point x="175" y="88"/>
      <point x="210" y="54" type="qcurve" smooth="yes"/>
      <point x="237" y="28"/>
      <point x="276" y="28" type="qcurve" smooth="yes"/>
      <point x="355" y="28"/>
    </contour>
  </outline>
</glyph>
<glyph name="c" format="1">
  <advance width="429"/>
  <unicode hex="0063"/>
  <outline>
    <contour>
      <point x="241" y="439" type="move" name="Anchor-1"/>
    </contour>
    <contour>
      <point x="223" y="-37" type="move" name="Anchor-0"/>
    </contour>
    <contour>
      <point x="346" y="303" type="qcurve" smooth="yes"/>
      <point x="328" y="303"/>
      <point x="319" y="317" type="qcurve" smooth="yes"/>
      <point x="300" y="349" type="line" smooth="yes"/>
      <point x="281" y="378"/>
      <point x="245" y="378" type="qcurve" smooth="yes"/>
      <point x="205" y="378"/>
      <point x="176" y="333" type="qcurve" smooth="yes"/>
      <point x="144" y="283"/>
      <point x="144" y="213" type="qcurve" smooth="yes"/>
      <point x="144" y="148"/>
      <point x="187" y="102" type="qcurve" smooth="yes"/>
      <point x="226" y="61"/>
      <point x="275" y="61" type="qcurve" smooth="yes"/>
      <point x="328" y="61"/>
      <point x="366" y="88" type="qcurve" smooth="yes"/>
      <point x="374" y="94"/>
      <point x="389" y="73" type="qcurve" smooth="yes"/>
      <point x="402" y="52"/>
      <point x="393" y="47" type="qcurve" smooth="yes"/>
      <point x="353" y="21" type="line"/>
      <point x="296" y="-11"/>
      <point x="223" y="-11" type="qcurve" smooth="yes"/>
      <point x="155" y="-11"/>
      <point x="101" y="37" type="qcurve" smooth="yes"/>
      <point x="33" y="97"/>
      <point x="32" y="189" type="qcurve" smooth="yes"/>
      <point x="32" y="272"/>
      <point x="84" y="339" type="qcurve" smooth="yes"/>
      <point x="150" y="425"/>
      <point x="255" y="425" type="qcurve" smooth="yes"/>
      <point x="321" y="425"/>
      <point x="364" y="403" type="qcurve" smooth="yes"/>
      <point x="383" y="393"/>
      <point x="390" y="381" type="qcurve" smooth="yes"/>
      <point x="393" y="373"/>
      <point x="393" y="361" type="qcurve" smooth="yes"/>
      <point x="393" y="336"/>
      <point x="378" y="320" type="qcurve" smooth="yes"/>
      <point x="361" y="303"/>
    </contour>
  </outline>
</glyph>
<glyph name="e" format="1">
  <advance width="427"/>
  <unicode hex="0065"/>
  <outline>
    <contour>
      <point x="225" y="439" type="move" name="Anchor-1"/>
    </contour>
    <contour>
      <point x="212" y="-37" type="move" name="Anchor-0"/>
    </contour>
    <contour>
      <point x="395" y="299" type="qcurve" smooth="yes"/>
      <point x="395" y="262"/>
      <point x="351" y="262" type="qcurve" smooth="yes"/>
      <point x="163" y="262" type="line" smooth="yes"/>
      <point x="145" y="262"/>
      <point x="145" y="249" type="qcurve" smooth="yes"/>
      <point x="145" y="133"/>
      <point x="200" y="86" type="qcurve" smooth="yes"/>
      <point x="230" y="60"/>
      <point x="274" y="60" type="qcurve" smooth="yes"/>
      <point x="314" y="60"/>
      <point x="355" y="87" type="qcurve" smooth="yes"/>
      <point x="365" y="92"/>
      <point x="379" y="74" type="qcurve" smooth="yes"/>
      <point x="392" y="57"/>
      <point x="386" y="52" type="qcurve" smooth="yes"/>
      <point x="363" y="28"/>
      <point x="321" y="9" type="qcurve" smooth="yes"/>
      <point x="278" y="-11"/>
      <point x="222" y="-11" type="qcurve" smooth="yes"/>
      <point x="156" y="-11"/>
      <point x="104" y="42" type="qcurve" smooth="yes"/>
      <point x="34" y="112"/>
      <point x="33" y="213" type="qcurve" smooth="yes"/>
      <point x="33" y="294"/>
      <point x="85" y="355" type="qcurve" smooth="yes"/>
      <point x="145" y="425"/>
      <point x="225" y="425" type="qcurve" smooth="yes"/>
      <point x="312" y="425"/>
      <point x="363" y="367" type="qcurve"/>
      <point x="395" y="323"/>
    </contour>
    <contour>
      <point x="151" y="319" type="qcurve" smooth="yes"/>
      <point x="151" y="306"/>
      <point x="169" y="306" type="qcurve" smooth="yes"/>
      <point x="268" y="306" type="line" smooth="yes"/>
      <point x="286" y="306"/>
      <point x="286" y="318" type="qcurve" smooth="yes"/>
      <point x="286" y="351"/>
      <point x="259" y="373" type="qcurve" smooth="yes"/>
      <point x="242" y="387"/>
      <point x="226" y="386" type="qcurve" smooth="yes"/>
      <point x="195" y="386"/>
      <point x="171" y="365" type="qcurve" smooth="yes"/>
      <point x="151" y="346"/>
    </contour>
  </outline>
</glyph>
<glyph name="f" format="1">
  <advance width="284"/>
  <unicode hex="0066"/>
  <outline>
    <contour>
      <point x="270" y="754" type="move" name="Anchor-1"/>
    </contour>
    <contour>
      <point x="139" y="-37" type="move" name="Anchor-0"/>
    </contour>
    <contour>
      <point x="297" y="390" type="qcurve" smooth="yes"/>
      <point x="297" y="364"/>
      <point x="290" y="364" type="qcurve" smooth="yes"/>
      <point x="210" y="364" type="line" smooth="yes"/>
      <point x="192" y="364"/>
      <point x="192" y="346" type="qcurve" smooth="yes"/>
      <point x="192" y="66" type="line" smooth="yes"/>
      <point x="192" y="33"/>
      <point x="257" y="33" type="qcurve" smooth="yes"/>
      <point x="265" y="33"/>
      <point x="265" y="-4"/>
      <point x="257" y="-4" type="qcurve" smooth="yes"/>
      <point x="218" y="0"/>
      <point x="140" y="0" type="qcurve" smooth="yes"/>
      <point x="68" y="0"/>
      <point x="27" y="-4" type="qcurve" smooth="yes"/>
      <point x="20" y="-4"/>
      <point x="20" y="33"/>
      <point x="27" y="33" type="qcurve" smooth="yes"/>
      <point x="80" y="33"/>
      <point x="80" y="66" type="qcurve" smooth="yes"/>
      <point x="80" y="346" type="line" smooth="yes"/>
      <point x="80" y="364"/>
      <point x="62" y="364" type="qcurve" smooth="yes"/>
      <point x="35" y="364" type="line" smooth="yes"/>
      <point x="27" y="364"/>
      <point x="27" y="400"/>
      <point x="35" y="400" type="qcurve" smooth="yes"/>
      <point x="58" y="400"/>
      <point x="80" y="432"/>
      <point x="80" y="455" type="qcurve" smooth="yes"/>
      <point x="80" y="526"/>
      <point x="113" y="591" type="qcurve" smooth="yes"/>
      <point x="129" y="623"/>
      <point x="151" y="645" type="qcurve" smooth="yes"/>
      <point x="228" y="726"/>
      <point x="329" y="726" type="qcurve" smooth="yes"/>
      <point x="389" y="726"/>
      <point x="419" y="697" type="qcurve" smooth="yes"/>
      <point x="438" y="679"/>
      <point x="438" y="656" type="qcurve" smooth="yes"/>
      <point x="438" y="629"/>
      <point x="412" y="609" type="qcurve" smooth="yes"/>
      <point x="397" y="597"/>
      <point x="383" y="597" type="qcurve" smooth="yes"/>
      <point x="334" y="597"/>
      <point x="311" y="641" type="qcurve" smooth="yes"/>
      <point x="297" y="669"/>
      <point x="273" y="671" type="qcurve" smooth="yes"/>
      <point x="245" y="671"/>
      <point x="226" y="645" type="qcurve" smooth="yes"/>
      <point x="192" y="598"/>
      <point x="192" y="512" type="qcurve" smooth="yes"/>
      <point x="192" y="433" type="line" smooth="yes"/>
      <point x="192" y="415"/>
      <point x="210" y="415" type="qcurve" smooth="yes"/>
      <point x="290" y="415" type="line" smooth="yes"/>
      <point x="297" y="415"/>
    </contour>
  </outline>
</glyph>
<glyph name="g" format="1">
  <advance width="462"/>
  <unicode hex="0067"/>
  <outline>
    <contour>
      <point x="217" y="439" type="move" name="Anchor-1"/>
    </contour>
    <contour>
      <point x="479" y="-69" type="qcurve" smooth="yes"/>
      <point x="479" y="-148"/>
      <point x="407" y="-206" type="qcurve" smooth="yes"/>
      <point x="323" y="-273"/>
      <point x="201" y="-273" type="qcurve" smooth="yes"/>
      <point x="55" y="-273"/>
      <point x="20" y="-201" type="qcurve" smooth="yes"/>
      <point x="10" y="-181"/>
      <point x="10" y="-156" type="qcurve" smooth="yes"/>
      <point x="10" y="-116"/>
      <point x="60" y="-75" type="qcurve" smooth="yes"/>
      <point x="77" y="-61"/>
      <point x="99" y="-50" type="qcurve" smooth="yes"/>
      <point x="106" y="-47"/>
      <point x="106" y="-43" type="qcurve" smooth="yes"/>
      <point x="106" y="-41"/>
      <point x="98" y="-37" type="qcurve" smooth="yes"/>
      <point x="33" y="-10"/>
      <point x="33" y="48" type="qcurve" smooth="yes"/>
      <point x="33" y="85"/>
      <point x="104" y="115" type="qcurve" smooth="yes"/>
      <point x="112" y="118"/>
      <point x="112" y="122" type="qcurve" smooth="yes"/>
      <point x="112" y="124"/>
      <point x="103" y="130" type="qcurve" smooth="yes"/>
      <point x="28" y="177"/>
      <point x="28" y="258" type="qcurve" smooth="yes"/>
      <point x="28" y="327"/>
      <point x="81" y="375" type="qcurve" smooth="yes"/>
      <point x="136" y="425"/>
      <point x="216" y="425" type="qcurve" smooth="yes"/>
      <point x="270" y="425"/>
      <point x="324" y="404" type="qcurve" smooth="yes"/>
      <point x="356" y="390"/>
      <point x="369" y="389" type="qcurve" smooth="yes"/>
      <point x="463" y="389" type="line" smooth="yes"/>
      <point x="471" y="389"/>
      <point x="471" y="362" type="qcurve" smooth="yes"/>
      <point x="471" y="333"/>
      <point x="463" y="333" type="qcurve" smooth="yes"/>
      <point x="418" y="333" type="line" smooth="yes"/>
      <point x="403" y="333"/>
      <point x="403" y="319" type="qcurve" smooth="yes"/>
      <point x="403" y="281" type="line" smooth="yes"/>
      <point x="403" y="198"/>
      <point x="345" y="149" type="qcurve" smooth="yes"/>
      <point x="294" y="106"/>
      <point x="210" y="106" type="qcurve" smooth="yes"/>
      <point x="186" y="106"/>
      <point x="158" y="109" type="qcurve" smooth="yes"/>
      <point x="152" y="109"/>
      <point x="147" y="106" type="qcurve" smooth="yes"/>
      <point x="129" y="91"/>
      <point x="129" y="78" type="qcurve" smooth="yes"/>
      <point x="129" y="62"/>
      <point x="148" y="53" type="qcurve" smooth="yes"/>
      <point x="164" y="45"/>
      <point x="191" y="45" type="qcurve" smooth="yes"/>
      <point x="315" y="45" type="line" smooth="yes"/>
      <point x="378" y="45"/>
      <point x="409" y="35" type="qcurve" smooth="yes"/>
      <point x="479" y="12"/>
    </contour>
    <contour>
      <point x="289" y="255" type="qcurve" smooth="yes"/>
      <point x="289" y="341"/>
      <point x="254" y="373" type="qcurve" smooth="yes"/>
      <point x="239" y="387"/>
      <point x="218" y="387" type="qcurve" smooth="yes"/>
      <point x="183" y="387"/>
      <point x="160" y="345" type="qcurve" smooth="yes"/>
      <point x="141" y="311"/>
      <point x="141" y="268" type="qcurve" smooth="yes"/>
      <point x="141" y="209"/>
      <point x="170" y="172" type="qcurve" smooth="yes"/>
      <point x="192" y="144"/>
      <point x="225" y="144" type="qcurve" smooth="yes"/>
      <point x="268" y="144"/>
      <point x="283" y="202" type="qcurve" smooth="yes"/>
      <point x="289" y="226"/>
    </contour>
    <contour>
      <point x="396" y="-118" type="qcurve" smooth="yes"/>
      <point x="396" y="-54"/>
      <point x="281" y="-54" type="qcurve" smooth="yes"/>
      <point x="177" y="-54" type="line" smooth="yes"/>
      <point x="167" y="-54"/>
      <point x="157" y="-61" type="qcurve" smooth="yes"/>
      <point x="126" y="-83"/>
      <point x="126" y="-121" type="qcurve" smooth="yes"/>
      <point x="126" y="-158"/>
      <point x="155" y="-185" type="qcurve" smooth="yes"/>
      <point x="188" y="-215"/>
      <point x="246" y="-215" type="qcurve" smooth="yes"/>
      <point x="369" y="-215"/>
      <point x="392" y="-146" type="qcurve" smooth="yes"/>
      <point x="396" y="-133"/>
    </contour>
  </outline>
</glyph>
<glyph name="h" format="1">
  <advance width="533"/>
  <unicode hex="0068"/>
  <outline>
    <contour>
      <point x="234" y="754" type="move" name="Anchor-1"/>
    </contour>
    <contour>
      <point x="274" y="-37" type="move" name="Anchor-0"/>
    </contour>
    <contour>
      <point x="527" y="-4" type="qcurve" smooth="yes"/>
      <point x="488" y="0"/>
      <point x="419" y="0" type="qcurve" smooth="yes"/>
      <point x="346" y="0"/>
      <point x="307" y="-4" type="qcurve" smooth="yes"/>
      <point x="299" y="-4"/>
      <point x="299" y="33"/>
      <point x="307" y="33" type="qcurve" smooth="yes"/>
      <point x="358" y="33"/>
      <point x="358" y="64" type="qcurve" smooth="yes"/>
      <point x="358" y="271" type="line" smooth="yes"/>
      <point x="358" y="308"/>
      <point x="336" y="339" type="qcurve" smooth="yes"/>
      <point x="312" y="372"/>
      <point x="276" y="372" type="qcurve" smooth="yes"/>
      <point x="232" y="372"/>
      <point x="206" y="341" type="qcurve" smooth="yes"/>
      <point x="192" y="324"/>
      <point x="192" y="306" type="qcurve" smooth="yes"/>
      <point x="192" y="70" type="line" smooth="yes"/>
      <point x="192" y="33"/>
      <point x="242" y="33" type="qcurve" smooth="yes"/>
      <point x="249" y="33"/>
      <point x="250" y="-4"/>
      <point x="242" y="-4" type="qcurve" smooth="yes"/>
      <point x="201" y="0"/>
      <point x="140" y="0" type="qcurve" smooth="yes"/>
      <point x="66" y="0"/>
      <point x="25" y="-4" type="qcurve" smooth="yes"/>
      <point x="18" y="-4"/>
      <point x="18" y="33"/>
      <point x="25" y="33" type="qcurve" smooth="yes"/>
      <point x="80" y="33"/>
      <point x="80" y="67" type="qcurve" smooth="yes"/>
      <point x="80" y="567" type="line" smooth="yes"/>
      <point x="80" y="628"/>
      <point x="35" y="628" type="qcurve" smooth="yes"/>
      <point x="27" y="628"/>
      <point x="27" y="646" type="qcurve" smooth="yes"/>
      <point x="27" y="665"/>
      <point x="35" y="664" type="qcurve" smooth="yes"/>
      <point x="59" y="664"/>
      <point x="125" y="697" type="qcurve" smooth="yes"/>
      <point x="157" y="713"/>
      <point x="167" y="721" type="qcurve" smooth="yes"/>
      <point x="173" y="726"/>
      <point x="181" y="726" type="qcurve" smooth="yes"/>
      <point x="194" y="726"/>
      <point x="195" y="713" type="qcurve" smooth="yes"/>
      <point x="194" y="671"/>
      <point x="192" y="628" type="qcurve" smooth="yes"/>
      <point x="192" y="401" type="line" smooth="yes"/>
      <point x="192" y="390"/>
      <point x="197" y="390" type="qcurve" smooth="yes"/>
      <point x="201" y="390"/>
      <point x="208" y="395" type="qcurve" smooth="yes"/>
      <point x="248" y="425"/>
      <point x="311" y="425" type="qcurve" smooth="yes"/>
      <point x="399" y="425"/>
      <point x="443" y="358" type="qcurve" smooth="yes"/>
      <point x="470" y="317"/>
      <point x="470" y="272" type="qcurve" smooth="yes"/>
      <point x="470" y="70" type="line" smooth="yes"/>
      <point x="473" y="33"/>
      <point x="527" y="33" type="qcurve" smooth="yes"/>
      <point x="535" y="33"/>
      <point x="535" y="-4"/>
    </contour>
  </outline>
</glyph>
<glyph name="i" format="1">
  <advance width="255"/>
  <unicode hex="0069"/>
  <outline>
    <contour>
      <point x="127" y="674" type="move" name="Anchor-1"/>
    </contour>
    <contour>
      <point x="138" y="-37" type="move" name="Anchor-0"/>
    </contour>
    <contour>
      <point x="242" y="-4" type="qcurve" smooth="yes"/>
      <point x="201" y="0"/>
      <point x="140" y="0" type="qcurve" smooth="yes"/>
      <point x="70" y="0"/>
      <point x="29" y="-4" type="qcurve" smooth="yes"/>
      <point x="22" y="-4"/>
      <point x="21" y="33"/>
      <point x="29" y="33" type="qcurve" smooth="yes"/>
      <point x="80" y="33"/>
      <point x="80" y="70" type="qcurve" smooth="yes"/>
      <point x="80" y="272" type="line" smooth="yes"/>
      <point x="80" y="333"/>
      <point x="35" y="333" type="qcurve" smooth="yes"/>
      <point x="27" y="333"/>
      <point x="27" y="369"/>
      <point x="35" y="369" type="qcurve" smooth="yes"/>
      <point x="59" y="369"/>
      <point x="126" y="402" type="qcurve" smooth="yes"/>
      <point x="157" y="417"/>
      <point x="167" y="426" type="qcurve" smooth="yes"/>
      <point x="173" y="431"/>
      <point x="182" y="431" type="qcurve" smooth="yes"/>
      <point x="196" y="431"/>
      <point x="195" y="418" type="qcurve" smooth="yes"/>
      <point x="192" y="375"/>
      <point x="192" y="333" type="qcurve" smooth="yes"/>
      <point x="192" y="70" type="line" smooth="yes"/>
      <point x="192" y="33"/>
      <point x="242" y="33" type="qcurve" smooth="yes"/>
      <point x="249" y="33"/>
      <point x="249" y="-4"/>
    </contour>
    <contour>
      <point x="196" y="579" type="qcurve" smooth="yes"/>
      <point x="196" y="544"/>
      <point x="167" y="524" type="qcurve" smooth="yes"/>
      <point x="148" y="511"/>
      <point x="125" y="512" type="qcurve" smooth="yes"/>
      <point x="88" y="512"/>
      <point x="68" y="540" type="qcurve" smooth="yes"/>
      <point x="55" y="558"/>
      <point x="55" y="579" type="qcurve" smooth="yes"/>
      <point x="55" y="613"/>
      <point x="83" y="633" type="qcurve" smooth="yes"/>
      <point x="102" y="647"/>
      <point x="125" y="646" type="qcurve" smooth="yes"/>
      <point x="163" y="646"/>
      <point x="183" y="618" type="qcurve" smooth="yes"/>
      <point x="196" y="599"/>
    </contour>
  </outline>
</glyph>
<glyph name="j" format="1">
  <advance width="243"/>
  <unicode hex="006A"/>
  <outline>
    <contour>
      <point x="111" y="674" type="move" name="Anchor-1"/>
    </contour>
    <contour>
      <point x="182" y="580" type="qcurve" smooth="yes"/>
      <point x="182" y="545"/>
      <point x="153" y="525" type="qcurve" smooth="yes"/>
      <point x="134" y="512"/>
      <point x="111" y="512" type="qcurve" smooth="yes"/>
      <point x="75" y="512"/>
      <point x="54" y="539" type="qcurve" smooth="yes"/>
      <point x="40" y="557"/>
      <point x="40" y="580" type="qcurve" smooth="yes"/>
      <point x="40" y="613"/>
      <point x="68" y="633" type="qcurve" smooth="yes"/>
      <point x="87" y="647"/>
      <point x="111" y="647" type="qcurve" smooth="yes"/>
      <point x="147" y="647"/>
      <point x="168" y="620" type="qcurve" smooth="yes"/>
      <point x="182" y="601"/>
    </contour>
    <contour>
      <point x="183" y="418" type="qcurve" smooth="yes"/>
      <point x="179" y="373"/>
      <point x="179" y="333" type="qcurve" smooth="yes"/>
      <point x="179" y="68" type="line" smooth="yes"/>
      <point x="179" y="-23"/>
      <point x="174" y="-63" type="qcurve" smooth="yes"/>
      <point x="162" y="-148"/>
      <point x="121" y="-203" type="qcurve" smooth="yes"/>
      <point x="84" y="-253"/>
      <point x="20" y="-267" type="qcurve" smooth="yes"/>
      <point x="2" y="-271"/>
      <point x="-16" y="-271" type="qcurve" smooth="yes"/>
      <point x="-45" y="-271"/>
      <point x="-73" y="-250" type="qcurve" smooth="yes"/>
      <point x="-94" y="-233"/>
      <point x="-94" y="-208" type="qcurve" smooth="yes"/>
      <point x="-94" y="-180"/>
      <point x="-69" y="-166" type="qcurve" smooth="yes"/>
      <point x="-56" y="-159"/>
      <point x="-41" y="-158" type="qcurve" smooth="yes"/>
      <point x="-18" y="-158"/>
      <point x="-2" y="-184" type="qcurve" smooth="yes"/>
      <point x="19" y="-220"/>
      <point x="37" y="-219" type="qcurve" smooth="yes"/>
      <point x="59" y="-219"/>
      <point x="64" y="-175" type="qcurve" smooth="yes"/>
      <point x="66" y="-154"/>
      <point x="67" y="-112" type="qcurve" smooth="yes"/>
      <point x="67" y="272" type="line" smooth="yes"/>
      <point x="67" y="333"/>
      <point x="22" y="333" type="qcurve" smooth="yes"/>
      <point x="15" y="333"/>
      <point x="15" y="369"/>
      <point x="22" y="369" type="qcurve" smooth="yes"/>
      <point x="47" y="369"/>
      <point x="114" y="402" type="qcurve" smooth="yes"/>
      <point x="145" y="417"/>
      <point x="155" y="426" type="qcurve" smooth="yes"/>
      <point x="162" y="431"/>
      <point x="169" y="431" type="qcurve" smooth="yes"/>
      <point x="183" y="431"/>
    </contour>
  </outline>
</glyph>
<glyph name="k" format="1">
  <advance width="523"/>
  <unicode hex="006B"/>
  <outline>
    <contour>
      <point x="248" y="754" type="move" name="Anchor-1"/>
    </contour>
    <contour>
      <point x="272" y="-37" type="move" name="Anchor-0"/>
    </contour>
    <contour>
      <point x="527" y="-4" type="qcurve" smooth="yes"/>
      <point x="488" y="0"/>
      <point x="342" y="0"/>
      <point x="301" y="-4" type="qcurve" smooth="yes"/>
      <point x="294" y="-4"/>
      <point x="293" y="33"/>
      <point x="301" y="33" type="qcurve" smooth="yes"/>
      <point x="337" y="33"/>
      <point x="337" y="47" type="qcurve" smooth="yes"/>
      <point x="337" y="55"/>
      <point x="324" y="71" type="qcurve" smooth="yes"/>
      <point x="229" y="180" type="line" smooth="yes"/>
      <point x="217" y="195"/>
      <point x="200" y="195" type="qcurve" smooth="yes"/>
      <point x="192" y="195"/>
      <point x="192" y="178" type="qcurve" smooth="yes"/>
      <point x="192" y="70" type="line" smooth="yes"/>
      <point x="192" y="33"/>
      <point x="245" y="33" type="qcurve" smooth="yes"/>
      <point x="252" y="33"/>
      <point x="252" y="-4"/>
      <point x="245" y="-4" type="qcurve" smooth="yes"/>
      <point x="204" y="0"/>
      <point x="140" y="0" type="qcurve" smooth="yes"/>
      <point x="65" y="0"/>
      <point x="24" y="-4" type="qcurve" smooth="yes"/>
      <point x="17" y="-4"/>
      <point x="17" y="33"/>
      <point x="24" y="33" type="qcurve" smooth="yes"/>
      <point x="80" y="33"/>
      <point x="80" y="68" type="qcurve" smooth="yes"/>
      <point x="80" y="567" type="line"/>
      <point x="76" y="625"/>
      <point x="35" y="628" type="qcurve" smooth="yes"/>
      <point x="27" y="628"/>
      <point x="27" y="664"/>
      <point x="35" y="664" type="qcurve" smooth="yes"/>
      <point x="59" y="664"/>
      <point x="125" y="697" type="qcurve" smooth="yes"/>
      <point x="157" y="713"/>
      <point x="167" y="721" type="qcurve" smooth="yes"/>
      <point x="173" y="726"/>
      <point x="181" y="726" type="qcurve" smooth="yes"/>
      <point x="194" y="726"/>
      <point x="195" y="713" type="qcurve" smooth="yes"/>
      <point x="192" y="671"/>
      <point x="192" y="628" type="qcurve" smooth="yes"/>
      <point x="192" y="258" type="line" smooth="yes"/>
      <point x="192" y="240"/>
      <point x="202" y="240" type="qcurve" smooth="yes"/>
      <point x="223" y="240"/>
      <point x="241" y="259" type="qcurve" smooth="yes"/>
      <point x="316" y="342" type="line" smooth="yes"/>
      <point x="332" y="360"/>
      <point x="332" y="368" type="qcurve" smooth="yes"/>
      <point x="332" y="383"/>
      <point x="291" y="383" type="qcurve" smooth="yes"/>
      <point x="283" y="383"/>
      <point x="283" y="418"/>
      <point x="291" y="418" type="qcurve" smooth="yes"/>
      <point x="320" y="415"/>
      <point x="397" y="415" type="qcurve" smooth="yes"/>
      <point x="465" y="415"/>
      <point x="496" y="418" type="qcurve" smooth="yes"/>
      <point x="503" y="418"/>
      <point x="503" y="383"/>
      <point x="496" y="383" type="qcurve" smooth="yes"/>
      <point x="445" y="383"/>
      <point x="407" y="348" type="qcurve" smooth="yes"/>
      <point x="305" y="256" type="line" smooth="yes"/>
      <point x="300" y="251"/>
      <point x="300" y="247" type="qcurve" smooth="yes"/>
      <point x="300" y="240"/>
      <point x="305" y="234" type="qcurve" smooth="yes"/>
      <point x="466" y="59" type="line" smooth="yes"/>
      <point x="489" y="33"/>
      <point x="527" y="33" type="qcurve" smooth="yes"/>
      <point x="535" y="33"/>
      <point x="535" y="-4"/>
    </contour>
  </outline>
</glyph>
<glyph name="l" format="1">
  <advance width="255"/>
  <unicode hex="006C"/>
  <outline>
    <contour>
      <point x="126" y="754" type="move" name="Anchor-1"/>
    </contour>
    <contour>
      <point x="138" y="-37" type="move" name="Anchor-0"/>
    </contour>
    <contour>
      <point x="242" y="-4" type="qcurve" smooth="yes"/>
      <point x="201" y="0"/>
      <point x="140" y="0" type="qcurve" smooth="yes"/>
      <point x="70" y="0"/>
      <point x="29" y="-4" type="qcurve" smooth="yes"/>
      <point x="22" y="-4"/>
      <point x="21" y="33"/>
      <point x="29" y="33" type="qcurve" smooth="yes"/>
      <point x="80" y="33"/>
      <point x="80" y="66" type="qcurve" smooth="yes"/>
      <point x="80" y="567" type="line" smooth="yes"/>
      <point x="80" y="628"/>
      <point x="35" y="628" type="qcurve" smooth="yes"/>
      <point x="27" y="628"/>
      <point x="27" y="664"/>
      <point x="35" y="664" type="qcurve" smooth="yes"/>
      <point x="59" y="664"/>
      <point x="125" y="697" type="qcurve" smooth="yes"/>
      <point x="157" y="713"/>
      <point x="167" y="721" type="qcurve" smooth="yes"/>
      <point x="173" y="726"/>
      <point x="180" y="726" type="qcurve" smooth="yes"/>
      <point x="195" y="726"/>
      <point x="195" y="710" type="qcurve" smooth="yes"/>
      <point x="192" y="673"/>
      <point x="192" y="628" type="qcurve" smooth="yes"/>
      <point x="192" y="70" type="line" smooth="yes"/>
      <point x="192" y="33"/>
      <point x="242" y="33" type="qcurve" smooth="yes"/>
      <point x="249" y="33"/>
      <point x="249" y="-4"/>
    </contour>
  </outline>
</glyph>
<glyph name="m" format="1">
  <advance width="795"/>
  <unicode hex="006D"/>
  <outline>
    <contour>
      <point x="427" y="439" type="move" name="Anchor-1"/>
    </contour>
    <contour>
      <point x="398" y="-37" type="move" name="Anchor-0"/>
    </contour>
    <contour>
      <point x="775" y="-4" type="qcurve" smooth="yes"/>
      <point x="736" y="0"/>
      <point x="667" y="0" type="qcurve" smooth="yes"/>
      <point x="601" y="0"/>
      <point x="562" y="-4" type="qcurve" smooth="yes"/>
      <point x="554" y="-4"/>
      <point x="554" y="33"/>
      <point x="562" y="33" type="qcurve" smooth="yes"/>
      <point x="611" y="33"/>
      <point x="611" y="66" type="qcurve" smooth="yes"/>
      <point x="611" y="298" type="line" smooth="yes"/>
      <point x="611" y="372"/>
      <point x="537" y="372" type="qcurve" smooth="yes"/>
      <point x="503" y="372"/>
      <point x="479" y="342" type="qcurve" smooth="yes"/>
      <point x="457" y="315"/>
      <point x="457" y="278" type="qcurve" smooth="yes"/>
      <point x="457" y="68" type="line" smooth="yes"/>
      <point x="457" y="33"/>
      <point x="508" y="33" type="qcurve" smooth="yes"/>
      <point x="516" y="33"/>
      <point x="516" y="-4"/>
      <point x="508" y="-4" type="qcurve" smooth="yes"/>
      <point x="469" y="0"/>
      <point x="401" y="0" type="qcurve" smooth="yes"/>
      <point x="337" y="0"/>
      <point x="296" y="-4" type="qcurve" smooth="yes"/>
      <point x="289" y="-4"/>
      <point x="289" y="33"/>
      <point x="296" y="33" type="qcurve" smooth="yes"/>
      <point x="345" y="33"/>
      <point x="345" y="64" type="qcurve" smooth="yes"/>
      <point x="345" y="276" type="line" smooth="yes"/>
      <point x="345" y="341"/>
      <point x="323" y="361" type="qcurve" smooth="yes"/>
      <point x="310" y="372"/>
      <point x="276" y="372" type="qcurve" smooth="yes"/>
      <point x="251" y="372"/>
      <point x="229" y="356" type="qcurve" smooth="yes"/>
      <point x="192" y="328"/>
      <point x="192" y="295" type="qcurve" smooth="yes"/>
      <point x="192" y="65" type="line" smooth="yes"/>
      <point x="192" y="33"/>
      <point x="240" y="33" type="qcurve" smooth="yes"/>
      <point x="247" y="33"/>
      <point x="248" y="-4"/>
      <point x="240" y="-4" type="qcurve" smooth="yes"/>
      <point x="199" y="0"/>
      <point x="133" y="0" type="qcurve" smooth="yes"/>
      <point x="66" y="0"/>
      <point x="25" y="-4" type="qcurve" smooth="yes"/>
      <point x="18" y="-4"/>
      <point x="18" y="33"/>
      <point x="25" y="33" type="qcurve" smooth="yes"/>
      <point x="80" y="33"/>
      <point x="80" y="67" type="qcurve" smooth="yes"/>
      <point x="80" y="269" type="line" smooth="yes"/>
      <point x="80" y="333"/>
      <point x="35" y="333" type="qcurve" smooth="yes"/>
      <point x="27" y="333"/>
      <point x="27" y="369"/>
      <point x="35" y="369" type="qcurve" smooth="yes"/>
      <point x="59" y="369"/>
      <point x="126" y="402" type="qcurve" smooth="yes"/>
      <point x="157" y="417"/>
      <point x="167" y="426" type="qcurve" smooth="yes"/>
      <point x="173" y="431"/>
      <point x="181" y="431" type="qcurve" smooth="yes"/>
      <point x="195" y="431"/>
      <point x="195" y="419" type="qcurve" smooth="yes"/>
      <point x="192" y="385" type="line" smooth="yes"/>
      <point x="192" y="376"/>
      <point x="196" y="375" type="qcurve" smooth="yes"/>
      <point x="200" y="375"/>
      <point x="205" y="380" type="qcurve" smooth="yes"/>
      <point x="245" y="425"/>
      <point x="312" y="425" type="qcurve" smooth="yes"/>
      <point x="381" y="425"/>
      <point x="417" y="363" type="qcurve" smooth="yes"/>
      <point x="421" y="355"/>
      <point x="425" y="355" type="qcurve" smooth="yes"/>
      <point x="430" y="355"/>
      <point x="438" y="364" type="qcurve" smooth="yes"/>
      <point x="477" y="405"/>
      <point x="529" y="419" type="qcurve" smooth="yes"/>
      <point x="550" y="425"/>
      <point x="570" y="425" type="qcurve" smooth="yes"/>
      <point x="632" y="425"/>
      <point x="670" y="391" type="qcurve" smooth="yes"/>
      <point x="723" y="344"/>
      <point x="723" y="270" type="qcurve" smooth="yes"/>
      <point x="723" y="68" type="line" smooth="yes"/>
      <point x="723" y="33"/>
      <point x="775" y="33" type="qcurve" smooth="yes"/>
      <point x="783" y="33"/>
      <point x="783" y="-4"/>
    </contour>
  </outline>
</glyph>
<glyph name="n" format="1">
  <advance width="530"/>
  <unicode hex="006E"/>
  <outline>
    <contour>
      <point x="318" y="439" type="move" name="Anchor-1"/>
    </contour>
    <contour>
      <point x="267" y="-37" type="move" name="Anchor-0"/>
    </contour>
    <contour>
      <point x="522" y="-4" type="qcurve" smooth="yes"/>
      <point x="470" y="0"/>
      <point x="368" y="0"/>
      <point x="309" y="-4" type="qcurve" smooth="yes"/>
      <point x="302" y="-4"/>
      <point x="302" y="33"/>
      <point x="309" y="33" type="qcurve" smooth="yes"/>
      <point x="358" y="33"/>
      <point x="358" y="63" type="qcurve" smooth="yes"/>
      <point x="358" y="262" type="line" smooth="yes"/>
      <point x="358" y="335"/>
      <point x="330" y="360" type="qcurve" smooth="yes"/>
      <point x="316" y="372"/>
      <point x="283" y="372" type="qcurve" smooth="yes"/>
      <point x="253" y="372"/>
      <point x="225" y="348" type="qcurve" smooth="yes"/>
      <point x="192" y="320"/>
      <point x="192" y="289" type="qcurve" smooth="yes"/>
      <point x="192" y="70" type="line" smooth="yes"/>
      <point x="192" y="33"/>
      <point x="240" y="33" type="qcurve" smooth="yes"/>
      <point x="247" y="33"/>
      <point x="248" y="-4"/>
      <point x="240" y="-4" type="qcurve" smooth="yes"/>
      <point x="199" y="0"/>
      <point x="135" y="0" type="qcurve" smooth="yes"/>
      <point x="69" y="0"/>
      <point x="28" y="-4" type="qcurve" smooth="yes"/>
      <point x="21" y="-4"/>
      <point x="21" y="33"/>
      <point x="28" y="33" type="qcurve" smooth="yes"/>
      <point x="80" y="33"/>
      <point x="80" y="70" type="qcurve" smooth="yes"/>
      <point x="80" y="268" type="line" smooth="yes"/>
      <point x="80" y="333"/>
      <point x="35" y="333" type="qcurve" smooth="yes"/>
      <point x="27" y="333"/>
      <point x="27" y="369"/>
      <point x="35" y="369" type="qcurve" smooth="yes"/>
      <point x="59" y="369"/>
      <point x="126" y="402" type="qcurve" smooth="yes"/>
      <point x="157" y="417"/>
      <point x="167" y="426" type="qcurve" smooth="yes"/>
      <point x="173" y="431"/>
      <point x="180" y="431" type="qcurve" smooth="yes"/>
      <point x="194" y="431"/>
      <point x="195" y="418" type="qcurve" smooth="yes"/>
      <point x="192" y="385" type="line" smooth="yes"/>
      <point x="192" y="376"/>
      <point x="201" y="375"/>
      <point x="205" y="380" type="qcurve" smooth="yes"/>
      <point x="226" y="407"/>
      <point x="272" y="419" type="qcurve" smooth="yes"/>
      <point x="292" y="424"/>
      <point x="319" y="425" type="qcurve" smooth="yes"/>
      <point x="411" y="425"/>
      <point x="453" y="334" type="qcurve" smooth="yes"/>
      <point x="471" y="298"/>
      <point x="470" y="227" type="qcurve" smooth="yes"/>
      <point x="470" y="66" type="line" smooth="yes"/>
      <point x="470" y="33"/>
      <point x="522" y="33" type="qcurve" smooth="yes"/>
      <point x="530" y="33"/>
      <point x="530" y="-4"/>
    </contour>
  </outline>
</glyph>
<glyph name="o" format="1">
  <advance width="503"/>
  <unicode hex="006F"/>
  <outline>
    <contour>
      <point x="249" y="439" type="move" name="Anchor-1"/>
    </contour>
    <contour>
      <point x="250" y="-37" type="move" name="Anchor-0"/>
    </contour>
    <contour>
      <point x="473" y="208" type="qcurve" smooth="yes"/>
      <point x="473" y="106"/>
      <point x="413" y="46" type="qcurve" smooth="yes"/>
      <point x="355" y="-12"/>
      <point x="253" y="-11" type="qcurve" smooth="yes"/>
      <point x="163" y="-11"/>
      <point x="100" y="48" type="qcurve" smooth="yes"/>
      <point x="32" y="112"/>
      <point x="32" y="207" type="qcurve" smooth="yes"/>
      <point x="32" y="290"/>
      <point x="86" y="352" type="qcurve" smooth="yes"/>
      <point x="150" y="425"/>
      <point x="252" y="425" type="qcurve" smooth="yes"/>
      <point x="358" y="425"/>
      <point x="423" y="348" type="qcurve" smooth="yes"/>
      <point x="473" y="288"/>
    </contour>
    <contour>
      <point x="349" y="205" type="qcurve" smooth="yes"/>
      <point x="349" y="295"/>
      <point x="314" y="348" type="qcurve" smooth="yes"/>
      <point x="288" y="388"/>
      <point x="253" y="387" type="qcurve" smooth="yes"/>
      <point x="213" y="387"/>
      <point x="185" y="336" type="qcurve" smooth="yes"/>
      <point x="156" y="283"/>
      <point x="156" y="205" type="qcurve" smooth="yes"/>
      <point x="156" y="115"/>
      <point x="191" y="65" type="qcurve" smooth="yes"/>
      <point x="216" y="30"/>
      <point x="252" y="30" type="qcurve" smooth="yes"/>
      <point x="298" y="30"/>
      <point x="325" y="85" type="qcurve" smooth="yes"/>
      <point x="349" y="134"/>
    </contour>
  </outline>
</glyph>
<glyph name="p" format="1">
  <advance width="492"/>
  <unicode hex="0070"/>
  <outline>
    <contour>
      <point x="248" y="439" type="move" name="Anchor-1"/>
    </contour>
    <contour>
      <point x="468" y="232" type="qcurve" smooth="yes"/>
      <point x="468" y="62"/>
      <point x="370" y="11" type="qcurve" smooth="yes"/>
      <point x="327" y="-11"/>
      <point x="257" y="-11" type="qcurve" smooth="yes"/>
      <point x="213" y="-11"/>
      <point x="195" y="-2" type="qcurve" smooth="yes"/>
      <point x="191" y="0"/>
      <point x="188" y="0" type="qcurve" smooth="yes"/>
      <point x="179" y="0"/>
      <point x="179" y="-13" type="qcurve" smooth="yes"/>
      <point x="179" y="-194" type="line" smooth="yes"/>
      <point x="179" y="-236"/>
      <point x="248" y="-236" type="qcurve" smooth="yes"/>
      <point x="255" y="-236"/>
      <point x="255" y="-273"/>
      <point x="248" y="-273" type="qcurve" smooth="yes"/>
      <point x="207" y="-269"/>
      <point x="125" y="-269" type="qcurve" smooth="yes"/>
      <point x="55" y="-269"/>
      <point x="16" y="-273" type="qcurve" smooth="yes"/>
      <point x="8" y="-273"/>
      <point x="8" y="-236"/>
      <point x="16" y="-236" type="qcurve" smooth="yes"/>
      <point x="66" y="-236"/>
      <point x="67" y="-195" type="qcurve" smooth="yes"/>
      <point x="67" y="268" type="line" smooth="yes"/>
      <point x="67" y="333"/>
      <point x="22" y="333" type="qcurve" smooth="yes"/>
      <point x="15" y="333"/>
      <point x="15" y="369"/>
      <point x="22" y="369" type="qcurve" smooth="yes"/>
      <point x="49" y="369"/>
      <point x="115" y="403" type="qcurve" smooth="yes"/>
      <point x="143" y="418"/>
      <point x="153" y="426" type="qcurve" smooth="yes"/>
      <point x="160" y="431"/>
      <point x="166" y="431" type="qcurve" smooth="yes"/>
      <point x="179" y="431"/>
      <point x="181" y="421" type="qcurve" smooth="yes"/>
      <point x="179" y="398" type="line" smooth="yes"/>
      <point x="179" y="386"/>
      <point x="186" y="386" type="qcurve" smooth="yes"/>
      <point x="192" y="386"/>
      <point x="199" y="395" type="qcurve" smooth="yes"/>
      <point x="213" y="411"/>
      <point x="240" y="420" type="qcurve" smooth="yes"/>
      <point x="255" y="424"/>
      <point x="273" y="425" type="qcurve" smooth="yes"/>
      <point x="346" y="425"/>
      <point x="391" y="393" type="qcurve" smooth="yes"/>
      <point x="468" y="337"/>
    </contour>
    <contour>
      <point x="354" y="196" type="qcurve" smooth="yes"/>
      <point x="354" y="306"/>
      <point x="313" y="351" type="qcurve" smooth="yes"/>
      <point x="288" y="376"/>
      <point x="253" y="376" type="qcurve" smooth="yes"/>
      <point x="211" y="376"/>
      <point x="185" y="335" type="qcurve" smooth="yes"/>
      <point x="179" y="326"/>
      <point x="179" y="301" type="qcurve" smooth="yes"/>
      <point x="179" y="87" type="line" smooth="yes"/>
      <point x="182" y="29"/>
      <point x="266" y="29" type="qcurve" smooth="yes"/>
      <point x="309" y="29"/>
      <point x="336" y="97" type="qcurve" smooth="yes"/>
      <point x="354" y="142"/>
    </contour>
  </outline>
</glyph>
<glyph name="q" format="1">
  <advance width="478"/>
  <unicode hex="0071"/>
  <outline>
    <contour>
      <point x="246" y="439" type="move" name="Anchor-1"/>
    </contour>
    <contour>
      <point x="496" y="-273" type="qcurve" smooth="yes"/>
      <point x="457" y="-269"/>
      <point x="305" y="-269"/>
      <point x="264" y="-273" type="qcurve" smooth="yes"/>
      <point x="257" y="-273"/>
      <point x="257" y="-236"/>
      <point x="264" y="-236" type="qcurve" smooth="yes"/>
      <point x="324" y="-236"/>
      <point x="324" y="-194" type="qcurve" smooth="yes"/>
      <point x="324" y="-3" type="line"/>
      <point x="294" y="-11"/>
      <point x="251" y="-11" type="qcurve" smooth="yes"/>
      <point x="32" y="-11"/>
      <point x="32" y="235" type="qcurve" smooth="yes"/>
      <point x="32" y="319"/>
      <point x="88" y="374" type="qcurve" smooth="yes"/>
      <point x="141" y="425"/>
      <point x="228" y="425" type="qcurve" smooth="yes"/>
      <point x="303" y="425"/>
      <point x="347" y="399" type="qcurve" smooth="yes"/>
      <point x="350" y="397"/>
      <point x="354" y="396" type="qcurve" smooth="yes"/>
      <point x="407" y="422" type="line" smooth="yes"/>
      <point x="424" y="430"/>
      <point x="439" y="408" type="qcurve" smooth="yes"/>
      <point x="451" y="391"/>
      <point x="443" y="385" type="qcurve" smooth="yes"/>
      <point x="436" y="378"/>
      <point x="436" y="301" type="qcurve" smooth="yes"/>
      <point x="436" y="-195" type="line" smooth="yes"/>
      <point x="436" y="-236"/>
      <point x="496" y="-236" type="qcurve" smooth="yes"/>
      <point x="504" y="-236"/>
      <point x="504" y="-273"/>
    </contour>
    <contour>
      <point x="324" y="88" type="qcurve" smooth="yes"/>
      <point x="324" y="314" type="line" smooth="yes"/>
      <point x="324" y="325"/>
      <point x="320" y="331" type="qcurve" smooth="yes"/>
      <point x="287" y="376"/>
      <point x="248" y="376" type="qcurve" smooth="yes"/>
      <point x="146" y="376"/>
      <point x="146" y="205" type="qcurve" smooth="yes"/>
      <point x="146" y="130"/>
      <point x="171" y="78" type="qcurve" smooth="yes"/>
      <point x="194" y="29"/>
      <point x="238" y="29" type="qcurve" smooth="yes"/>
      <point x="297" y="29"/>
      <point x="315" y="57" type="qcurve" smooth="yes"/>
      <point x="324" y="70"/>
    </contour>
  </outline>
</glyph>
<glyph name="r" format="1">
  <advance width="368"/>
  <unicode hex="0072"/>
  <outline>
    <contour>
      <point x="223" y="439" type="move" name="Anchor-1"/>
    </contour>
    <contour>
      <point x="185" y="-37" type="move" name="Anchor-0"/>
    </contour>
    <contour>
      <point x="369" y="367" type="qcurve" smooth="yes"/>
      <point x="369" y="338"/>
      <point x="349" y="321" type="qcurve" smooth="yes"/>
      <point x="336" y="309"/>
      <point x="319" y="309" type="qcurve" smooth="yes"/>
      <point x="294" y="309"/>
      <point x="269" y="334" type="qcurve" smooth="yes"/>
      <point x="258" y="345"/>
      <point x="245" y="345" type="qcurve" smooth="yes"/>
      <point x="224" y="345"/>
      <point x="208" y="317" type="qcurve" smooth="yes"/>
      <point x="192" y="290"/>
      <point x="192" y="255" type="qcurve" smooth="yes"/>
      <point x="192" y="70" type="line" smooth="yes"/>
      <point x="192" y="33"/>
      <point x="242" y="33" type="qcurve" smooth="yes"/>
      <point x="249" y="33"/>
      <point x="250" y="-4"/>
      <point x="242" y="-4" type="qcurve" smooth="yes"/>
      <point x="201" y="0"/>
      <point x="140" y="0" type="qcurve" smooth="yes"/>
      <point x="70" y="0"/>
      <point x="29" y="-4" type="qcurve" smooth="yes"/>
      <point x="22" y="-4"/>
      <point x="21" y="33"/>
      <point x="29" y="33" type="qcurve" smooth="yes"/>
      <point x="80" y="33"/>
      <point x="80" y="70" type="qcurve" smooth="yes"/>
      <point x="80" y="268" type="line" smooth="yes"/>
      <point x="80" y="333"/>
      <point x="35" y="333" type="qcurve" smooth="yes"/>
      <point x="27" y="333"/>
      <point x="27" y="369"/>
      <point x="35" y="369" type="qcurve" smooth="yes"/>
      <point x="60" y="369"/>
      <point x="128" y="403" type="qcurve" smooth="yes"/>
      <point x="157" y="418"/>
      <point x="167" y="426" type="qcurve" smooth="yes"/>
      <point x="173" y="431"/>
      <point x="181" y="431" type="qcurve" smooth="yes"/>
      <point x="193" y="431"/>
      <point x="195" y="421" type="qcurve" smooth="yes"/>
      <point x="192" y="385" type="line" smooth="yes"/>
      <point x="192" y="374"/>
      <point x="205" y="374"/>
      <point x="216" y="386" type="qcurve" smooth="yes"/>
      <point x="249" y="425"/>
      <point x="298" y="425" type="qcurve" smooth="yes"/>
      <point x="332" y="425"/>
      <point x="354" y="403" type="qcurve" smooth="yes"/>
      <point x="369" y="388"/>
    </contour>
  </outline>
</glyph>
<glyph name="s" format="1">
  <advance width="365"/>
  <unicode hex="0073"/>
  <outline>
    <contour>
      <point x="188" y="439" type="move" name="Anchor-1"/>
    </contour>
    <contour>
      <point x="167" y="-37" type="move" name="Anchor-0"/>
    </contour>
    <contour>
      <point x="169" y="-11" type="qcurve" smooth="yes"/>
      <point x="98" y="-11"/>
      <point x="52" y="18" type="qcurve"/>
      <point x="38" y="51"/>
      <point x="38" y="126" type="qcurve" smooth="yes"/>
      <point x="38" y="135"/>
      <point x="55" y="135" type="qcurve" smooth="yes"/>
      <point x="74" y="135"/>
      <point x="75" y="127" type="qcurve" smooth="yes"/>
      <point x="77" y="101"/>
      <point x="108" y="65" type="qcurve" smooth="yes"/>
      <point x="140" y="28"/>
      <point x="185" y="28" type="qcurve" smooth="yes"/>
      <point x="209" y="28"/>
      <point x="229" y="48" type="qcurve" smooth="yes"/>
      <point x="245" y="65"/>
      <point x="245" y="85" type="qcurve" smooth="yes"/>
      <point x="245" y="144"/>
      <point x="161" y="166" type="qcurve" smooth="yes"/>
      <point x="75" y="189"/>
      <point x="45" y="239" type="qcurve" smooth="yes"/>
      <point x="30" y="264"/>
      <point x="31" y="299" type="qcurve" smooth="yes"/>
      <point x="31" y="355"/>
      <point x="80" y="391" type="qcurve" smooth="yes"/>
      <point x="125" y="425"/>
      <point x="189" y="425" type="qcurve" smooth="yes"/>
      <point x="249" y="425"/>
      <point x="295" y="407" type="qcurve"/>
      <point x="314" y="356"/>
      <point x="314" y="314" type="qcurve" smooth="yes"/>
      <point x="314" y="305"/>
      <point x="299" y="305" type="qcurve" smooth="yes"/>
      <point x="283" y="305"/>
      <point x="282" y="310" type="qcurve" smooth="yes"/>
      <point x="273" y="335"/>
      <point x="243" y="365" type="qcurve" smooth="yes"/>
      <point x="223" y="385"/>
      <point x="182" y="385" type="qcurve" smooth="yes"/>
      <point x="152" y="385"/>
      <point x="134" y="360" type="qcurve" smooth="yes"/>
      <point x="123" y="345"/>
      <point x="123" y="329" type="qcurve" smooth="yes"/>
      <point x="123" y="280"/>
      <point x="205" y="260" type="qcurve" smooth="yes"/>
      <point x="283" y="240"/>
      <point x="314" y="203" type="qcurve" smooth="yes"/>
      <point x="338" y="173"/>
      <point x="339" y="126" type="qcurve" smooth="yes"/>
      <point x="339" y="61"/>
      <point x="285" y="21" type="qcurve" smooth="yes"/>
      <point x="239" y="-12"/>
    </contour>
  </outline>
</glyph>
<glyph name="t" format="1">
  <advance width="327"/>
  <unicode hex="0074"/>
  <outline>
    <contour>
      <point x="161" y="527" type="move" name="Anchor-1"/>
    </contour>
    <contour>
      <point x="191" y="-37" type="move" name="Anchor-0"/>
    </contour>
    <contour>
      <point x="335" y="44" type="qcurve" smooth="yes"/>
      <point x="282" y="-11"/>
      <point x="201" y="-11" type="qcurve" smooth="yes"/>
      <point x="94" y="-10"/>
      <point x="78" y="78" type="qcurve" smooth="yes"/>
      <point x="75" y="94"/>
      <point x="75" y="114" type="qcurve" smooth="yes"/>
      <point x="75" y="349" type="line" smooth="yes"/>
      <point x="75" y="364"/>
      <point x="60" y="364" type="qcurve" smooth="yes"/>
      <point x="33" y="364" type="line" smooth="yes"/>
      <point x="25" y="364"/>
      <point x="25" y="400"/>
      <point x="33" y="400" type="qcurve" smooth="yes"/>
      <point x="63" y="400"/>
      <point x="98" y="429" type="qcurve" smooth="yes"/>
      <point x="132" y="457"/>
      <point x="143" y="490" type="qcurve" smooth="yes"/>
      <point x="145" y="496"/>
      <point x="164" y="491" type="qcurve" smooth="yes"/>
      <point x="185" y="485"/>
      <point x="188" y="476" type="qcurve" smooth="yes"/>
      <point x="188" y="430" type="line" smooth="yes"/>
      <point x="188" y="415"/>
      <point x="203" y="415" type="qcurve" smooth="yes"/>
      <point x="308" y="415" type="line" smooth="yes"/>
      <point x="315" y="415"/>
      <point x="315" y="364"/>
      <point x="308" y="364" type="qcurve" smooth="yes"/>
      <point x="203" y="364" type="line" smooth="yes"/>
      <point x="188" y="364"/>
      <point x="188" y="349" type="qcurve" smooth="yes"/>
      <point x="188" y="146" type="line" smooth="yes"/>
      <point x="188" y="87"/>
      <point x="205" y="68" type="qcurve" smooth="yes"/>
      <point x="218" y="53"/>
      <point x="247" y="53" type="qcurve" smooth="yes"/>
      <point x="272" y="53"/>
      <point x="309" y="76" type="qcurve" smooth="yes"/>
      <point x="314" y="80"/>
      <point x="328" y="64" type="qcurve" smooth="yes"/>
      <point x="337" y="53"/>
      <point x="336" y="47" type="qcurve" smooth="yes"/>
      <point x="336" y="45"/>
    </contour>
  </outline>
</glyph>
<glyph name="u" format="1">
  <advance width="501"/>
  <unicode hex="0075"/>
  <outline>
    <contour>
      <point x="247" y="439" type="move" name="Anchor-1"/>
    </contour>
    <contour>
      <point x="232" y="-37" type="move" name="Anchor-0"/>
    </contour>
    <contour>
      <point x="507" y="15" type="qcurve" smooth="yes"/>
      <point x="503" y="14"/>
      <point x="456" y="5" type="qcurve" smooth="yes"/>
      <point x="443" y="3"/>
      <point x="431" y="0" type="qcurve" smooth="yes"/>
      <point x="404" y="-6"/>
      <point x="375" y="-15" type="qcurve" smooth="yes"/>
      <point x="369" y="-17"/>
      <point x="363" y="-17" type="qcurve" smooth="yes"/>
      <point x="356" y="-17"/>
      <point x="356" y="5" type="qcurve" smooth="yes"/>
      <point x="356" y="28" type="line" smooth="yes"/>
      <point x="356" y="39"/>
      <point x="344" y="39"/>
      <point x="337" y="32" type="qcurve" smooth="yes"/>
      <point x="292" y="-11"/>
      <point x="217" y="-11" type="qcurve" smooth="yes"/>
      <point x="155" y="-11"/>
      <point x="134" y="6" type="qcurve" smooth="yes"/>
      <point x="62" y="64"/>
      <point x="62" y="151" type="qcurve" smooth="yes"/>
      <point x="62" y="320" type="line" smooth="yes"/>
      <point x="62" y="370"/>
      <point x="21" y="370" type="qcurve" smooth="yes"/>
      <point x="14" y="370"/>
      <point x="14" y="406"/>
      <point x="21" y="406" type="qcurve" smooth="yes"/>
      <point x="76" y="406"/>
      <point x="130" y="415" type="qcurve" smooth="yes"/>
      <point x="145" y="417"/>
      <point x="155" y="417" type="qcurve" smooth="yes"/>
      <point x="177" y="417"/>
      <point x="177" y="396" type="qcurve" smooth="yes"/>
      <point x="174" y="348"/>
      <point x="174" y="317" type="qcurve" smooth="yes"/>
      <point x="174" y="150" type="line" smooth="yes"/>
      <point x="174" y="90"/>
      <point x="198" y="61" type="qcurve" smooth="yes"/>
      <point x="212" y="45"/>
      <point x="246" y="45" type="qcurve" smooth="yes"/>
      <point x="277" y="45"/>
      <point x="311" y="72" type="qcurve" smooth="yes"/>
      <point x="337" y="93"/>
      <point x="337" y="117" type="qcurve" smooth="yes"/>
      <point x="337" y="320" type="line" smooth="yes"/>
      <point x="337" y="370"/>
      <point x="296" y="370" type="qcurve" smooth="yes"/>
      <point x="288" y="370"/>
      <point x="288" y="406"/>
      <point x="296" y="406" type="qcurve" smooth="yes"/>
      <point x="350" y="406"/>
      <point x="408" y="415" type="qcurve" smooth="yes"/>
      <point x="420" y="417"/>
      <point x="427" y="417" type="qcurve" smooth="yes"/>
      <point x="453" y="417"/>
      <point x="453" y="399" type="qcurve" smooth="yes"/>
      <point x="449" y="353"/>
      <point x="449" y="323" type="qcurve" smooth="yes"/>
      <point x="449" y="125" type="line" smooth="yes"/>
      <point x="449" y="81"/>
      <point x="454" y="68" type="qcurve" smooth="yes"/>
      <point x="461" y="48"/>
      <point x="479" y="48" type="qcurve" smooth="yes"/>
      <point x="485" y="48"/>
      <point x="496" y="51" type="qcurve" smooth="yes"/>
      <point x="504" y="53"/>
      <point x="509" y="35" type="qcurve" smooth="yes"/>
      <point x="510" y="28"/>
      <point x="510" y="24" type="qcurve" smooth="yes"/>
      <point x="510" y="16"/>
    </contour>
  </outline>
</glyph>
<glyph name="v" format="1">
  <advance width="451"/>
  <unicode hex="0076"/>
  <outline>
    <contour>
      <point x="249" y="439" type="move" name="Anchor-1"/>
    </contour>
    <contour>
      <point x="225" y="-37" type="move" name="Anchor-0"/>
    </contour>
    <contour>
      <point x="55" y="348" type="line" smooth="yes"/>
      <point x="40" y="383"/>
      <point x="6" y="383" type="qcurve" smooth="yes"/>
      <point x="-1" y="383"/>
      <point x="-1" y="418"/>
      <point x="6" y="418" type="qcurve" smooth="yes"/>
      <point x="37" y="415"/>
      <point x="100" y="415" type="qcurve" smooth="yes"/>
      <point x="176" y="415"/>
      <point x="207" y="418" type="qcurve" smooth="yes"/>
      <point x="214" y="418"/>
      <point x="214" y="383"/>
      <point x="207" y="383" type="qcurve" smooth="yes"/>
      <point x="173" y="383"/>
      <point x="173" y="361" type="qcurve" smooth="yes"/>
      <point x="173" y="352"/>
      <point x="174" y="348" type="qcurve" smooth="yes"/>
      <point x="245" y="125" type="line" smooth="yes"/>
      <point x="247" y="118"/>
      <point x="251" y="118" type="qcurve" smooth="yes"/>
      <point x="254" y="118"/>
      <point x="258" y="125" type="qcurve" smooth="yes"/>
      <point x="334" y="345" type="line" smooth="yes"/>
      <point x="336" y="351"/>
      <point x="336" y="357" type="qcurve" smooth="yes"/>
      <point x="336" y="383"/>
      <point x="292" y="383" type="qcurve" smooth="yes"/>
      <point x="285" y="383"/>
      <point x="285" y="418"/>
      <point x="292" y="418" type="qcurve" smooth="yes"/>
      <point x="321" y="415"/>
      <point x="380" y="415" type="qcurve" smooth="yes"/>
      <point x="425" y="415"/>
      <point x="456" y="418" type="qcurve" smooth="yes"/>
      <point x="463" y="418"/>
      <point x="463" y="383"/>
      <point x="456" y="383" type="qcurve" smooth="yes"/>
      <point x="408" y="383"/>
      <point x="395" y="348" type="qcurve" smooth="yes"/>
      <point x="269" y="19" type="line" smooth="yes"/>
      <point x="256" y="-11"/>
      <point x="230" y="-11" type="qcurve" smooth="yes"/>
      <point x="205" y="-11"/>
      <point x="195" y="14" type="qcurve" smooth="yes"/>
    </contour>
  </outline>
</glyph>
<glyph name="w" format="1">
  <advance width="711"/>
  <unicode hex="0077"/>
  <outline>
    <contour>
      <point x="363" y="439" type="move" name="Anchor-1"/>
    </contour>
    <contour>
      <point x="359" y="-37" type="move" name="Anchor-0"/>
    </contour>
    <contour>
      <point x="55" y="348" type="line" smooth="yes"/>
      <point x="40" y="383"/>
      <point x="6" y="383" type="qcurve" smooth="yes"/>
      <point x="-1" y="383"/>
      <point x="-1" y="418"/>
      <point x="6" y="418" type="qcurve" smooth="yes"/>
      <point x="37" y="415"/>
      <point x="100" y="415" type="qcurve" smooth="yes"/>
      <point x="176" y="415"/>
      <point x="207" y="418" type="qcurve" smooth="yes"/>
      <point x="214" y="418"/>
      <point x="214" y="383"/>
      <point x="207" y="383" type="qcurve" smooth="yes"/>
      <point x="173" y="383"/>
      <point x="173" y="361" type="qcurve" smooth="yes"/>
      <point x="173" y="352"/>
      <point x="176" y="342" type="qcurve" smooth="yes"/>
      <point x="245" y="125" type="line" smooth="yes"/>
      <point x="247" y="118"/>
      <point x="255" y="118"/>
      <point x="258" y="125" type="qcurve" smooth="yes"/>
      <point x="318" y="300" type="line" smooth="yes"/>
      <point x="320" y="306"/>
      <point x="320" y="316"/>
      <point x="318" y="322" type="qcurve" smooth="yes"/>
      <point x="307" y="348" type="line" smooth="yes"/>
      <point x="292" y="383"/>
      <point x="264" y="383" type="qcurve" smooth="yes"/>
      <point x="256" y="383"/>
      <point x="256" y="418"/>
      <point x="264" y="418" type="qcurve" smooth="yes"/>
      <point x="293" y="415"/>
      <point x="352" y="415" type="qcurve" smooth="yes"/>
      <point x="430" y="415"/>
      <point x="459" y="418" type="qcurve" smooth="yes"/>
      <point x="467" y="418"/>
      <point x="467" y="383"/>
      <point x="459" y="383" type="qcurve" smooth="yes"/>
      <point x="425" y="383"/>
      <point x="425" y="360" type="qcurve" smooth="yes"/>
      <point x="425" y="353"/>
      <point x="428" y="342" type="qcurve" smooth="yes"/>
      <point x="497" y="125" type="line" smooth="yes"/>
      <point x="499" y="118"/>
      <point x="507" y="118"/>
      <point x="510" y="125" type="qcurve" smooth="yes"/>
      <point x="586" y="345" type="line" smooth="yes"/>
      <point x="588" y="351"/>
      <point x="588" y="357" type="qcurve" smooth="yes"/>
      <point x="588" y="383"/>
      <point x="544" y="383" type="qcurve" smooth="yes"/>
      <point x="537" y="383"/>
      <point x="537" y="418"/>
      <point x="544" y="418" type="qcurve" smooth="yes"/>
      <point x="575" y="415"/>
      <point x="632" y="415" type="qcurve" smooth="yes"/>
      <point x="679" y="415"/>
      <point x="708" y="418" type="qcurve" smooth="yes"/>
      <point x="715" y="418"/>
      <point x="715" y="383"/>
      <point x="708" y="383" type="qcurve" smooth="yes"/>
      <point x="660" y="383"/>
      <point x="647" y="348" type="qcurve" smooth="yes"/>
      <point x="521" y="19" type="line" smooth="yes"/>
      <point x="510" y="-11"/>
      <point x="458" y="-11"/>
      <point x="447" y="14" type="qcurve" smooth="yes"/>
      <point x="360" y="222" type="line" smooth="yes"/>
      <point x="358" y="228"/>
      <point x="350" y="229"/>
      <point x="347" y="222" type="qcurve" smooth="yes"/>
      <point x="269" y="19" type="line" smooth="yes"/>
      <point x="257" y="-11"/>
      <point x="231" y="-11" type="qcurve" smooth="yes"/>
      <point x="207" y="-11"/>
      <point x="195" y="14" type="qcurve" smooth="yes"/>
    </contour>
  </outline>
</glyph>
<glyph name="x" format="1">
  <advance width="463"/>
  <unicode hex="0078"/>
  <outline>
    <contour>
      <point x="239" y="439" type="move" name="Anchor-1"/>
    </contour>
    <contour>
      <point x="218" y="-37" type="move" name="Anchor-0"/>
    </contour>
    <contour>
      <point x="396" y="75" type="line" smooth="yes"/>
      <point x="427" y="33"/>
      <point x="462" y="33" type="qcurve" smooth="yes"/>
      <point x="470" y="33"/>
      <point x="470" y="-4"/>
      <point x="462" y="-4" type="qcurve" smooth="yes"/>
      <point x="423" y="0"/>
      <point x="355" y="0" type="qcurve" smooth="yes"/>
      <point x="282" y="0"/>
      <point x="243" y="-4" type="qcurve" smooth="yes"/>
      <point x="235" y="-4"/>
      <point x="235" y="33"/>
      <point x="243" y="33" type="qcurve" smooth="yes"/>
      <point x="283" y="33"/>
      <point x="283" y="45" type="qcurve" smooth="yes"/>
      <point x="283" y="50"/>
      <point x="268" y="72" type="qcurve" smooth="yes"/>
      <point x="217" y="146" type="line" smooth="yes"/>
      <point x="214" y="150"/>
      <point x="208" y="150" type="qcurve" smooth="yes"/>
      <point x="204" y="150"/>
      <point x="200" y="145" type="qcurve" smooth="yes"/>
      <point x="146" y="80" type="line" smooth="yes"/>
      <point x="123" y="53"/>
      <point x="123" y="44" type="qcurve" smooth="yes"/>
      <point x="123" y="32"/>
      <point x="152" y="33" type="qcurve" smooth="yes"/>
      <point x="160" y="33"/>
      <point x="160" y="-4"/>
      <point x="152" y="-4" type="qcurve" smooth="yes"/>
      <point x="113" y="0"/>
      <point x="72" y="0" type="qcurve" smooth="yes"/>
      <point x="32" y="0"/>
      <point x="-7" y="-4" type="qcurve" smooth="yes"/>
      <point x="-15" y="-4"/>
      <point x="-15" y="33"/>
      <point x="-7" y="33" type="qcurve" smooth="yes"/>
      <point x="42" y="33"/>
      <point x="69" y="66" type="qcurve" smooth="yes"/>
      <point x="169" y="188" type="line" smooth="yes"/>
      <point x="174" y="194"/>
      <point x="174" y="201" type="qcurve" smooth="yes"/>
      <point x="174" y="206"/>
      <point x="171" y="212" type="qcurve" smooth="yes"/>
      <point x="63" y="349" type="line" smooth="yes"/>
      <point x="37" y="383"/>
      <point x="8" y="383" type="qcurve" smooth="yes"/>
      <point x="1" y="383"/>
      <point x="0" y="418"/>
      <point x="8" y="418" type="qcurve" smooth="yes"/>
      <point x="39" y="415"/>
      <point x="112" y="415" type="qcurve" smooth="yes"/>
      <point x="187" y="415"/>
      <point x="216" y="418" type="qcurve" smooth="yes"/>
      <point x="224" y="418"/>
      <point x="224" y="383"/>
      <point x="216" y="383" type="qcurve" smooth="yes"/>
      <point x="186" y="383"/>
      <point x="186" y="369" type="qcurve" smooth="yes"/>
      <point x="186" y="360"/>
      <point x="198" y="343" type="qcurve" smooth="yes"/>
      <point x="235" y="291" type="line" smooth="yes"/>
      <point x="238" y="286"/>
      <point x="244" y="286" type="qcurve" smooth="yes"/>
      <point x="249" y="286"/>
      <point x="253" y="291" type="qcurve" smooth="yes"/>
      <point x="288" y="335" type="line" smooth="yes"/>
      <point x="304" y="356"/>
      <point x="304" y="367" type="qcurve" smooth="yes"/>
      <point x="304" y="383"/>
      <point x="269" y="383" type="qcurve" smooth="yes"/>
      <point x="261" y="383"/>
      <point x="261" y="418"/>
      <point x="269" y="418" type="qcurve" smooth="yes"/>
      <point x="298" y="415"/>
      <point x="350" y="415" type="qcurve" smooth="yes"/>
      <point x="401" y="415"/>
      <point x="432" y="418" type="qcurve" smooth="yes"/>
      <point x="439" y="418"/>
      <point x="439" y="383"/>
      <point x="432" y="383" type="qcurve" smooth="yes"/>
      <point x="401" y="383"/>
      <point x="374" y="351" type="qcurve" smooth="yes"/>
      <point x="285" y="245" type="line" smooth="yes"/>
      <point x="280" y="239"/>
      <point x="280" y="233" type="qcurve" smooth="yes"/>
      <point x="280" y="228"/>
      <point x="285" y="222" type="qcurve" smooth="yes"/>
    </contour>
  </outline>
</glyph>
<glyph name="y" format="1">
  <advance width="431"/>
  <unicode hex="0079"/>
  <outline>
    <contour>
      <point x="210" y="439" type="move" name="Anchor-1"/>
    </contour>
    <contour>
      <point x="165" y="-195" type="line" smooth="yes"/>
      <point x="145" y="-247"/>
      <point x="103" y="-264" type="qcurve" smooth="yes"/>
      <point x="87" y="-270"/>
      <point x="69" y="-270" type="qcurve" smooth="yes"/>
      <point x="39" y="-270"/>
      <point x="20" y="-249" type="qcurve" smooth="yes"/>
      <point x="7" y="-234"/>
      <point x="7" y="-216" type="qcurve" smooth="yes"/>
      <point x="7" y="-186"/>
      <point x="36" y="-171" type="qcurve" smooth="yes"/>
      <point x="51" y="-164"/>
      <point x="68" y="-164" type="qcurve" smooth="yes"/>
      <point x="119" y="-164"/>
      <point x="127" y="-145" type="qcurve" smooth="yes"/>
      <point x="165" y="-56" type="line" smooth="yes"/>
      <point x="168" y="-47"/>
      <point x="168" y="-31"/>
      <point x="165" y="-22" type="qcurve" smooth="yes"/>
      <point x="33" y="348" type="line" smooth="yes"/>
      <point x="20" y="383"/>
      <point x="-19" y="383" type="qcurve" smooth="yes"/>
      <point x="-26" y="383"/>
      <point x="-26" y="418"/>
      <point x="-19" y="418" type="qcurve" smooth="yes"/>
      <point x="12" y="415"/>
      <point x="80" y="415" type="qcurve" smooth="yes"/>
      <point x="152" y="415"/>
      <point x="183" y="418" type="qcurve" smooth="yes"/>
      <point x="190" y="418"/>
      <point x="190" y="383"/>
      <point x="183" y="383" type="qcurve" smooth="yes"/>
      <point x="144" y="383"/>
      <point x="144" y="360" type="qcurve" smooth="yes"/>
      <point x="144" y="353"/>
      <point x="148" y="342" type="qcurve" smooth="yes"/>
      <point x="222" y="135" type="line" smooth="yes"/>
      <point x="225" y="125"/>
      <point x="230" y="125" type="qcurve" smooth="yes"/>
      <point x="236" y="125"/>
      <point x="241" y="136" type="qcurve" smooth="yes"/>
      <point x="322" y="342" type="line" smooth="yes"/>
      <point x="324" y="348"/>
      <point x="324" y="353" type="qcurve" smooth="yes"/>
      <point x="324" y="383"/>
      <point x="265" y="383" type="qcurve" smooth="yes"/>
      <point x="257" y="383"/>
      <point x="257" y="418"/>
      <point x="265" y="418" type="qcurve" smooth="yes"/>
      <point x="294" y="415"/>
      <point x="360" y="415" type="qcurve" smooth="yes"/>
      <point x="416" y="415"/>
      <point x="445" y="418" type="qcurve" smooth="yes"/>
      <point x="453" y="418"/>
      <point x="453" y="383"/>
      <point x="445" y="383" type="qcurve" smooth="yes"/>
      <point x="400" y="383"/>
      <point x="384" y="354" type="qcurve"/>
    </contour>
  </outline>
</glyph>
<glyph name="z" format="1">
  <advance width="375"/>
  <unicode hex="007A"/>
  <outline>
    <contour>
      <point x="195" y="439" type="move" name="Anchor-1"/>
    </contour>
    <contour>
      <point x="180" y="-37" type="move" name="Anchor-0"/>
    </contour>
    <contour>
      <point x="374" y="129" type="qcurve" smooth="yes"/>
      <point x="362" y="37" type="line" smooth="yes"/>
      <point x="361" y="20"/>
      <point x="361" y="8" type="qcurve" smooth="yes"/>
      <point x="361" y="-12"/>
      <point x="342" y="-12" type="qcurve" smooth="yes"/>
      <point x="337" y="-12"/>
      <point x="295" y="-5" type="qcurve" smooth="yes"/>
      <point x="269" y="0"/>
      <point x="250" y="0" type="qcurve" smooth="yes"/>
      <point x="34" y="0" type="line" smooth="yes"/>
      <point x="14" y="0"/>
      <point x="14" y="18" type="qcurve" smooth="yes"/>
      <point x="14" y="24"/>
      <point x="18" y="33" type="qcurve" smooth="yes"/>
      <point x="192" y="355" type="line" smooth="yes"/>
      <point x="196" y="363"/>
      <point x="196" y="368" type="qcurve" smooth="yes"/>
      <point x="196" y="378"/>
      <point x="182" y="378" type="qcurve" smooth="yes"/>
      <point x="128" y="378" type="line" smooth="yes"/>
      <point x="97" y="378"/>
      <point x="67" y="315" type="qcurve" smooth="yes"/>
      <point x="45" y="265" type="line" smooth="yes"/>
      <point x="43" y="261"/>
      <point x="36" y="261" type="qcurve" smooth="yes"/>
      <point x="27" y="261"/>
      <point x="19" y="267" type="qcurve" smooth="yes"/>
      <point x="13" y="271"/>
      <point x="12" y="278" type="qcurve" smooth="yes"/>
      <point x="26" y="401"/>
      <point x="27" y="403" type="qcurve" smooth="yes"/>
      <point x="30" y="424"/>
      <point x="42" y="425" type="qcurve" smooth="yes"/>
      <point x="119" y="415"/>
      <point x="145" y="415" type="qcurve" smooth="yes"/>
      <point x="315" y="415" type="line" smooth="yes"/>
      <point x="337" y="415"/>
      <point x="337" y="399" type="qcurve" smooth="yes"/>
      <point x="337" y="390"/>
      <point x="333" y="383" type="qcurve" smooth="yes"/>
      <point x="158" y="58" type="line" smooth="yes"/>
      <point x="156" y="55"/>
      <point x="156" y="51" type="qcurve" smooth="yes"/>
      <point x="156" y="39"/>
      <point x="170" y="39" type="qcurve" smooth="yes"/>
      <point x="223" y="39" type="line" smooth="yes"/>
      <point x="287" y="39"/>
      <point x="333" y="139" type="qcurve" smooth="yes"/>
      <point x="335" y="144"/>
      <point x="346" y="145" type="qcurve" smooth="yes"/>
      <point x="350" y="145"/>
      <point x="359" y="143" type="qcurve" smooth="yes"/>
      <point x="374" y="138"/>
    </contour>
  </outline>
</glyph>
<glyph name="braceleft" format="1">
  <advance width="382"/>
  <unicode hex="007B"/>
  <outline>
    <contour>
      <point x="349" y="-156" type="qcurve" smooth="yes"/>
      <point x="263" y="-156"/>
      <point x="232" y="-151" type="qcurve" smooth="yes"/>
      <point x="164" y="-139"/>
      <point x="140" y="-90" type="qcurve" smooth="yes"/>
      <point x="122" y="-55"/>
      <point x="122" y="3" type="qcurve" smooth="yes"/>
      <point x="122" y="210" type="line" smooth="yes"/>
      <point x="122" y="266"/>
      <point x="85" y="280" type="qcurve" smooth="yes"/>
      <point x="70" y="286"/>
      <point x="47" y="286" type="qcurve" smooth="yes"/>
      <point x="40" y="286"/>
      <point x="40" y="316"/>
      <point x="47" y="316" type="qcurve" smooth="yes"/>
      <point x="104" y="316"/>
      <point x="117" y="354" type="qcurve" smooth="yes"/>
      <point x="122" y="368"/>
      <point x="122" y="389" type="qcurve" smooth="yes"/>
      <point x="122" y="548" type="line" smooth="yes"/>
      <point x="122" y="655"/>
      <point x="162" y="693" type="qcurve" smooth="yes"/>
      <point x="192" y="722"/>
      <point x="262" y="727" type="qcurve" smooth="yes"/>
      <point x="288" y="729"/>
      <point x="348" y="729" type="qcurve" smooth="yes"/>
      <point x="355" y="729"/>
      <point x="355" y="692"/>
      <point x="349" y="692" type="qcurve" smooth="yes"/>
      <point x="284" y="692"/>
      <point x="259" y="674" type="qcurve" smooth="yes"/>
      <point x="225" y="651"/>
      <point x="225" y="578" type="qcurve" smooth="yes"/>
      <point x="225" y="464" type="line" smooth="yes"/>
      <point x="225" y="394"/>
      <point x="217" y="366" type="qcurve" smooth="yes"/>
      <point x="205" y="325"/>
      <point x="163" y="301" type="qcurve"/>
      <point x="207" y="274"/>
      <point x="219" y="226" type="qcurve" smooth="yes"/>
      <point x="225" y="199"/>
      <point x="225" y="149" type="qcurve" smooth="yes"/>
      <point x="225" y="19" type="line" smooth="yes"/>
      <point x="225" y="-61"/>
      <point x="246" y="-89" type="qcurve" smooth="yes"/>
      <point x="267" y="-119"/>
      <point x="348" y="-119" type="qcurve" smooth="yes"/>
      <point x="356" y="-119"/>
      <point x="356" y="-156"/>
    </contour>
  </outline>
</glyph>
<glyph name="braceright" format="1">
  <advance width="382"/>
  <unicode hex="007D"/>
  <outline>
    <contour>
      <point x="39" y="-156" type="qcurve" smooth="yes"/>
      <point x="31" y="-156"/>
      <point x="31" y="-119"/>
      <point x="39" y="-119" type="qcurve" smooth="yes"/>
      <point x="105" y="-119"/>
      <point x="129" y="-102" type="qcurve" smooth="yes"/>
      <point x="162" y="-78"/>
      <point x="162" y="19" type="qcurve" smooth="yes"/>
      <point x="162" y="149" type="line" smooth="yes"/>
      <point x="162" y="221"/>
      <point x="178" y="253" type="qcurve" smooth="yes"/>
      <point x="192" y="282"/>
      <point x="225" y="301" type="qcurve"/>
      <point x="181" y="327"/>
      <point x="169" y="374" type="qcurve" smooth="yes"/>
      <point x="163" y="400"/>
      <point x="163" y="464" type="qcurve" smooth="yes"/>
      <point x="163" y="578" type="line" smooth="yes"/>
      <point x="163" y="652"/>
      <point x="126" y="676" type="qcurve" smooth="yes"/>
      <point x="101" y="692"/>
      <point x="39" y="692" type="qcurve" smooth="yes"/>
      <point x="31" y="692"/>
      <point x="31" y="729"/>
      <point x="39" y="729" type="qcurve" smooth="yes"/>
      <point x="134" y="729"/>
      <point x="169" y="721" type="qcurve" smooth="yes"/>
      <point x="226" y="708"/>
      <point x="246" y="664" type="qcurve" smooth="yes"/>
      <point x="265" y="621"/>
      <point x="265" y="548" type="qcurve" smooth="yes"/>
      <point x="265" y="389" type="line" smooth="yes"/>
      <point x="265" y="334"/>
      <point x="303" y="321" type="qcurve" smooth="yes"/>
      <point x="318" y="316"/>
      <point x="340" y="316" type="qcurve" smooth="yes"/>
      <point x="348" y="316"/>
      <point x="348" y="286"/>
      <point x="341" y="286" type="qcurve" smooth="yes"/>
      <point x="286" y="286"/>
      <point x="272" y="250" type="qcurve" smooth="yes"/>
      <point x="266" y="234"/>
      <point x="266" y="210" type="qcurve" smooth="yes"/>
      <point x="266" y="3" type="line" smooth="yes"/>
      <point x="266" y="-96"/>
      <point x="208" y="-133" type="qcurve" smooth="yes"/>
      <point x="172" y="-156"/>
    </contour>
  </outline>
</glyph>
<glyph name="asciitilde" format="1">
  <advance width="362"/>
  <unicode hex="007E"/>
  <outline>
    <contour>
      <point x="359" y="253" type="line"/>
      <point x="321" y="210" type="line" smooth="yes"/>
      <point x="280" y="168"/>
      <point x="235" y="169" type="qcurve" smooth="yes"/>
      <point x="210" y="169"/>
      <point x="164" y="190" type="qcurve" smooth="yes"/>
      <point x="121" y="211"/>
      <point x="101" y="213" type="qcurve" smooth="yes"/>
      <point x="96" y="213"/>
      <point x="92" y="214" type="qcurve" smooth="yes"/>
      <point x="70" y="214"/>
      <point x="37" y="187" type="qcurve" smooth="yes"/>
      <point x="29" y="180" type="line"/>
      <point x="29" y="179" type="line" smooth="yes"/>
      <point x="27" y="177"/>
      <point x="23" y="177" type="qcurve" smooth="yes"/>
      <point x="17" y="179" type="line" smooth="yes"/>
      <point x="6" y="184"/>
      <point x="2" y="195" type="qcurve" smooth="yes"/>
      <point x="1" y="201" type="line" smooth="yes"/>
      <point x="1" y="202"/>
      <point x="3" y="203" type="qcurve" smooth="yes"/>
      <point x="34" y="238" type="line" smooth="yes"/>
      <point x="75" y="280"/>
      <point x="127" y="280" type="qcurve" smooth="yes"/>
      <point x="152" y="280"/>
      <point x="199" y="258" type="qcurve" smooth="yes"/>
      <point x="241" y="238"/>
      <point x="259" y="236" type="qcurve" smooth="yes"/>
      <point x="259" y="236"/>
      <point x="264" y="236" type="qcurve" smooth="yes"/>
      <point x="286" y="236"/>
      <point x="311" y="256" type="qcurve" smooth="yes"/>
      <point x="328" y="271"/>
      <point x="332" y="274" type="qcurve" smooth="yes"/>
      <point x="337" y="275" type="line" smooth="yes"/>
      <point x="348" y="274"/>
      <point x="357" y="263" type="qcurve" smooth="yes"/>
      <point x="360" y="257" type="line"/>
    </contour>
  </outline>
</glyph>
<glyph name="exclamdown" format="1">
  <advance width="253"/>
  <unicode hex="00A1"/>
  <outline>
    <contour>
      <point x="58" y="354" type="qcurve" smooth="yes"/>
      <point x="58" y="384"/>
      <point x="102" y="423"/>
      <point x="167" y="423"/>
      <point x="211" y="381"/>
      <point x="211" y="320"/>
      <point x="171" y="274"/>
      <point x="97" y="274"/>
      <point x="58" y="321"/>
    </contour>
    <contour>
      <point x="66" y="-214" type="qcurve" smooth="yes"/>
      <point x="66" y="-156"/>
      <point x="100" y="76" type="qcurve" smooth="yes"/>
      <point x="107" y="120"/>
      <point x="110" y="196" type="qcurve" smooth="yes"/>
      <point x="110" y="206"/>
      <point x="159" y="206"/>
      <point x="160" y="196" type="qcurve" smooth="yes"/>
      <point x="161" y="146"/>
      <point x="199" y="-183"/>
      <point x="199" y="-198" type="qcurve" smooth="yes"/>
      <point x="199" y="-233"/>
      <point x="158" y="-272"/>
      <point x="133" y="-272" type="qcurve" smooth="yes"/>
      <point x="100" y="-272"/>
      <point x="66" y="-238"/>
    </contour>
  </outline>
</glyph>
<glyph name="cent" format="1">
  <advance width="429"/>
  <unicode hex="00A2"/>
  <outline>
    <contour>
      <point x="389" y="192" type="qcurve" smooth="yes"/>
      <point x="402" y="170"/>
      <point x="393" y="165" type="qcurve" smooth="yes"/>
      <point x="353" y="139" type="line"/>
      <point x="296" y="107"/>
      <point x="223" y="107" type="qcurve" smooth="yes"/>
      <point x="213" y="107" type="line"/>
      <point x="197" y="14" type="line" smooth="yes"/>
      <point x="197" y="10"/>
      <point x="186" y="10" type="qcurve" smooth="yes"/>
      <point x="179" y="10"/>
      <point x="169" y="12" type="qcurve" smooth="yes"/>
      <point x="143" y="16"/>
      <point x="144" y="22" type="qcurve" smooth="yes"/>
      <point x="160" y="119" type="line"/>
      <point x="96" y="143"/>
      <point x="61" y="203" type="qcurve" smooth="yes"/>
      <point x="32" y="251"/>
      <point x="32" y="309" type="qcurve" smooth="yes"/>
      <point x="32" y="393"/>
      <point x="83" y="460" type="qcurve" smooth="yes"/>
      <point x="143" y="538"/>
      <point x="234" y="546" type="qcurve"/>
      <point x="251" y="640" type="line" smooth="yes"/>
      <point x="251" y="643"/>
      <point x="261" y="644" type="qcurve" smooth="yes"/>
      <point x="273" y="644"/>
      <point x="305" y="634"/>
      <point x="305" y="630" type="qcurve" smooth="yes"/>
      <point x="290" y="545" type="line"/>
      <point x="360" y="540"/>
      <point x="390" y="503" type="qcurve" smooth="yes"/>
      <point x="393" y="495"/>
      <point x="393" y="483" type="qcurve" smooth="yes"/>
      <point x="393" y="456"/>
      <point x="378" y="442" type="qcurve" smooth="yes"/>
      <point x="361" y="425"/>
      <point x="350" y="425" type="qcurve" smooth="yes"/>
      <point x="329" y="425"/>
      <point x="319" y="439" type="qcurve" smooth="yes"/>
      <point x="316" y="443"/>
      <point x="300" y="472" type="qcurve" smooth="yes"/>
      <point x="295" y="481"/>
      <point x="281" y="490" type="qcurve"/>
      <point x="227" y="185" type="line"/>
      <point x="250" y="175"/>
      <point x="265" y="175" type="qcurve" smooth="yes"/>
      <point x="327" y="175"/>
      <point x="366" y="206" type="qcurve" smooth="yes"/>
      <point x="377" y="212"/>
    </contour>
    <contour>
      <point x="226" y="497" type="line"/>
      <point x="188" y="485"/>
      <point x="165" y="434" type="qcurve" smooth="yes"/>
      <point x="144" y="390"/>
      <point x="144" y="333" type="qcurve" smooth="yes"/>
      <point x="144" y="274"/>
      <point x="179" y="228" type="qcurve"/>
    </contour>
  </outline>
</glyph>
